<svg xmlns="http://www.w3.org/2000/svg" viewBox="0 0 356.73 364.01"><defs><style>.cls-1{fill:#662903;}.cls-2,.cls-5{fill:#441a00;}.cls-2{stroke:#441a00;stroke-miterlimit:10;}.cls-3{fill:none;stroke:#2c0404;stroke-linecap:round;stroke-linejoin:round;stroke-width:5px;}.cls-4{fill:#965227;}</style></defs><title>Asset 11</title><g id="Layer_2" data-name="Layer 2"><g id="Layer_1-2" data-name="Layer 1"><path class="cls-1" d="M42.55,317.2a96.85,96.85,0,0,0,7.43,11,108.85,108.85,0,0,0,11.51,11.62,85.94,85.94,0,0,0,8.35,7c5.51,3.89,11.85,6.45,18.29,8.46a119.72,119.72,0,0,0,31.63,5.47,26,26,0,0,0,5.22-.22c2-.35,4-1.14,6-1.63,4.36-1.06,8.92-.72,13.4-1,5-.31,13.25-7.83,11.16-7.88-23.23-.54-42.76-3.94-64.95-31.81-7.36-9.25-11.93-21.49-17.53-31.9-3.7-6.88-7.53-14.31-14.39-18a3.61,3.61,0,0,0-1.69-.56,4.35,4.35,0,0,0-2.19.88,26.6,26.6,0,0,1-17.55,3.47c-1.73-.25-7.58-3.23-8.81-2.86-2.36.72-1.5,6.29-1.35,8.54C28.09,292.09,35.28,305.2,42.55,317.2Z"/><path class="cls-1" d="M312.6,269.09c.28,5.79,4.56,14.46,10.35,14.85s19.49-.69,21.69-7.23c.3-.87-.76-.51,0,0,1.18.8,1.06,2.54.8,3.93a312.67,312.67,0,0,1-7.74,32.08c-1.68,5.66-5.55,11-8.72,16a59.53,59.53,0,0,1-8.66,11.17,54.91,54.91,0,0,1-12.65,8.72c-18.21,9.61-37.51,11-58,12.87a70.29,70.29,0,0,1-16.06-.89c-5.83-1.07-9.8-3-15.67-2.14-1.14.17-3.61,1.2-4.38.35-.43-.47.08.63,0,0l-.65-4.85c-.08-.6,1.58-1.82,2.57-2.1,9.29-2.67,18.38-3.83,27.67-6.5,6.26-1.79,14.48-4.5,20.17-7.66,3.62-2,27.94-15.47,34-31C302.06,294.35,306,280.6,312.6,269.09Z"/><path class="cls-1" d="M31.24,121.9c-8.11-1.27-16.18-4.31-22.07-10S-.1,97.47,1.88,89.49,11.91,75.1,20,76.26a2.83,2.83,0,0,1,1.8.78c1.06,1.24-.29,3-1.36,4.23-3.18,3.63-4.36,8.69-4,13.51a39,39,0,0,0,4.13,13.77,9.71,9.71,0,0,0,2.94,4c2.8,1.92,6.59.64,9.72-.69a8.71,8.71,0,0,0,3-1.8,9,9,0,0,0,1.8-4A100,100,0,0,1,140.16,32.3c5.38.3,10.7,1.51,16.09,1.32a1.36,1.36,0,0,0,1.16-.42,1.36,1.36,0,0,0-.09-1.28c-1.92-4.21-5.56-7.35-9.12-10.3-2.95-2.45-6.13-5-9.93-5.51-4.26-.61-8.41,1.37-12.38,3a1.46,1.46,0,0,1-1.28.1c-.5-.3-.44-1.05-.24-1.6,1.43-4.1,6.13-5.93,10.36-6.91,9.53-2.23,20.21-2.55,28.43,2.75a34.56,34.56,0,0,1,7.48,6.86c3,3.52,5.79,7.94,4.93,12.49a20.24,20.24,0,0,0,1.54-10.11c-.57-5.45-3.31-10.4-6.11-15.1,3.33.59,5.57,3.66,7.35,6.54,2.24,3.65,4.39,7.53,4.8,11.8.07.67.16,1.46.75,1.79a1.59,1.59,0,0,0,1.08.09c2.62-.51,4-3.27,5.25-5.65,3.31-6.46,8-12.38,14.19-16.12S218.52,1,225.3,3.61c1.48,4.2,2.69,8.59,4.17,12.79a1.89,1.89,0,0,1,.15,1.16c-.17.53-.76.79-1.28,1-7.24,2.52-15.3,2.72-22,6.49a9.89,9.89,0,0,0-4.45,4.36c-.83,1.95-.45,4.53,1.32,5.7,6.19-.14,12.29-.28,18.48-.18,11.94.19,24.06.85,35.38,4.65,14.41,4.83,26.92,14.67,35.87,27,6.81,9.37,12,20,16.16,30.8,1.47,3.79,2.79,7.7,5.16,11s6.06,5.94,10.12,5.92c7.74,0,15.62,2.33,20.93,8a34.16,34.16,0,0,1,8.77,21c-1.55-3.53-4.26-6.4-6.92-9.19a20.1,20.1,0,0,0-4.09-3.57,8.7,8.7,0,0,0-8.71-.24,6.8,6.8,0,0,0-3,7.86c7.78,21.18,14.94,42.62,15.1,65.18a18.78,18.78,0,0,0-23.9,2.09,6.54,6.54,0,0,0-3,1.27l-.28,15.68a99.69,99.69,0,0,1-.66,11.59c-.91,6.75-3.19,13.24-5.54,19.64a109.4,109.4,0,0,1-5.53,13.17,59,59,0,0,1-25.78,25.27,27.6,27.6,0,0,1-10.53,3.21,187,187,0,0,0,17.23-20.78c11.14-15.88,17.12-35,19-54.33s-.09-38.83-3.89-57.86c-1.77-8.91-3.79-18-7-26.5-.71-1.85-1.53-3.77-3.11-5l.11,14.55a37.27,37.27,0,0,1-.36,6.68c-1.39,7.81-7.7,13.89-14.62,17.77-1.05.59-2.35,1.14-3.39.54a3.15,3.15,0,0,1-1.11-1.38c-2.32-4.6-1.31-10.08-1.64-15.22-.31-5-1.94-9.79-3.66-14.49a100,100,0,0,0-8.06-17.71,42.26,42.26,0,0,0-13.28-14,202,202,0,0,1-5.81,25.13c-1.9,6.33-4.13,12.54-8,17.89s-8.63,10-13.36,14.6a6.82,6.82,0,0,1-.34-3.93c.62-4.8,2.16-9.46,2.5-14.28a29.29,29.29,0,0,0-6.12-20A45.07,45.07,0,0,1,204.5,150.4c-3.89,4.07-8.68,7.57-11,12.73a10.18,10.18,0,0,0-1,4.08,11,11,0,0,0,2.18,6,20.88,20.88,0,0,0,6.78,6.31,19.54,19.54,0,0,1-11,2.35,32.92,32.92,0,0,1-20.37-8.74c-5.11-4.79-8.56-11.14-10.8-17.78s-3.32-13.6-4.27-20.53c-2.08-15.17-3.48-31.16,2.4-45.3.46-1.12.68-2.87-.51-3.13a2,2,0,0,0-1.38.4c-10.36,6.11-16.45,17.87-18.21,29.77s.27,24,3,35.75a72.72,72.72,0,0,1-2.64-59.15c-7.44,10.17-15,20.6-18.65,32.66-3.43,11.32-5.73,22.94-4.73,34.72a30.4,30.4,0,0,0,2.21,10A154.58,154.58,0,0,1,82.4,169a4.63,4.63,0,0,1-2.07-.69,4.31,4.31,0,0,1-1-1.25c-3.55-5.68-5.49-12.72-3.65-19.16-4.23,13.14-8.21,26.69-7.56,40.47.71,15.25-3,30.13,1,44.86a119.35,119.35,0,0,0,5,14c3.55,8.63,7.32,17.3,13.07,24.64,2.88,3.67,6.22,7,8.75,10.88a1.58,1.58,0,0,1,.35,1c-.13.85-1.32.9-2.15.74-1.81-.36-3.63-.72-5.42-1.15-21-5-39.87-19.36-48.79-39-7.29-16.07-7.66-29.87-8-47.52.07,2.41-9.51-.06-12.91,4.9-1.77,2.58-4.5-5-3.92-8.11.92-4.92,1.78-7.9,2.23-12.89.6-6.57.32-13.21,1.2-19.75,1-7.5,3.52-14.71,6-21.87.52-1.49.53-2.73,1-4.24a103.9,103.9,0,0,1,3.74-10A10.78,10.78,0,0,1,31.24,121.9Z"/><path class="cls-2" d="M323,133.57s7.15-17.62,27.06,0l-.34,3.58-5.16-5.32-12.11,1.53-3.58,2.77Z"/><path class="cls-2" d="M320.52,204.81s-1.71-62.59-22.06-94.23a2.31,2.31,0,0,1,3.24-3.18,96.19,96.19,0,0,1,27,28.6l.15.27,10.21,21.62a2,2,0,0,1,.17.47l6.22,26.8a3.78,3.78,0,0,1,.06.47l.31,13.53v1.14a2.32,2.32,0,0,1-3.67,1.88h0a2.31,2.31,0,0,0-1.35-.43H329.15a2.35,2.35,0,0,0-1.1.27l-7.53,4.07Z"/><path class="cls-2" d="M158.44,18.06a61,61,0,0,1,12.09,13.45c.57.87,1.35,1.86,2.38,1.72a1.82,1.82,0,0,0,1.4-1.46,4.81,4.81,0,0,0-.13-2.13,28.72,28.72,0,0,0-11-17.08,23.8,23.8,0,0,0-14.32-4.38c-1.26,0-5.84-.11-4.62,2,1,1.66,4.92,2.06,6.59,2.87A38.49,38.49,0,0,1,158.44,18.06Z"/><path class="cls-2" d="M194.28,31a10.79,10.79,0,0,1,3.37-8.4,22.24,22.24,0,0,1,7.95-4.75A58,58,0,0,1,218,14.72c3.35-.49,6.83-.73,10,.33.58.19,1.24.53,1.31,1.14s-.75,1.25-1.46,1.49c-6.31,2.16-13.73,1.5-19.05,5.52-3.76,2.83-4.88,7-7.38,10.76S194.61,34.44,194.28,31Z"/><path class="cls-2" d="M62.88,161.54a112,112,0,0,0-9.39,20.69c-5,15.79-4.81,33.05-.45,49S65.77,262,76.4,274.73a35.76,35.76,0,0,0,8.8,8.17c3.46,2.06,7.74,3.05,11.57,1.84a112.77,112.77,0,0,1-31.55-81.8,202.78,202.78,0,0,1,2.15-20.86c1.41-10,3-20,5.73-29.76,1-3.47,2.58-10.87-1.86-4.4C68.23,152.3,65.49,156.9,62.88,161.54Z"/><path class="cls-2" d="M28,282.88A58.24,58.24,0,0,0,52.17,281c3.95,17.21,13.77,32.64,26,45.41C95,344,117.89,357.72,142.29,357c7.61-.23,15.27-4.18,13.52-5.32s1.78-2.15-.24-1.6c-12.66,3.45-49.18-18.11-56.11-22.48s-29.27-39.78-29-49.1c.12-4.12-5.43-6.21-8.86-8.5a9.54,9.54,0,0,0-4.16-1.83c-2.13-.22-4.14.87-6.12,1.71a27.89,27.89,0,0,1-20.24.53c-1.7-.62-4.06-1.2-4.94.38a3.55,3.55,0,0,0-.25,2C26.17,276.46,27.31,279.28,28,282.88Z"/><path class="cls-2" d="M285.44,338.4c17.39-11.5,31.47-29.39,34.27-50a71,71,0,0,0,17.86,1.46,5.64,5.64,0,0,0,3.56-1,5.32,5.32,0,0,0,1.4-2.82c1-4,2.88-5.21,2.11-9.26-5.79,6.28-18.08,5.87-22.82,4.54-5.13-1.44-7.88-1.27-7.88-10.89,0-.48-3.88-3.61-6.09,1.85-7.86,19.47-12.7,38.67-28.81,51.17s-38.28,21.09-58.26,25.15c-2.53.51-8.16,1.08-9.78,3.09-4.78,5.93,6.88,7.9,12,8.66,6.09.91,13.22-2.19,19.06-3.71C257.25,352.6,272.26,347.12,285.44,338.4Z"/><path class="cls-2" d="M104.6,159.73a96.43,96.43,0,0,1,29-80.08,26.68,26.68,0,0,1,6.56-4.88c2.46-1.18,5.45-1.66,7.92-.48a1.68,1.68,0,0,1,.93.84,1.82,1.82,0,0,1-.07,1.15c-1.84,6.32-6.64,11.24-10.88,16.28a115.49,115.49,0,0,0-18.91,31.71,57.83,57.83,0,0,0-4.26,16.5c-.77,9.59,2.06,19.16,1.74,28.77a2.75,2.75,0,0,1-.55,1.85,2.81,2.81,0,0,1-2.3.49c-1.68-.13-3.38-.23-5.06-.41s-1.8-1.11-2.34-2.76A49,49,0,0,1,104.6,159.73Z"/><path class="cls-2" d="M193.63,145.29c-2.53,2.15-5.3,4.1-7.36,6.71a26.17,26.17,0,0,0-3.55,6.53c-1.37,3.42-2.42,7.08-2.05,10.74a14.09,14.09,0,0,0,5.5,9.8,13.28,13.28,0,0,0,11,2.22,2.34,2.34,0,0,0,1.4-.78c.69-1-.23-2.25-1-3.16a16.88,16.88,0,0,1-1.36-19.25,38.25,38.25,0,0,1,5.63-6.44q2.84-2.9,5.45-6a41.23,41.23,0,0,0,6.09-9.08,37.28,37.28,0,0,0,2.73-9.8,57,57,0,0,0,0-18.62,44.69,44.69,0,0,0-2.5-9c-.25-.62-1.19-3.71-2.13-2.84-.47.44.28,3.26.34,3.91A53.75,53.75,0,0,1,205,131.42,51.06,51.06,0,0,1,193.63,145.29Z"/><path class="cls-2" d="M231.37,127.14a89,89,0,0,1-1.08,17.47,77.88,77.88,0,0,1-1.86,9.72c-.65,2.34-1.64,4.83-3.75,6a1.76,1.76,0,0,1-1.21.27c-.75-.19-1-1.09-1.11-1.86-.33-3,.23-6,.45-9a40.71,40.71,0,0,0-4.16-21,48.94,48.94,0,0,1-3.3-6.94c-1.37-4.33-.74-9-.78-13.53,0-4.69-1.19-8.87-2.11-13.4-.21-1-.34-3.42,1-3.87s2.94,2,3.72,2.86A55.16,55.16,0,0,1,228.88,114,52.62,52.62,0,0,1,231.37,127.14Z"/><path class="cls-3" d="M209.86,88.82s5.61,12.33,5.6,30.71c0,28.09-17.36,31.41-21.7,43.41s9.7,17.87,9.7,17.87c-65.87,14.81-44.94-96.26-44.94-96.26s-31.83,9.88-17.19,73.37"/><path class="cls-3" d="M274.27,169.66c-1.36-49-30-65-30-65,10.89,33-28.85,65-28.85,65a41.68,41.68,0,0,0,7.06-36.3"/><path class="cls-3" d="M283.12,133.36s4.25,10.26,1.87,35.45"/><path class="cls-3" d="M295.2,154a101.93,101.93,0,0,0-5.27-30.81s54,98.22-19.58,172.77"/><path class="cls-3" d="M149.16,80.47s-44.76,35.74-32.85,89.19"/><line class="cls-3" x1="99.46" y1="170.34" x2="104.06" y2="170.34"/><path class="cls-3" d="M91.46,169.66H80.74s-8.17-13.28,0-35.06c0,0-43.66,90.64,18.72,151.15,0,0-77.11-3.07-66.55-108.6"/><path class="cls-3" d="M15.61,204.3s-5.11-46.21,16.3-84"/><path class="cls-3" d="M24.91,120.3S6.69,118.77,3,97.83s17-23.66,22-19.23c0,0-13,7.05-7.66,24.17s20.42,6.64,20.42,6.64,2-24.68,26-45.28"/><line class="cls-3" x1="69.25" y1="58" x2="73.93" y2="53.83"/><path class="cls-3" d="M79.5,48.81s24.26-21.19,66.9-15.57"/><path class="cls-3" d="M158.91,33.36s-17-26.93-38-11.87c0,0,7.15-18.51,38.05-11.11"/><path class="cls-3" d="M166.18,15.24s7.28,3.06,9.19,18.63"/><path class="cls-3" d="M165,2.73s16.6,5.74,17.62,23.61"/><path class="cls-3" d="M188.27,31.32s1.79-31.79,37-28.59"/><path class="cls-3" d="M226.44,11l3.45,7.79S201,18.81,201.16,36c0,0,92.51-17.87,110.21,72.34"/><path class="cls-3" d="M320.52,112.26s34-2.17,33.71,37.27c0,0-5.37-31.15-25.41-13.4,0,0,19.92,30.89,16.85,65.62"/><path class="cls-3" d="M344.64,276.71s6.65,32.53-29.35,65.21"/><path class="cls-3" d="M210.57,357s55.27,13.09,84.29-5.4"/><line class="cls-3" x1="302.91" y1="348.3" x2="306.61" y2="346.13"/><path class="cls-3" d="M26.15,270.78s-1.07,22.29,17.31,47.48"/><path class="cls-3" d="M52.14,329S87.2,377.15,164,354"/><path class="cls-4" d="M87.17,83.72a28.83,28.83,0,0,1,15.6-14.53c1.78-.69,1-3.59-.8-2.89A31.89,31.89,0,0,0,84.58,82.2c-.84,1.73,1.75,3.26,2.59,1.52Z"/><path class="cls-4" d="M112.12,64.71a11.9,11.9,0,0,1,8.1-2.64c1.94.06,1.93-2.94,0-3A15,15,0,0,0,110,62.59c-1.5,1.21.63,3.33,2.12,2.12Z"/><path class="cls-4" d="M58.28,97.61A11,11,0,0,1,61,94.3a1.51,1.51,0,0,0,0-2.12,1.53,1.53,0,0,0-2.12,0,13.11,13.11,0,0,0-3.22,3.92c-.92,1.69,1.67,3.21,2.59,1.51Z"/><path class="cls-4" d="M39.84,171a6.3,6.3,0,0,1,1.33-5.67c1.26-1.46-.86-3.59-2.12-2.13a9.48,9.48,0,0,0-2.1,8.6c.46,1.87,3.35,1.08,2.89-.8Z"/><path class="cls-4" d="M90.29,158.8a39.39,39.39,0,0,1,.76-28.39c.73-1.79-2.17-2.57-2.89-.8a41.94,41.94,0,0,0-.76,30c.63,1.81,3.53,1,2.89-.79Z"/><path class="cls-4" d="M163.82,122A62.67,62.67,0,0,0,174,169.15c1.1,1.57,3.7.07,2.59-1.52a59.65,59.65,0,0,1-9.83-44.87c.34-1.89-2.55-2.7-2.89-.8Z"/><path class="cls-4" d="M174.53,142.39a11.36,11.36,0,0,0,2.27,9.66c1.19,1.52,3.3-.62,2.12-2.12a8.17,8.17,0,0,1-1.5-6.74c.41-1.88-2.48-2.69-2.89-.8Z"/><path class="cls-4" d="M38.65,292.26a72.46,72.46,0,0,0,30.78,43.29c1.62,1.06,3.13-1.54,1.51-2.59a69.32,69.32,0,0,1-29.4-41.49c-.46-1.88-3.35-1.08-2.89.79Z"/><path class="cls-4" d="M76.59,341.66a32.38,32.38,0,0,0,9,4.73c1.83.62,2.61-2.27.79-2.89a30,30,0,0,1-8.32-4.43c-1.54-1.16-3,1.45-1.51,2.59Z"/><path class="cls-5" d="M224.89,46.09A23.46,23.46,0,0,1,240,49a1.5,1.5,0,0,0,1.52-2.59,26.14,26.14,0,0,0-16.63-3.36c-1.89.24-1.92,3.24,0,3Z"/><path class="cls-5" d="M254,52.09c16.38,7,27.32,19,36,34.22a1.5,1.5,0,0,0,2.59-1.51c-8.94-15.63-20.28-28.11-37.11-35.3-1.76-.75-3.29,1.83-1.51,2.59Z"/><path class="cls-5" d="M232.79,105.74A19.23,19.23,0,0,1,236,123.06a1.5,1.5,0,0,0,2.89.8,22.34,22.34,0,0,0-4-20.24c-1.18-1.53-3.29.61-2.12,2.12Z"/><path class="cls-5" d="M198.55,91.48c3.48,12.16,6.9,25.66-.83,37-1.09,1.6,1.51,3.1,2.59,1.52,8.19-12,4.83-26.34,1.14-39.27a1.51,1.51,0,0,0-2.9.8Z"/><path class="cls-5" d="M193.83,133.17a7.86,7.86,0,0,1-3.36,3.75,1.5,1.5,0,0,0,1.51,2.59,11.12,11.12,0,0,0,4.74-5.54,1.51,1.51,0,0,0-1.05-1.85,1.54,1.54,0,0,0-1.84,1Z"/><path class="cls-5" d="M327.11,299.51c-4.1,16.22-10.57,34.74-28.18,40.28-1.84.58-1.06,3.48.79,2.9,18.71-5.89,25.9-25,30.28-42.39.47-1.87-2.42-2.67-2.89-.79Z"/><path class="cls-5" d="M286,345.81A8.14,8.14,0,0,1,279,349c-1.93-.08-1.92,2.92,0,3a11.22,11.22,0,0,0,9.53-4.65c1.16-1.54-1.44-3-2.59-1.51Z"/><path class="cls-4" d="M66.9,84.48A65.41,65.41,0,0,1,119.05,48.9c1.9-.18,1.92-3.18,0-3A68.42,68.42,0,0,0,64.31,83c-.87,1.72,1.72,3.24,2.59,1.52Z"/></g></g></svg>