<svg id="Layer_1" data-name="Layer 1" xmlns="http://www.w3.org/2000/svg" viewBox="0 0 501 1001"><defs><style>.cls-1{fill:none;stroke:#fff;stroke-miterlimit:10;opacity:0;}.cls-2{fill:#fff;}.cls-3{fill:#2c0404;}</style></defs><title>f-mouth2</title><rect class="cls-1" x="0.5" y="0.5" width="500" height="1000"/><path class="cls-2" d="M212.07,291.62a47.85,47.85,0,0,1,6.56-.22c26.05.32,49.31,1.71,75.33,2.84-.69,2.93.24,4.77-1.35,7.33-3.78,6.12-6.63,13.39-12.84,17-3,1.77-6.52,2.47-10,3a115.9,115.9,0,0,1-16.64,1.3c-9.47.06-19.27-1.15-27.37-6a45,45,0,0,1-13.4-13.19c-1.37-2-2.47-4-2.09-6.43C210.57,295.56,209.91,291.89,212.07,291.62Z" transform="translate(0.5 0.5)"/><path class="cls-3" d="M211.28,294.25q41.46.64,82.92,1.38l-2.5-2.5c-.77,17.46-15.78,29.79-33,27.88-3.19-.35-3.17,4.65,0,5a34.21,34.21,0,0,0,38-32.88,2.52,2.52,0,0,0-2.5-2.5q-41.46-.74-82.92-1.38c-3.22-.05-3.22,4.95,0,5Z" transform="translate(0.5 0.5)"/><path class="cls-3" d="M208.25,293.36c-.56,7.73,3.39,18.42,9.92,23a51.74,51.74,0,0,0,21.24,8.33c3.18.41,3.15-4.59,0-5-5.86-.76-12.56-3.84-17.56-6.94-5.8-3.61-9.07-12.83-8.6-19.39.24-3.22-4.76-3.2-5,0Z" transform="translate(0.5 0.5)"/><path class="cls-3" d="M230.69,306.69l16.69.94c3.21.19,3.2-4.81,0-5l-16.69-.94c-3.21-.18-3.2,4.82,0,5Z" transform="translate(0.5 0.5)"/><path class="cls-3" d="M260.33,306.24a60.7,60.7,0,0,0,8.49,1.11c3.22.19,3.21-4.81,0-5a50.65,50.65,0,0,1-7.16-.94c-3.15-.63-4.49,4.19-1.33,4.83Z" transform="translate(0.5 0.5)"/></svg>