<svg xmlns="http://www.w3.org/2000/svg" viewBox="0 0 363.93 963.13"><defs><style>.cls-1{fill:#fff;}.cls-2{fill:lime;}.cls-3{opacity:0.23;}.cls-4{fill:#a6edeb;}.cls-5{fill:#79d1ce;}.cls-6,.cls-7{fill:#f2b892;}.cls-7{stroke:#fff;stroke-miterlimit:10;}.cls-8{fill:#e3a075;}.cls-9{fill:#f79678;}.cls-10{fill:#2c0404;}.cls-11,.cls-12,.cls-13{fill:none;stroke-linecap:round;stroke-linejoin:round;}.cls-11,.cls-12{stroke:#280303;}.cls-11{stroke-width:6px;}.cls-12,.cls-13{stroke-width:5px;}.cls-13{stroke:#2c0404;}</style></defs><title>Asset 4</title><g id="Layer_2" data-name="Layer 2"><g id="Layer_1-2" data-name="Layer 1"><path class="cls-1" d="M112.91,582.78a177.53,177.53,0,0,0,.83,44.3c.28,1.9,3.17,1.09,2.9-.8a174,174,0,0,1-.73-43.5c.21-1.92-2.79-1.91-3,0Z"/><path class="cls-1" d="M113.35,634.58l.35,1.7a1.5,1.5,0,0,0,2.89-.8l-.34-1.7a1.52,1.52,0,0,0-1.85-1,1.54,1.54,0,0,0-1.05,1.85Z"/><path class="cls-1" d="M118,748.39q2.2,36,1.43,72c0,1.94,3,1.94,3,0q.77-36-1.43-72c-.12-1.91-3.12-1.93-3,0Z"/><path class="cls-1" d="M119.61,828.44a10.15,10.15,0,0,0,.68,6.58c.79,1.76,3.38.23,2.59-1.52a6.7,6.7,0,0,1-.37-4.26c.43-1.88-2.46-2.68-2.9-.8Z"/><path class="cls-2" d="M86.26,388.13c3.15-11.68,10.39-22.17,22.85-24.76,1.89-.39,1.09-3.28-.8-2.89-13.45,2.79-21.53,14.2-25,26.85a1.51,1.51,0,0,0,2.9.8Z"/><path class="cls-2" d="M80.44,392.74a15.57,15.57,0,0,0-2.22,6.55c-.21,1.92,2.79,1.9,3,0a12.14,12.14,0,0,1,1.81-5c1-1.65-1.57-3.15-2.59-1.51Z"/></g><g id="Layer_2-2" data-name="Layer 2"><ellipse class="cls-3" cx="174.8" cy="919.04" rx="112.85" ry="44.09"/><path class="cls-4" d="M104.85,595.59a62.87,62.87,0,0,1,.18-9.41c.33-2.69,1-5.33,1.41-8,1.15-7.49.27-15.12.07-22.7a2.76,2.76,0,0,1,.43-1.92,2.54,2.54,0,0,1,1.69-.68c6.23-.74,12.12,2.57,18.12,4.41a73.9,73.9,0,0,0,14.42,2.5,551.3,551.3,0,0,0,76,2.46c11.45-.42,23.92-1.63,32.19-9.56,6,28.11,3.69,57.25,1.33,85.9a13.76,13.76,0,0,1-1.49,6.13,11.74,11.74,0,0,1-5.2,4.08c-11.29,5.37-24.35,5-36.82,4.4a95,95,0,0,1-14.88-1.59,4.25,4.25,0,0,1-2.24-1,4.6,4.6,0,0,1-.94-3.2l-.9-27.48a3.56,3.56,0,0,0-.6-2.25,3.39,3.39,0,0,0-2.57-.83A41.32,41.32,0,0,0,174.38,618l0,29.41a3.44,3.44,0,0,1-.64,2.45,3.32,3.32,0,0,1-1.81.74,129.93,129.93,0,0,1-65-4.34C104.83,629.71,104.85,612.25,104.85,595.59Z"/><path class="cls-5" d="M160.08,615.69q7.62,1.89,15.39,3a78.59,78.59,0,0,0-1.35,31.88c0-.14-11.6,1.7-12.79,1.75-2.89.1-2.5.66-3.45-1.67-.71-1.72-.06-5.27,0-7.13A204.66,204.66,0,0,1,160.08,615.69Z"/><path class="cls-5" d="M187.1,618.23l13-1.29c.42,0,.93-.05,1.19.29a1.24,1.24,0,0,1,.19.66q1.78,17.61,1.87,35.34c-3.5-.36-8.86-.59-11.95-2.41s-2.53-4-2.74-7.35C188.57,641.36,187,618.24,187.1,618.23Z"/><path class="cls-5" d="M120.68,571.75c30.33,6,61.51,6.13,92.42,5.42,7.31-.17,14.7-.39,21.73-2.38a761.8,761.8,0,0,1,1.41,77.35c4.52-.76,9.58-1.87,12-5.77,1.34-2.17,1.56-4.83,1.76-7.37l2.48-32.84c.4-5.37.81-10.74.93-16.12a154.15,154.15,0,0,0-3.8-37.7c-9.18,7.53-21.92,8.47-33.78,9.09-34.55,1.8-70.29,3.42-102.61-8.92-1.86-.71-4.45-1.23-5.43.51-1.23,2.17-1.15,11,.1,13.5C110.18,571.06,116.84,569.83,120.68,571.75Z"/><path class="cls-6" d="M101.24,424.35c-19.4,51.83-34.4,106.83-32.4,162.83,1,13,4,25,8,37,2,6,5,16-3,20-11-3-9-17-13-26-1-1-3,0-4,1-7,12-10,24-19,34-1,1,0,2-1,3-3,2-6,5-9,3-2-2-6,0-5.19-5.95-4.8,5-.11,1.8,0,0-3.81,4.95-9.81.95-10.81-3.05-2-4,1-9-5-13-3-3-3-8-1-12,10-14,20-27,37-33,2-1,4-3,4-4-1-30-1-61,1-91,3-37,8-73,23-107,6-13,12-28,25-33,17-7,36-8,54-13,2,0,3-2,4-3,2-8,2-16,3.06-23.8,12.93,1.74-.28,4,0,0,14.94,1.8,30.94,3.8,45.94,3.8a149.19,149.19,0,0,0,2,21c0,1,2,3,4,3,17,3,33,7,50,11a63.76,63.76,0,0,1,14,8c17,15,18,38,23,59,5,18,11,35,14,54,2,10,5,19,5,28,1,21,0,42,2,63,0,7,1,13-.74,20,3.87,2.85,6.44,6.45,10.31,9.31,10.86,8,22.36,16.91,26.33,29.81.76,2.46,1.2,5.19.19,7.56s-3.93,4.05-6.25,2.92a36.16,36.16,0,0,1,2,12.49,7,7,0,0,1-1.09,4.22c-2.37,3-7.2,1-10.35-1.24-2,4.58-8.38,5.77-12.93,3.71s-7.63-6.36-10.36-10.54A259.15,259.15,0,0,1,298.35,619a75.73,75.73,0,0,1-8.51,20.54c-.79,1.32-1.83,2.75-3.36,2.9s-2.74-.95-3.58-2.15c-4.54-6.44-1.09-15.18,1.21-22.72,3.6-11.87,3.91-24.47,3.64-36.88A457.15,457.15,0,0,0,278,497c-5.58-26.75-10.87-54.16-23.87-78.48,0,.17-1,1.39-1,1.56,0,3.44-1.62,8.32-2.12,11.73-.88,5.9-1.2,11.92-1.6,17.87-.6,9-1.77,19.07-1.33,28.09.76,15.42-2.5,31.14-2.22,46.57.17,9.37-.14,19.72,1.46,29a41.52,41.52,0,0,1-18.46,6.6,393.2,393.2,0,0,1-51.33,3c-6.79.21-14.1-.46-20.89-.25-3.57.11-7.89-2.2-11.45-2.52-3.3-.31-8.17-.76-11.42-1.43-6.35-1.33-20.34-.55-22.77-6.94-1.46-3.83,1.21-13.09,1.41-17.37.27-5.82.34-11.65.27-17.47-.3-23.41-1.68-47.48-5.8-69.92-1.38-7.5-1.88-15.4-5.79-21.94"/><path class="cls-6" d="M193.05,885.76l-1.17-225.54c0-2.76.28-6.06,2.72-7.34,1.51-.8,3.34-.49,5-.2a94.39,94.39,0,0,0,45.31-3.46l-.4,39.7c-.43,42.22-.86,84.46.85,126.64,1.15,28.59,3.29,57.2,2.16,85.79-.13,3.32-.34,6.77-1.91,9.71a17.06,17.06,0,0,1-6.51,6.3,33.8,33.8,0,0,1-18.1,4.85c-7.28-.15-24.61-4-29-10.57-2-3-.2-6.13.35-9.61C193.19,896.68,193.08,891.16,193.05,885.76Z"/><path class="cls-7" d="M157.41,658c1.09-.22,2.33-.44,3.23.21a3.85,3.85,0,0,1,1.22,2.5c3.18,15.81.12,32.1-1.21,48.17-1.56,18.93-.68,38-.86,57-.33,36.34-4.5,72.53-6.52,108.82-.46,8.28-.51,17.48,5,23.7,1.74,2,3.95,3.52,5.55,5.6s2.5,5.06,1.2,7.35a8.5,8.5,0,0,1-3.44,2.91,50.13,50.13,0,0,1-44,1.95c-2.11-.93-4.26-2.12-5.4-4.12-1-1.84-1.08-4-1.08-6.16q0-61.53-.11-123.06,0-36.36-.06-72.7l0-36.66c0-6.92-3-20,2.63-25.46A56.7,56.7,0,0,0,157.41,658Z"/><path class="cls-8" d="M200.38,340.61a5.18,5.18,0,0,0,3-1.28,4.58,4.58,0,0,0,1-2.28c1.28-6.18-1.16-13.12,1.87-18.65a5.56,5.56,0,0,0,1.07-2.78,3,3,0,0,0-2.61-2.51,9.78,9.78,0,0,0-3.86.39c-13.94,3.17-28.46,1.12-42.75.63a2.35,2.35,0,0,0-1.34.23,2.27,2.27,0,0,0-.66,2.09c.13,2.56.59,5.09.78,7.64.15,2-1.05,6.34-.5,8,1.07,3.28,9.6,5.53,12.79,6.55A63.47,63.47,0,0,0,200.38,340.61Z"/><path class="cls-8" d="M110.69,544.74c1.16,2.31-1.1,5.57.61,7.51a4.73,4.73,0,0,0,2.06,1.13c29.62,10,61.67,9.3,92.93,8.27,14.18-.47,29.24-1.59,41.26-9.15l-.3-41.84c-.07-10.1-.15-20.22.32-30.31.89-19.62,3.8-39.09,6.7-58.52a4,4,0,0,1,.5-1.64c.81-1.24,2.78-1.16,3.93-.23a8,8,0,0,1,2.17,3.79,513.52,513.52,0,0,1,27.87,168.13,80.29,80.29,0,0,1-1.34,17c-2.27,10.38-8.33,21-4.75,31,.29.81.75,1.71,1.6,1.9,1.36.32,2.28-1.32,2.7-2.65,20.68-66.17,14-138.34-5.31-204.92-2-7-4.25-14.11-7.93-20.45-3.33-5.72-8.89-11.21-15.48-10.65-7.22.62-11.93,8.44-12.25,15.68-1.8,41.49-11.88,82.28-13.91,123.76a6.51,6.51,0,0,1-.72,3.24,6.42,6.42,0,0,1-3.16,2.18c-15.54,6.42-35.77,6.63-52.57,6.27s-60.33-8.1-66-12.08C109.11,542.43,110.42,544.2,110.69,544.74Z"/><path class="cls-8" d="M90.55,411.72c-3.29,1.89-4.65,5.86-5.73,9.5C65.29,487,53.11,556.4,63.38,624.23c.52,3.44,1.12,6.94,2.8,10A21.41,21.41,0,0,0,75,642.3a2.33,2.33,0,0,0,1.79.39,2.2,2.2,0,0,0,1-.82c4.47-5.94.94-14.24-1.57-21.24-4.28-12-5-24.92-5.14-37.64A393.93,393.93,0,0,1,97.79,437.4c2.32-5.95,4.61-12.37,3.15-18.81C99.94,414.22,95.68,408.78,90.55,411.72Z"/><path class="cls-8" d="M192.39,668.6c-.41-4.8-1.2-9.6-.34-14.34a3.52,3.52,0,0,1,.92-2.08c.81-.73,2.05-.61,3.13-.45a143.67,143.67,0,0,0,46.77-.88c2.82,10.78,2.68,22.09,2.53,33.24l-.21,15.36-.67,49.44c-.14,10.45,2.23,20.27,2.35,30.72q.67,62.85,1,125.71L238.48,898a9.35,9.35,0,0,1-2-1.89,9.21,9.21,0,0,1-1.2-4.58c-4.82-59.66-5.91-119.56-7-179.41-.3-16.11-.59-32.29,1.24-48.31-4.65-.34-9.17.73-13.77,1.46L208,666.52c-2.41,69.5-2.47,139.48-.38,209,.16,5.31.31,10.76-1.39,15.79s-5.66,9.66-10.89,10.57c-1.54-3.4-1.47-7.26-1.92-11-.51-4.13-1.69-8.17-2-12.32-.42-6.81,3.13-13.4,2.84-20.23-.77-18.55-.71-38.84-2.39-58.28C188.13,757.06,195.81,709.57,192.39,668.6Z"/><path class="cls-8" d="M156.27,665.35q-2.67,114.84-8.7,229.56a2.55,2.55,0,0,0,2.37,3.29L157.3,900a2.87,2.87,0,0,0,2,0,2.63,2.63,0,0,0,1.07-1.89c.84-3.93.2-8-.16-12a169.21,169.21,0,0,1,0-22.63l9.42-209.89a2.49,2.49,0,0,0-.37-1.79c-.56-.68-1.61-.58-2.47-.44a130.29,130.29,0,0,1-54.39-2.47c-1.5-.39-1.19,8.38,0,9.67,2.54,2.79,9.51,3.58,13,4.4A101.35,101.35,0,0,0,156.27,665.35Z"/><circle class="cls-8" cx="224.68" cy="445.78" r="8.62"/><circle class="cls-8" cx="133.2" cy="445.78" r="8.62"/><path class="cls-8" d="M178.25,528.15a8.84,8.84,0,0,1,3.08-2.2,9.44,9.44,0,0,1,3.81-.56,14.24,14.24,0,0,1,9.34,3.71,11.32,11.32,0,0,1,3.57,9.25,2,2,0,0,1-.38,1.11c-.74.89-2.15.18-3.13-.43-5.51-3.44-9.86-.59-15.51-.19C172.48,539.32,175.46,531.11,178.25,528.15Z"/><path class="cls-8" d="M191.27,905.8a3.31,3.31,0,0,1,3.59-1.3,6.12,6.12,0,0,1,2,1.68c3.16,3.22,7.81,4.36,12.2,5.36,6.22,1.41,12.55,2.83,18.91,2.37s12.87-3.09,16.52-8.32c3.57,2.17,3.89,7.61,1.62,11.11s-6.31,5.43-10.26,6.76a61.79,61.79,0,0,1-40.82-.55,10.8,10.8,0,0,1-3.36-1.76C188.16,918.11,188.53,909.32,191.27,905.8Z"/><path class="cls-8" d="M108.24,909.55c1.52-2.73,4.69-4.81,7.72-4a12.67,12.67,0,0,1,4.42,2.7,37.51,37.51,0,0,0,29.74,7.18c3.76-.73,7.57-2.14,10.12-5,1.1-1.24,2.1-2.81,3.72-3.14,2-.39,3.79,1.36,4.53,3.23,2,4.92-1,10.71-5.39,13.64s-9.88,3.66-15.15,4.12c-9.33.81-19,.95-28.12-1.6-3.81-1.06-9.36-2.72-12.19-5.66C105,918.22,106.38,912.92,108.24,909.55Z"/><path class="cls-6" d="M11.38,173.06l12.46-5.37,13.2-.85,9.32,4,4.76,7.84s1.37,14.12,1.49,17.31,3.07,17.85,3.71,19.71,3.82,12.08,3.82,12.08l-1.4,8.3-16.22,5.4s-14.82-1.22-15.24-1.38-13-9.27-13.36-9.78S3,209.7,3,209.7L3.59,196s1-7.15.51-7.91.64-6.51.64-6.51Z"/><polygon class="cls-6" points="307.23 204.72 307.29 229.27 312.27 242.1 334.08 247.37 346.87 242.17 356.43 228.91 360.93 211.7 359.68 194.33 355.08 179.7 346.4 171.5 329.63 169.9 317.09 174.59 313.42 175.22 307.23 204.72"/><path class="cls-8" d="M35.93,167.2s.15,26.75,3.8,34.45S48.14,215,46.27,221,33.51,242.21,9,219.55l3.91,9.51,9,8.52,11.58,5.27,19.14-4.69L60,228.72s-3.35-15-3.85-15.32-4.41-29.09-4.41-29.09l-.91-9.63-9.65-6.55Z"/><path class="cls-8" d="M322.23,171.68a216.24,216.24,0,0,1-1.15,25.13c-1.4,12.38-6,27.19-5.11,31.91s3.83,10.09,14.81,6.77,23.84-20.22,22.85-33.83c-.95-13.28-8.74-29.68-8.74-29.68l14.87,14.87,1.17,28.21-9.21,22.85-14.8,8.3-16.09,2.43-11.49-9.32-4.47-8.17,2.35-20.3,4.16-22.64,3.32-13.36Z"/><path class="cls-6" d="M156.25,3H177L213.1,6.94l19.53,7.83,14.16,7L265.22,35l12.22,13L293.61,61.4,304.5,82.68l8.24,13.92,4.36,16.23L318.66,128,315.89,167l-7.45,44.84-4.7,26.83-10.15,27.9-20.41,26.29-28.25,13.38-43.09,10.9-24,3.47-24.07-3.18-33.4-10.93S96.68,292.72,97,291.36,80.33,271.88,78.8,266.81,65.39,242.1,65.46,239.67s-9.55-34.56-9.55-34.56S51.62,177,51.42,176.67s.26-33.94.26-33.94l3.14-34.2,4-23L71.48,49,89,30.65,105.8,19l15.49-7.15L137,7.08Z"/><path class="cls-8" d="M170.66,221.36a18.25,18.25,0,0,0,20.25,1.16c2.38-1.46,5.08-3.57,7.63-2.43a4.36,4.36,0,0,1,2.05,2.12c1.61,3.34-.49,7.52-3.65,9.44s-7.05,2.13-10.75,2.17c-4.44.06-8.95-.06-13.17-1.42-3.42-1.1-10.27-4.64-11.49-8.41-.66-2,.2-4.94,2.33-5.66C166.41,217.46,168.85,220,170.66,221.36Z"/><path class="cls-8" d="M234.14,22.85c.25.28,2.65,2.2,7.1,5.83a159.14,159.14,0,0,1,25.92,27.19,156.92,156.92,0,0,1,18.72,29.28c2,4.1,10.19,21.91,12.6,52.42,1.66,21.08,4.11,52.18-11.24,87.49-5.49,12.65-21.29,49-60.25,69.45-31,16.26-62.6,15.14-73.2,14.64-19.77-.93-35.77-5.73-36.08-4.43s15.91,7.85,35.06,10.55c15.31,2.17,27.34,1.18,41.54,0,16.19-1.33,24.31-2,35.4-5.44,18.1-5.61,30.3-14.31,37.79-19.75,9.33-6.77,16.74-12.14,23.49-22.12,7.08-10.48,9.47-20.18,11.23-27.58,4.25-17.9,6.21-22,8.39-50.21,1.29-16.6,3.41-12,4.53-29.57.67-10.62,2.65-26.84,1.69-41.19-1.06-15.61-9.8-23.83-13.93-33.24-3.23-7.36-7-12.29-12.25-19.07C282.37,56.38,276.57,48.71,272.52,44,257.22,26.28,210.36-3.45,234.14,22.85Z"/><path class="cls-9" d="M241.83,210.89a20.33,20.33,0,0,1,7.83-2.08,63,63,0,0,1,21.07,1.34c2.25.53,4.88,1.64,5.17,3.93a4.83,4.83,0,0,1-1.95,4c-2.85,2.5-6.74,3.4-10.49,4-6.6,1.05-15.36,2.61-22,1.08S236.88,213.63,241.83,210.89Z"/><path class="cls-9" d="M87,214.89c6.35-2.08,13.16-2.16,19.84-2,3.64.06,7.48.23,10.56,2.16s5,6.26,3,9.34c-1.74,2.77-5.5,3.29-8.77,3.5-8.47.57-17.43,1.15-25.69-1.28C78.05,224.23,79.69,217.29,87,214.89Z"/><path class="cls-10" d="M188.3,373.08c-.44-7.81,6-8.08,12.21-8.28a65,65,0,0,1,16.21,1.62c3.13.69,4.47-4.13,1.33-4.82-11.18-2.48-35.75-6.17-34.75,11.48.19,3.2,5.19,3.22,5,0Z"/><path class="cls-10" d="M170.06,370.71c.77-7.71-2.36-10.94-9.87-11.38-8.61-.51-17.81,1.64-26.2,3.27-3.16.61-1.82,5.43,1.33,4.82,5.43-1.05,10.89-2,16.38-2.64a47.71,47.71,0,0,1,7.55-.48c2.31.1,3.57-.05,5,1.84,1.26,1.69,1,2.55.83,4.57-.32,3.2,4.68,3.18,5,0Z"/><path class="cls-10" d="M260.86,408.76c-8.34,1.24-9.46,11.22-10.18,18-1.43,13.41-2.83,26.83-4,40.28-2.28,26.85-3.44,53.81-1.68,80.72.21,3.2,5.21,3.22,5,0-1.54-23.62-.86-47.29.9-70.88.85-11.49,1.94-23,3.11-34.42.61-5.89,1.16-11.79,1.86-17.66.5-4.15,1.25-10.44,6.3-11.19,3.17-.47,1.82-5.29-1.33-4.82Z"/><path class="cls-10" d="M94.44,414.67c7.67,7,9.17,18.08,11,27.83a360.6,360.6,0,0,1,4.89,36.77,371.2,371.2,0,0,1-1.23,71.56c-.36,3.19,4.65,3.17,5,0a370.36,370.36,0,0,0,.71-77.35q-1.76-18.18-5.28-36.12c-1.88-9.53-4.1-19.41-11.54-26.23-2.37-2.17-5.91,1.36-3.53,3.54Z"/><path class="cls-10" d="M183.09,527.58a21,21,0,0,0-9.88,14.1,2.52,2.52,0,0,0,4.17,2.43c4.41-4,12.61-7.88,16.82-1.35,1.74,2.69,6.07.19,4.32-2.53-6.1-9.45-17.7-6-24.67.34L178,543a16.14,16.14,0,0,1,7.58-11.11c2.74-1.69.23-6-2.52-4.32Z"/><path class="cls-10" d="M145.4,341.53a124.32,124.32,0,0,1-23.74,7.2c-7,1.36-14.34,1.76-21.23,3.88-13.87,4.26-20.45,15.86-26.3,28.26-13.54,28.73-20.62,59.86-24.55,91.25-.4,3.18,4.6,3.15,5,0C58.32,442.27,65,412.45,77.68,385c2.84-6.15,5.77-12.55,9.95-17.92,4.65-6,10.77-9.09,18.07-10.7,6.58-1.44,13.31-2,19.9-3.41a124,124,0,0,0,21.13-6.66c2.94-1.21,1.65-6.05-1.33-4.82Z"/><path class="cls-10" d="M48.07,484.22a474.25,474.25,0,0,0-2.73,105.9c.27,3.18,5.27,3.21,5,0A468.31,468.31,0,0,1,52.9,485.55c.43-3.14-4.39-4.51-4.83-1.33Z"/><path class="cls-10" d="M154.25,318.13a80.46,80.46,0,0,1-3,26.82c-.88,3.1,3.94,4.43,4.82,1.33a84.68,84.68,0,0,0,3.19-28.15c-.17-3.2-5.17-3.22-5,0Z"/><path class="cls-10" d="M205.12,314.36c-5.34,11.18-2.8,22.22-1.11,33.94.46,3.17,5.28,1.82,4.82-1.33-1.47-10.18-4.05-20.35.6-30.08,1.38-2.89-2.93-5.43-4.31-2.53Z"/><path class="cls-10" d="M59.93,613.14c-9,11.72-12,27.54-22.43,38.21a18.8,18.8,0,0,1-5.1,4,4.3,4.3,0,0,1-6.15-3.84c-.31-5.29,2.64-10.54,5.31-14.91a62.74,62.74,0,0,1,18.17-19c2.64-1.81.14-6.15-2.52-4.32A67.58,67.58,0,0,0,24.86,638.4c-3.07,6.11-7.45,21.43,3.46,22.77,9.28,1.13,16.76-10.33,20.59-17.2,5.26-9.4,8.7-19.71,15.34-28.31,2-2.54-2.38-5-4.32-2.52Z"/><path class="cls-10" d="M21.56,651.43c-3.15,2.5-6.81.08-7.33-3.49-.36-2.48.77-5.31,1.6-7.64a50.18,50.18,0,0,1,6.22-11.9,52.39,52.39,0,0,1,20.48-17.08c2.9-1.38.37-5.69-2.52-4.31A56.69,56.69,0,0,0,11.8,636.89c-2.17,5.39-4.63,13.23.26,18,3.71,3.59,9.22,3.14,13,.11,2.52-2-1-5.52-3.54-3.54Z"/><path class="cls-10" d="M9.52,634.34c-6.24-3.67,10.82-22.66,13.78-25.62a77.26,77.26,0,0,1,23.48-15.91c2.94-1.3.4-5.61-2.52-4.32a80.5,80.5,0,0,0-30.13,23C9.44,617.27-3.31,632.6,7,638.66c2.78,1.64,5.3-2.68,2.52-4.32Z"/><path class="cls-10" d="M100.22,423.16C88,454.05,78.44,486.06,73.14,518.9a372.09,372.09,0,0,0-4.64,47.7c-.49,15.68-1,32.55,2.42,48a78.35,78.35,0,0,0,4.37,12.52,33.62,33.62,0,0,1,2.1,6.41c.58,3.23-.17,7.83-4.44,5.85-3.52-1.64-5.7-7.83-6.61-11.3a27.18,27.18,0,0,1,.07-13.76c.79-3.12-4-4.45-4.82-1.33a32.14,32.14,0,0,0,1.56,21c2.18,4.94,6.68,12.08,13,11.6,7.17-.54,7-9.94,5.65-15-1-3.85-3-7.4-4.31-11.14a63.73,63.73,0,0,1-3.2-16.47c-3.2-38.65,1.08-77.85,10.33-115.42a487,487,0,0,1,20.4-63c1.19-3-3.64-4.29-4.82-1.33Z"/><path class="cls-10" d="M253.76,416.51a545.66,545.66,0,0,1,28.95,112.21c2.75,19.12,4.66,38.61,4.18,57.94a142.61,142.61,0,0,1-3.74,30.46c-1.64,6.72-6.86,15.66-3.48,22.52,2.93,6,10.19,6.77,14,1.25,5.23-7.52,7.84-18.5,6.86-27.51-.35-3.17-5.35-3.2-5,0a32.41,32.41,0,0,1-.91,12.28c-1,3.81-2.43,9.37-5.15,12.38s-5.74.38-5.93-3.16c-.1-2,.69-4.08,1.28-5.94,1.39-4.37,2.75-8.69,3.74-13.18,3.5-15.94,3.8-32.39,2.94-48.62-1.76-33-7.46-65.84-15.82-97.8q-7.2-27.49-17.13-54.16c-1.11-3-5.95-1.7-4.83,1.33Z"/><path class="cls-10" d="M314.54,620.53a85.87,85.87,0,0,1,15.28,19.29c1.77,3.09,4.12,6.68,4.68,10.22,1.42,9-8,6-11.81,2.59-5.15-4.58-7.71-11.24-10.6-17.31-3.7-7.8-8.28-15.13-11.92-23-1.35-2.92-5.66-.38-4.31,2.52,2.59,5.6,5.65,10.94,8.56,16.38,2.63,4.92,4.74,10.09,7.39,15,3.8,7,10.42,15.45,19.37,15,9.41-.48,9.33-10.7,6.44-17.17A87,87,0,0,0,318.07,617c-2.32-2.23-5.87,1.3-3.53,3.53Z"/><path class="cls-10" d="M335.75,654.24c3.26,4,8.16,6.88,12.87,3.08,5.24-4.22,4-11.49,2.3-17.14A56.91,56.91,0,0,0,327.56,609c-2.69-1.79-5.2,2.54-2.53,4.31A52,52,0,0,1,341.62,631a49.85,49.85,0,0,1,4.48,10.53c.67,2.3,1.48,4.92,1.33,7.34-.35,5.48-5.42,5.24-8.15,1.85-2-2.51-5.53,1-3.53,3.54Z"/><path class="cls-10" d="M355.7,636.39c3.51-3.28,1.33-8.18-.22-11.94a61.08,61.08,0,0,0-8.69-14.79,63,63,0,0,0-28.35-20.18c-3-1.09-4.34,3.74-1.33,4.82A57.7,57.7,0,0,1,347.81,620c1.25,2.2,6.58,10.74,4.35,12.82s1.19,5.73,3.54,3.53Z"/><path class="cls-10" d="M312.45,536.17a224.91,224.91,0,0,1,2.49,55c-.25,3.21,4.75,3.19,5,0a230.33,230.33,0,0,0-2.67-56.3c-.54-3.16-5.36-1.82-4.82,1.33Z"/><path class="cls-10" d="M215.39,348.45q15.33,3.12,30.64,6.27c8.75,1.81,18.31,3.17,25.2,9.37,12,10.83,14.69,30.77,18.84,45.59,10.57,37.78,21.43,75.62,22.29,115.14.07,3.21,5.07,3.23,5,0-.7-32.34-7.8-64-16.47-95-4.22-15.11-8.05-30.4-12.8-45.36-3.51-11.06-8.77-22.43-19.43-28.22-7.12-3.87-15.37-5.09-23.21-6.7q-14.35-3-28.73-5.88c-3.14-.64-4.48,4.18-1.33,4.82Z"/><path class="cls-10" d="M108.09,553.93c22.76,10.54,49.73,9.73,74.3,10.24a271.72,271.72,0,0,0,40.93-1.78c9.1-1.2,23.05-1.83,27.84-11.23,1.46-2.86-2.85-5.4-4.32-2.53-2.61,5.13-8.71,6.12-13.86,7.14a171.13,171.13,0,0,1-18.17,2.55,313.15,313.15,0,0,1-36.25.75c-22.47-.61-47.12.19-67.94-9.46-2.9-1.34-5.45,3-2.53,4.32Z"/><path class="cls-10" d="M105.69,552.26a790.88,790.88,0,0,0-1.46,93.52c.14,3.21,5.14,3.23,5,0a790.88,790.88,0,0,1,1.46-93.52c.24-3.21-4.77-3.19-5,0Z"/><path class="cls-10" d="M248.62,550.7a437.09,437.09,0,0,1-.89,91.48c-.36,3.19,4.64,3.16,5,0a437.09,437.09,0,0,0,.89-91.48c-.3-3.18-5.3-3.21-5,0Z"/><path class="cls-10" d="M106.49,649.07a112.79,112.79,0,0,0,66.35,3.18c3.12-.8,1.8-5.62-1.33-4.83a107.93,107.93,0,0,1-63.69-3.17c-3-1.08-4.34,3.75-1.33,4.82Z"/><path class="cls-10" d="M189.28,653.1a119.74,119.74,0,0,0,36.25,2.7c9.56-.79,19.27-2.55,26.49-9.34,2.34-2.22-1.2-5.75-3.54-3.54-7.07,6.66-17.44,7.67-26.71,8.13a115.35,115.35,0,0,1-31.16-2.77c-3.13-.7-4.47,4.12-1.33,4.82Z"/><path class="cls-10" d="M191.66,649.84l-1.39-30.14c-.14-3.2-5.14-3.22-5,0l1.39,30.14c.15,3.2,5.15,3.22,5,0Z"/><path class="cls-10" d="M174.68,649.32c-.72-10,1-19.63,2.71-29.4.53-3.15-4.28-4.5-4.82-1.33-1.74,10.18-3.64,20.36-2.89,30.73.22,3.19,5.23,3.22,5,0Z"/><path class="cls-10" d="M157.1,617.34a97.92,97.92,0,0,0,51-.77c3.09-.88,1.77-5.71-1.33-4.82a92.6,92.6,0,0,1-48.31.76c-3.12-.78-4.45,4-1.33,4.83Z"/><path class="cls-10" d="M109.38,648.79q1.92,60.76.11,121.57c-.09,3.21,4.91,3.21,5,0q1.8-60.78-.11-121.57c-.1-3.21-5.1-3.22-5,0Z"/><path class="cls-10" d="M108.28,786.68q2.61,58.7.39,117.47c-.12,3.22,4.88,3.21,5,0q2.22-58.73-.39-117.47c-.15-3.21-5.15-3.23-5,0Z"/><path class="cls-10" d="M166.76,653.4q-6.09,122-8.42,244.11c-.06,3.22,4.94,3.22,5,0q2.32-122.11,8.42-244.11c.16-3.22-4.84-3.21-5,0Z"/><path class="cls-10" d="M190.37,651.38q-1.2,125.1.62,250.22c0,3.21,5,3.22,5,0q-1.83-125.1-.62-250.22c0-3.22-5-3.22-5,0Z"/><path class="cls-10" d="M241.91,652.39q.65,27.83.5,55.67c0,3.21,5,3.22,5,0q.15-27.84-.5-55.67c-.07-3.21-5.07-3.22-5,0Z"/><path class="cls-10" d="M241.87,720.81q3.15,91.89,3.44,183.84c0,3.22,5,3.23,5,0q-.28-91.93-3.44-183.84c-.11-3.2-5.11-3.22-5,0Z"/><path class="cls-10" d="M109.82,921.15c-5-13.87,11.88-20.11,22.32-22,11.16-2,24.86-1.73,32.36,8.19,1.85,2.45,3.67,5.91,2.9,9.11-.87,3.61-4.8,5.68-8,6.7a93.1,93.1,0,0,1-17.69,3.25c-11.73,1.28-23.11,0-33-6.76-2.67-1.81-5.17,2.52-2.53,4.32,13.45,9.19,29.2,8.82,44.64,6.13,6.74-1.17,14.74-2.21,19.21-8,4.32-5.59,2.45-12.55-1.53-17.79-9.41-12.4-26.33-12.39-40.15-9.46C115.68,897.51,99.37,907,105,922.48c1.09,3,5.93,1.7,4.83-1.33Z"/><path class="cls-10" d="M193.5,920.9c-6.94-11.26,5.06-21.27,15.22-23.38,10.64-2.2,25.84-1.45,33.79,6.94,11.88,12.53-9.31,17.57-18.28,19-11.19,1.84-22.72,1.11-32.59-4.91-2.75-1.69-5.26,2.64-2.52,4.31,13.18,8.06,29.06,7.63,43.58,3.9,6-1.53,13.4-3.45,16.78-9.14s.8-12.34-3.43-16.74c-10-10.38-29.52-11.48-42.47-7.21-12,4-22,17.37-14.39,29.7,1.68,2.73,6,.23,4.31-2.52Z"/><path class="cls-11" d="M313.42,175.22s35.87-18.87,44.38,11.09-.34,56.51-26.21,60.59-24.35-20-24.35-20l3.09-32Z"/><path class="cls-11" d="M51.12,178.73s-3.79-12.85-21.83-11.83-27.23,16-26.21,33,10.66,43.14,36.08,41.88,20.44-16,20.44-16l-4.34-17.48-2.43-14.14Z"/><path class="cls-11" d="M183.25,318.39s-54.07,8.17-91.86-32.68c-23.42-25.33-38-64-41.1-111-1.9-28.83.54-60.8,7.91-94.76C77.61-9.44,206.8-16.08,263.48,35s59.74,81.19,48,148.59S304.89,307.44,183.25,318.39Z"/><path class="cls-12" d="M335.84,191.92s-16.08,7.41-16.17,31.41c0,0,8.26-23,23.92-17.36"/><path class="cls-12" d="M24,194.48s19.75,3.74,24.17,18.72c0,0-12.25-14.81-24.17,2.55"/><line class="cls-13" x1="164.14" y1="215.18" x2="174.42" y2="224.18"/><line class="cls-13" x1="187.5" y1="225.97" x2="197.59" y2="216.26"/><path class="cls-10" d="M165.4,329.58c4.26,2.21,9.09,3.08,13.87,3.58,5.68.6,11.59.7,16.9-1.42s9.88-6.88,10.26-12.58a2.6,2.6,0,0,0-.24-1.54,2.93,2.93,0,0,0-2.51-1c-7.15-.3-14.26,1.15-21.42,1.4-8.14.29-16.26-1-24.39-.86-3.64.05-.35,5.17.71,6.66A19.1,19.1,0,0,0,165.4,329.58Z"/></g></g></svg>