<svg id="Layer_1" data-name="Layer 1" xmlns="http://www.w3.org/2000/svg" viewBox="0 0 501 1001"><defs><style>.cls-1,.cls-12,.cls-13,.cls-14{fill:none;}.cls-1,.cls-8{stroke:#fff;stroke-miterlimit:10;}.cls-1{opacity:0;}.cls-2{fill:#fff;}.cls-3{fill:lime;}.cls-4{opacity:0.23;}.cls-5{fill:#a6edeb;}.cls-6{fill:#79d1ce;}.cls-7,.cls-8{fill:#f2b892;}.cls-9{fill:#e3a075;}.cls-10{fill:#f79678;}.cls-11{fill:#2c0404;}.cls-12,.cls-13{stroke:#280303;}.cls-12,.cls-13,.cls-14{stroke-linecap:round;stroke-linejoin:round;}.cls-12{stroke-width:6px;}.cls-13,.cls-14{stroke-width:5px;}.cls-14{stroke:#2c0404;}</style></defs><title>m-base1</title><rect class="cls-1" x="0.5" y="0.5" width="500" height="1000"/><path class="cls-2" d="M180.4,617.49a176.58,176.58,0,0,0,.83,44.3c.27,1.9,3.16,1.1,2.89-.8a174,174,0,0,1-.72-43.5c.2-1.92-2.8-1.91-3,0Z" transform="translate(0.5 0.5)"/><path class="cls-2" d="M180.84,669.29l.34,1.7a1.5,1.5,0,1,0,2.9-.8l-.35-1.7a1.51,1.51,0,0,0-1.84-1,1.53,1.53,0,0,0-1,1.85Z" transform="translate(0.5 0.5)"/><path class="cls-2" d="M185.46,783.1q2.21,36,1.43,72c0,1.94,3,1.94,3,0q.78-36-1.43-72c-.11-1.91-3.11-1.93-3,0Z" transform="translate(0.5 0.5)"/><path class="cls-2" d="M187.1,863.15a10.08,10.08,0,0,0,.68,6.58c.78,1.76,3.37.23,2.59-1.52A6.63,6.63,0,0,1,190,864c.43-1.88-2.46-2.68-2.89-.8Z" transform="translate(0.5 0.5)"/><path class="cls-3" d="M153.74,422.84c3.15-11.68,10.39-22.17,22.85-24.76,1.89-.39,1.09-3.28-.79-2.89-13.46,2.79-21.54,14.2-25,26.85a1.5,1.5,0,0,0,2.89.8Z" transform="translate(0.5 0.5)"/><path class="cls-3" d="M147.92,427.45a15.41,15.41,0,0,0-2.21,6.55c-.22,1.92,2.78,1.9,3,0a12,12,0,0,1,1.8-5c1-1.65-1.57-3.15-2.59-1.51Z" transform="translate(0.5 0.5)"/><ellipse class="cls-4" cx="242.78" cy="954.25" rx="112.85" ry="44.09"/><path class="cls-5" d="M172.33,630.3a62.87,62.87,0,0,1,.19-9.41c.32-2.69,1-5.33,1.4-8,1.15-7.49.27-15.12.07-22.7a2.76,2.76,0,0,1,.44-1.92,2.52,2.52,0,0,1,1.68-.68c6.24-.74,12.13,2.57,18.12,4.41a74.13,74.13,0,0,0,14.43,2.5,551.2,551.2,0,0,0,76,2.46c11.45-.42,23.93-1.63,32.2-9.56,6,28.11,3.68,57.25,1.32,85.9a13.57,13.57,0,0,1-1.49,6.14,11.68,11.68,0,0,1-5.2,4.07c-11.28,5.37-24.34,5-36.82,4.4a96.17,96.17,0,0,1-14.87-1.58,4.42,4.42,0,0,1-2.25-1,4.54,4.54,0,0,1-.93-3.2l-.91-27.48a3.55,3.55,0,0,0-.59-2.25,3.4,3.4,0,0,0-2.57-.83,41.39,41.39,0,0,0-10.7,1.08l0,29.41a3.4,3.4,0,0,1-.65,2.45,3.32,3.32,0,0,1-1.81.74,129.89,129.89,0,0,1-65-4.34C172.31,664.42,172.33,647,172.33,630.3Z" transform="translate(0.5 0.5)"/><path class="cls-6" d="M227.57,650.4q7.6,1.89,15.39,3a78.59,78.59,0,0,0-1.36,31.88c0-.14-11.59,1.7-12.78,1.75-2.9.1-2.5.66-3.46-1.67-.71-1.72-.06-5.27,0-7.13A203.22,203.22,0,0,1,227.57,650.4Z" transform="translate(0.5 0.5)"/><path class="cls-6" d="M254.58,652.94l13-1.29a1.28,1.28,0,0,1,1.18.29,1.35,1.35,0,0,1,.2.66q1.77,17.61,1.86,35.34c-3.5-.36-8.85-.59-11.94-2.41s-2.53-4-2.75-7.35C256.05,676.07,254.45,653,254.58,652.94Z" transform="translate(0.5 0.5)"/><path class="cls-6" d="M188.16,606.46c30.33,6,61.51,6.13,92.43,5.42,7.3-.17,14.69-.39,21.72-2.38a761.8,761.8,0,0,1,1.41,77.35c4.52-.76,9.59-1.87,12-5.77,1.33-2.17,1.56-4.83,1.75-7.37l2.48-32.84c.41-5.37.81-10.74.93-16.12a153.65,153.65,0,0,0-3.79-37.7c-9.18,7.53-21.93,8.48-33.79,9.09-34.55,1.8-70.28,3.42-102.61-8.92-1.86-.71-4.45-1.23-5.43.51-1.22,2.17-1.14,11,.11,13.5C177.66,605.77,184.32,604.54,188.16,606.46Z" transform="translate(0.5 0.5)"/><path class="cls-7" d="M168.72,459.06c-19.4,51.83-34.4,106.83-32.4,162.83,1,13,4,25,8,37,2,6,5,16-3,20-11-3-9-17-13-26-1-1-3,0-4,1-7,12-10,24-19,34-1,1,0,2-1,3-3,2-6,5-9,3-2-2-6,0-5.19-5.95-4.8,5-.1,1.8,0,0-3.81,4.95-9.81.95-10.81-3.05-2-4,1-9-5-13-3-3-3-8-1-12,10-14,20-27,37-33,2-1,4-3,4-4-1-30-1-61,1-91,3-37,8-73,23-107,6-13,12-28,25-33,17-7,36-8,54-13,2,0,3-2,4-3,2-8,2-16,3.06-23.8,12.93,1.74-.28,4,0,0,14.94,1.8,30.94,3.8,45.94,3.8a149.19,149.19,0,0,0,2,21c0,1,2,3,4,3,17,3,33,7,50,11a63.76,63.76,0,0,1,14,8c17,15,18,38,23,59,5,18,11,35,14,54,2,10,5,19,5,28,1,21,0,42,2,63,0,7,1,13-.74,20,3.87,2.85,6.45,6.45,10.32,9.31,10.86,8,22.36,16.91,26.33,29.81.75,2.46,1.19,5.19.18,7.56s-3.93,4.05-6.24,2.92a36.17,36.17,0,0,1,2,12.5,6.9,6.9,0,0,1-1.09,4.21c-2.37,3-7.2,1-10.35-1.24-2,4.58-8.38,5.77-12.93,3.71s-7.62-6.36-10.35-10.54a257.49,257.49,0,0,1-15.61-27.42,75.7,75.7,0,0,1-8.5,20.54c-.79,1.32-1.83,2.75-3.36,2.9s-2.74-1-3.58-2.15c-4.55-6.44-1.09-15.18,1.2-22.72,3.61-11.87,3.91-24.47,3.65-36.88a458,458,0,0,0-9.75-83.66c-5.59-26.75-10.87-54.16-23.88-78.48,0,.17-1,1.39-1,1.56,0,3.44-1.61,8.32-2.12,11.73-.88,5.9-1.2,11.92-1.6,17.87-.6,9-1.77,19.07-1.32,28.1.76,15.41-2.5,31.13-2.23,46.56.17,9.37-.13,19.72,1.46,29a41.52,41.52,0,0,1-18.45,6.6,391.52,391.52,0,0,1-51.34,3c-6.78.21-14.09-.46-20.88-.25-3.57.11-7.9-2.2-11.46-2.52-3.3-.31-8.17-.76-11.41-1.43-6.36-1.33-20.34-.55-22.78-6.94-1.45-3.83,1.21-13.09,1.41-17.37.27-5.82.34-11.65.27-17.47-.3-23.41-1.68-47.48-5.8-69.92-1.38-7.5-1.88-15.4-5.78-21.94" transform="translate(0.5 0.5)"/><path class="cls-7" d="M260.53,920.47l-1.17-225.54c0-2.76.28-6.06,2.72-7.34,1.52-.8,3.35-.49,5-.2a94.35,94.35,0,0,0,45.3-3.46l-.4,39.7c-.43,42.22-.86,84.46.85,126.64,1.16,28.59,3.3,57.2,2.16,85.79-.13,3.33-.34,6.77-1.9,9.71a17.21,17.21,0,0,1-6.51,6.3,33.74,33.74,0,0,1-18.1,4.85c-7.28-.15-24.62-4-29-10.57-2.05-3.05-.21-6.13.34-9.61C260.67,931.39,260.56,925.87,260.53,920.47Z" transform="translate(0.5 0.5)"/><path class="cls-8" d="M224.89,692.69c1.09-.22,2.33-.44,3.24.21a3.9,3.9,0,0,1,1.22,2.5c3.18,15.81.11,32.1-1.22,48.17-1.56,18.93-.68,38-.85,57-.33,36.34-4.5,72.53-6.52,108.82-.46,8.28-.51,17.48,5,23.7,1.74,2,3.94,3.52,5.54,5.6s2.51,5.06,1.2,7.35a8.4,8.4,0,0,1-3.43,2.91,50.15,50.15,0,0,1-44,2c-2.1-.93-4.26-2.12-5.4-4.12-1-1.83-1.07-4-1.07-6.16q-.06-61.53-.11-123.06,0-36.36-.07-72.7l0-36.66c0-6.92-3-20,2.62-25.46A56.71,56.71,0,0,0,224.89,692.69Z" transform="translate(0.5 0.5)"/><path class="cls-9" d="M267.87,375.32a5.24,5.24,0,0,0,3-1.28,4.67,4.67,0,0,0,1-2.28c1.27-6.18-1.17-13.12,1.87-18.65a5.55,5.55,0,0,0,1.06-2.78,3,3,0,0,0-2.61-2.51,9.78,9.78,0,0,0-3.86.39c-13.94,3.17-28.45,1.12-42.74.63a2.26,2.26,0,0,0-1.34.24c-.65.41-.7,1.32-.67,2.08.13,2.56.59,5.09.78,7.64.16,2-1,6.34-.49,8,1.07,3.28,9.6,5.53,12.78,6.55A63.51,63.51,0,0,0,267.87,375.32Z" transform="translate(0.5 0.5)"/><path class="cls-9" d="M178.18,579.45c1.15,2.31-1.11,5.57.61,7.51a4.68,4.68,0,0,0,2.06,1.13c29.62,10,61.66,9.3,92.92,8.27,14.19-.47,29.25-1.59,41.26-9.15l-.3-41.84c-.07-10.1-.14-20.22.32-30.31.9-19.62,3.8-39.09,6.71-58.52a4,4,0,0,1,.49-1.64c.81-1.24,2.78-1.16,3.93-.23a8,8,0,0,1,2.17,3.79,513.53,513.53,0,0,1,27.88,168.13,81,81,0,0,1-1.35,17c-2.27,10.38-8.32,21-4.75,31,.29.81.76,1.71,1.6,1.9,1.36.32,2.29-1.32,2.7-2.65,20.69-66.17,14-138.34-5.31-204.92-2-7-4.25-14.11-7.93-20.45-3.33-5.72-8.88-11.21-15.47-10.65-7.23.62-11.94,8.44-12.25,15.68-1.81,41.49-11.89,82.29-13.92,123.76a6.51,6.51,0,0,1-.72,3.24,6.35,6.35,0,0,1-3.16,2.18c-15.53,6.42-35.77,6.63-52.57,6.27s-60.32-8.1-66-12.08C176.59,577.14,177.9,578.91,178.18,579.45Z" transform="translate(0.5 0.5)"/><path class="cls-9" d="M158,446.44c-3.29,1.88-4.65,5.85-5.73,9.49-19.53,65.77-31.7,135.18-21.43,203,.52,3.44,1.12,6.94,2.8,10a21.44,21.44,0,0,0,8.8,8.1,2.37,2.37,0,0,0,1.8.39,2.23,2.23,0,0,0,1-.82c4.47-5.94.94-14.24-1.56-21.24-4.29-12-5-24.92-5.15-37.64a393.94,393.94,0,0,1,26.76-145.59c2.32-5.95,4.6-12.37,3.14-18.81C167.43,448.93,163.16,443.49,158,446.44Z" transform="translate(0.5 0.5)"/><path class="cls-9" d="M259.87,703.31c-.4-4.8-1.2-9.6-.33-14.34a3.51,3.51,0,0,1,.91-2.08c.81-.73,2.05-.61,3.13-.45a143.39,143.39,0,0,0,46.77-.88c2.82,10.78,2.69,22.09,2.54,33.24l-.21,15.36L312,783.6c-.14,10.45,2.23,20.27,2.35,30.72q.69,62.85,1,125.71L306,932.72a6.86,6.86,0,0,1-3.19-6.47c-4.81-59.66-5.9-119.56-7-179.41-.29-16.11-.58-32.29,1.24-48.31-4.64-.34-9.16.73-13.77,1.46l-7.83,1.24c-2.4,69.5-2.46,139.48-.38,209,.16,5.31.31,10.76-1.38,15.79s-5.66,9.66-10.9,10.57c-1.53-3.4-1.46-7.26-1.92-11-.5-4.13-1.69-8.17-2-12.32-.42-6.81,3.13-13.4,2.85-20.23-.78-18.55-.71-38.84-2.4-58.28C255.62,791.77,263.29,744.28,259.87,703.31Z" transform="translate(0.5 0.5)"/><path class="cls-9" d="M223.75,700.06q-2.67,114.84-8.7,229.56a2.55,2.55,0,0,0,2.37,3.29l7.37,1.82a2.87,2.87,0,0,0,2,0,2.7,2.7,0,0,0,1.07-1.89c.83-3.93.19-8-.17-12a169.21,169.21,0,0,1,0-22.63l9.42-209.89a2.54,2.54,0,0,0-.36-1.79c-.57-.68-1.61-.58-2.48-.44a130.31,130.31,0,0,1-54.39-2.47c-1.49-.39-1.19,8.38,0,9.67,2.54,2.79,9.5,3.58,13,4.4A101.26,101.26,0,0,0,223.75,700.06Z" transform="translate(0.5 0.5)"/><circle class="cls-9" cx="292.66" cy="480.99" r="8.62"/><circle class="cls-9" cx="201.18" cy="480.99" r="8.62"/><path class="cls-9" d="M245.74,562.86a8.81,8.81,0,0,1,3.07-2.2,9.47,9.47,0,0,1,3.81-.56,14.19,14.19,0,0,1,9.34,3.71,11.32,11.32,0,0,1,3.57,9.25,2,2,0,0,1-.37,1.11c-.75.89-2.15.18-3.14-.43-5.5-3.44-9.85-.59-15.5-.18C240,574,242.94,565.82,245.74,562.86Z" transform="translate(0.5 0.5)"/><path class="cls-9" d="M258.76,940.51a3.29,3.29,0,0,1,3.58-1.3,6,6,0,0,1,2.05,1.69c3.16,3.21,7.81,4.35,12.21,5.35,6.21,1.41,12.54,2.83,18.9,2.37s12.87-3.09,16.53-8.32c3.57,2.17,3.88,7.61,1.61,11.11s-6.3,5.43-10.26,6.76a61.76,61.76,0,0,1-40.81-.55,10.74,10.74,0,0,1-3.37-1.76C255.65,952.82,256,944,258.76,940.51Z" transform="translate(0.5 0.5)"/><path class="cls-9" d="M175.73,944.26c1.52-2.73,4.68-4.81,7.71-4a12.67,12.67,0,0,1,4.42,2.7,37.53,37.53,0,0,0,29.74,7.18c3.77-.72,7.58-2.14,10.13-5,1.1-1.24,2.09-2.81,3.72-3.14,2-.39,3.78,1.36,4.53,3.24,2,4.91-1,10.7-5.39,13.63s-9.88,3.66-15.15,4.12c-9.34.81-19,1-28.12-1.6-3.81-1.06-9.37-2.72-12.19-5.66C172.48,952.93,173.86,947.63,175.73,944.26Z" transform="translate(0.5 0.5)"/><path class="cls-7" d="M78.86,207.77l12.47-5.37,13.19-.85,9.32,4,4.76,7.84s1.37,14.12,1.5,17.31,3.06,17.85,3.7,19.71,3.83,12.08,3.83,12.08l-1.41,8.3L110,276.25S95.18,275,94.76,274.86s-13-9.27-13.36-9.78-10.92-20.67-10.92-20.67l.6-13.66s1-7.15.51-7.91.63-6.51.63-6.51Z" transform="translate(0.5 0.5)"/><polygon class="cls-7" points="375.21 239.93 375.27 264.48 380.25 277.31 402.06 282.58 414.85 277.38 424.41 264.12 428.92 246.91 427.66 229.54 423.06 214.91 414.39 206.71 397.62 205.11 385.07 209.81 381.4 210.43 375.21 239.93"/><path class="cls-9" d="M103.41,201.91s.15,26.75,3.81,34.46,8.41,13.29,6.54,19.33S101,276.92,76.48,254.26l3.92,9.51,9,8.52L101,277.56l19.15-4.69,7.34-9.44s-3.35-15-3.85-15.32S119.22,219,119.22,219l-.92-9.63-9.65-6.55Z" transform="translate(0.5 0.5)"/><path class="cls-9" d="M389.71,206.39a217.53,217.53,0,0,1-1.14,25.13c-1.41,12.38-6,27.19-5.11,31.91s3.83,10.09,14.81,6.77S422.1,250,421.12,236.37c-1-13.28-8.75-29.68-8.75-29.68l14.88,14.87,1.17,28.21-9.22,22.85-14.79,8.3-16.1,2.43L376.82,274l-4.47-8.17,2.36-20.3,4.15-22.64,3.32-13.36Z" transform="translate(0.5 0.5)"/><path class="cls-7" d="M223.73,37.71H244.5l36.08,3.94,19.53,7.83,14.16,7L332.71,69.7l12.21,13,16.17,13.44L372,117.39l8.23,13.92,4.36,16.23,1.56,15.13-2.76,39.07-7.46,44.84-4.69,26.83-10.16,27.9-20.4,26.29L312.41,341l-43.09,10.9-24,3.47-24.07-3.18-33.39-10.93s-23.72-13.81-23.39-15.17-16.68-19.48-18.21-24.55-13.41-24.71-13.35-27.14-9.54-34.55-9.54-34.55-4.29-28.08-4.5-28.45.27-33.94.27-33.94l3.13-34.2,4-23L139,83.69l17.56-18.33,16.75-11.63,15.5-7.15,15.67-4.79Z" transform="translate(0.5 0.5)"/><path class="cls-9" d="M238.14,256.07a18.25,18.25,0,0,0,20.25,1.16c2.38-1.46,5.09-3.57,7.63-2.43a4.42,4.42,0,0,1,2.06,2.12c1.61,3.34-.49,7.52-3.66,9.44s-7.05,2.13-10.75,2.17c-4.44.06-8.95-.06-13.17-1.42-3.41-1.1-10.27-4.64-11.49-8.41-.65-2,.21-4.93,2.33-5.66C233.9,252.17,236.33,254.66,238.14,256.07Z" transform="translate(0.5 0.5)"/><path class="cls-9" d="M301.62,57.56c.26.28,2.65,2.21,7.1,5.83a158.74,158.74,0,0,1,25.92,27.19,156.41,156.41,0,0,1,18.72,29.28c2,4.1,10.2,21.91,12.6,52.42,1.66,21.08,4.11,52.19-11.23,87.49-5.5,12.65-21.29,49-60.26,69.45-31,16.26-62.6,15.14-73.19,14.64-19.78-.93-35.77-5.73-36.09-4.43s15.91,7.85,35.07,10.56c15.3,2.16,27.34,1.17,41.53,0,16.2-1.34,24.31-2,35.4-5.45,18.1-5.61,30.3-14.31,37.79-19.75,9.33-6.77,16.75-12.14,23.49-22.12,7.08-10.48,9.48-20.18,11.23-27.58,4.25-17.9,6.22-22,8.4-50.21,1.28-16.6,3.4-12,4.52-29.57.68-10.62,2.66-26.84,1.69-41.19-1.05-15.61-9.8-23.83-13.92-33.24-3.23-7.36-7-12.29-12.26-19.07C349.86,91.09,344.05,83.42,340,78.73,324.71,61,277.84,31.26,301.62,57.56Z" transform="translate(0.5 0.5)"/><path class="cls-10" d="M309.32,245.6a20.28,20.28,0,0,1,7.83-2.08,63,63,0,0,1,21.06,1.34c2.25.53,4.89,1.64,5.18,3.93a4.82,4.82,0,0,1-2,4c-2.84,2.5-6.74,3.4-10.48,4-6.61,1.05-15.37,2.61-22,1.08S304.37,248.34,309.32,245.6Z" transform="translate(0.5 0.5)"/><path class="cls-10" d="M154.48,249.6c6.35-2.08,13.17-2.16,19.85-2,3.64.06,7.47.23,10.56,2.16s5,6.26,3,9.34c-1.74,2.77-5.5,3.29-8.77,3.5-8.47.57-17.43,1.15-25.69-1.28C145.53,258.94,147.17,252,154.48,249.6Z" transform="translate(0.5 0.5)"/><path class="cls-11" d="M255.79,407.79c-.45-7.8,6-8.08,12.2-8.28a65,65,0,0,1,16.21,1.62c3.14.69,4.48-4.12,1.33-4.82-11.18-2.48-35.75-6.17-34.74,11.48.18,3.2,5.18,3.22,5,0Z" transform="translate(0.5 0.5)"/><path class="cls-11" d="M237.54,405.42c.78-7.71-2.35-10.94-9.87-11.38-8.6-.51-17.81,1.64-26.2,3.27-3.15.61-1.82,5.43,1.33,4.82,5.43-1.05,10.89-2,16.38-2.64a46.55,46.55,0,0,1,7.55-.47c2.32.09,3.57-.06,5,1.83,1.26,1.7,1,2.55.83,4.57-.32,3.2,4.68,3.18,5,0Z" transform="translate(0.5 0.5)"/><path class="cls-11" d="M328.34,443.47c-8.34,1.24-9.45,11.22-10.17,18-1.43,13.41-2.84,26.83-4,40.28-2.29,26.85-3.44,53.81-1.68,80.72.2,3.2,5.21,3.22,5,0-1.55-23.62-.86-47.29.89-70.88.85-11.49,1.94-23,3.12-34.42.6-5.89,1.15-11.79,1.86-17.66.49-4.15,1.24-10.44,6.29-11.19,3.17-.47,1.82-5.29-1.33-4.82Z" transform="translate(0.5 0.5)"/><path class="cls-11" d="M161.92,449.38c7.68,7,9.17,18.08,11,27.83A355.08,355.08,0,0,1,177.79,514a371.2,371.2,0,0,1-1.22,71.56c-.36,3.19,4.64,3.17,5,0a371,371,0,0,0,.71-77.35Q180.53,490,177,472.07c-1.87-9.52-4.09-19.41-11.54-26.23-2.36-2.17-5.91,1.36-3.53,3.54Z" transform="translate(0.5 0.5)"/><path class="cls-11" d="M250.57,562.29a21,21,0,0,0-9.88,14.1,2.52,2.52,0,0,0,4.18,2.43c4.41-4,12.61-7.88,16.81-1.35,1.74,2.69,6.07.19,4.32-2.53-6.09-9.45-17.7-6-24.67.34l4.18,2.44a16.17,16.17,0,0,1,7.58-11.11c2.74-1.68.23-6-2.52-4.32Z" transform="translate(0.5 0.5)"/><path class="cls-11" d="M212.89,376.24a124,124,0,0,1-23.74,7.2c-7.05,1.36-14.34,1.76-21.23,3.88-13.88,4.26-20.46,15.86-26.3,28.26-13.55,28.73-20.63,59.86-24.56,91.25-.4,3.18,4.61,3.15,5,0,3.74-29.85,10.46-59.67,23.11-87.08,2.83-6.15,5.76-12.55,9.94-17.92,4.66-6,10.77-9.09,18.07-10.7,6.58-1.44,13.32-2,19.9-3.41a124.12,124.12,0,0,0,21.14-6.66c2.93-1.21,1.64-6.05-1.33-4.82Z" transform="translate(0.5 0.5)"/><path class="cls-11" d="M115.56,518.93a474.25,474.25,0,0,0-2.74,105.9c.28,3.18,5.28,3.21,5,0a468.31,468.31,0,0,1,2.56-104.57c.43-3.14-4.38-4.5-4.82-1.33Z" transform="translate(0.5 0.5)"/><path class="cls-11" d="M221.73,352.84a80.2,80.2,0,0,1-3,26.82c-.88,3.1,3.94,4.43,4.82,1.33a84.43,84.43,0,0,0,3.19-28.15c-.16-3.2-5.17-3.22-5,0Z" transform="translate(0.5 0.5)"/><path class="cls-11" d="M272.6,349.07c-5.33,11.18-2.8,22.22-1.11,33.94.46,3.17,5.28,1.82,4.83-1.33-1.47-10.18-4.05-20.34.6-30.08,1.38-2.89-2.93-5.43-4.32-2.53Z" transform="translate(0.5 0.5)"/><path class="cls-11" d="M127.42,647.85c-9,11.72-12,27.54-22.43,38.21a18.7,18.7,0,0,1-5.11,4.05,4.3,4.3,0,0,1-6.15-3.84c-.31-5.29,2.65-10.54,5.32-14.91a62.62,62.62,0,0,1,18.17-19c2.63-1.81.14-6.15-2.53-4.32a67.66,67.66,0,0,0-22.35,25.07c-3.07,6.11-7.45,21.43,3.47,22.77,9.27,1.13,16.75-10.33,20.59-17.2,5.25-9.4,8.7-19.71,15.33-28.31,2-2.54-2.37-5-4.31-2.52Z" transform="translate(0.5 0.5)"/><path class="cls-11" d="M89.05,686.14c-3.15,2.5-6.81.08-7.33-3.49-.36-2.48.76-5.31,1.59-7.64a50.55,50.55,0,0,1,6.22-11.9A52.46,52.46,0,0,1,110,646c2.91-1.38.37-5.69-2.52-4.31A56.76,56.76,0,0,0,79.28,671.6c-2.17,5.39-4.63,13.23.27,18,3.7,3.59,9.22,3.14,13,.11,2.52-2-1-5.52-3.53-3.54Z" transform="translate(0.5 0.5)"/><path class="cls-11" d="M77,669.05c-6.25-3.67,10.81-22.66,13.78-25.62a77.14,77.14,0,0,1,23.48-15.91c2.93-1.3.39-5.61-2.53-4.32a80.5,80.5,0,0,0-30.13,23c-4.68,5.81-17.43,21.14-7.12,27.2,2.77,1.64,5.29-2.68,2.52-4.32Z" transform="translate(0.5 0.5)"/><path class="cls-11" d="M167.71,457.87c-12.27,30.89-21.79,62.9-27.08,95.74a372.1,372.1,0,0,0-4.65,47.7c-.49,15.68-.95,32.55,2.42,48a78.35,78.35,0,0,0,4.37,12.52,32.93,32.93,0,0,1,2.1,6.41c.58,3.23-.16,7.83-4.43,5.85-3.52-1.64-5.71-7.83-6.62-11.3a27.3,27.3,0,0,1,.07-13.76c.8-3.12-4-4.45-4.82-1.33a32.14,32.14,0,0,0,1.57,21c2.17,4.94,6.68,12.08,13,11.6,7.16-.54,7-9.94,5.64-15-1-3.85-3-7.4-4.31-11.14a63.3,63.3,0,0,1-3.19-16.47c-3.21-38.65,1.07-77.85,10.32-115.42a485.54,485.54,0,0,1,20.41-63c1.18-3-3.65-4.29-4.82-1.33Z" transform="translate(0.5 0.5)"/><path class="cls-11" d="M321.25,451.22A546.3,546.3,0,0,1,350.2,563.43c2.74,19.12,4.66,38.61,4.17,57.94a142.6,142.6,0,0,1-3.73,30.46c-1.65,6.72-6.87,15.66-3.49,22.52,2.94,5.95,10.19,6.77,14,1.25,5.24-7.52,7.85-18.5,6.86-27.51-.34-3.17-5.35-3.2-5,0a32.41,32.41,0,0,1-.91,12.28c-1,3.82-2.42,9.37-5.14,12.38s-5.74.38-5.93-3.16c-.11-2,.69-4.08,1.28-5.94,1.38-4.37,2.74-8.69,3.73-13.18,3.5-15.94,3.81-32.39,2.94-48.62-1.75-33-7.46-65.84-15.82-97.8a567.16,567.16,0,0,0-17.13-54.16c-1.11-3-5.95-1.7-4.82,1.33Z" transform="translate(0.5 0.5)"/><path class="cls-11" d="M382,655.24a85.59,85.59,0,0,1,15.28,19.29c1.77,3.09,4.13,6.68,4.68,10.22,1.43,9-8,6-11.81,2.59-5.14-4.58-7.71-11.24-10.59-17.31-3.7-7.8-8.29-15.13-11.92-23-1.35-2.92-5.66-.38-4.32,2.52,2.6,5.6,5.65,10.94,8.56,16.38,2.63,4.92,4.74,10.09,7.39,15,3.8,7,10.43,15.45,19.37,15,9.42-.48,9.33-10.7,6.45-17.17a87.15,87.15,0,0,0-19.55-27.07c-2.33-2.23-5.87,1.3-3.54,3.53Z" transform="translate(0.5 0.5)"/><path class="cls-11" d="M403.23,689c3.26,4,8.17,6.88,12.88,3.08,5.23-4.22,4-11.49,2.29-17.14A56.89,56.89,0,0,0,395,643.7c-2.69-1.79-5.2,2.54-2.52,4.31a52,52,0,0,1,16.58,17.68,49.85,49.85,0,0,1,4.48,10.53c.68,2.3,1.49,4.92,1.34,7.34-.35,5.48-5.42,5.25-8.15,1.85-2-2.51-5.54,1.05-3.54,3.54Z" transform="translate(0.5 0.5)"/><path class="cls-11" d="M423.18,671.1c3.52-3.28,1.33-8.18-.21-11.94a61.12,61.12,0,0,0-8.7-14.79,63,63,0,0,0-28.34-20.18c-3-1.08-4.35,3.74-1.33,4.82a57.6,57.6,0,0,1,30.69,25.74c1.25,2.2,6.58,10.74,4.36,12.82s1.18,5.73,3.53,3.53Z" transform="translate(0.5 0.5)"/><path class="cls-11" d="M379.93,570.88a224.91,224.91,0,0,1,2.49,55c-.25,3.21,4.76,3.19,5,0a229.84,229.84,0,0,0-2.67-56.3c-.53-3.16-5.35-1.82-4.82,1.33Z" transform="translate(0.5 0.5)"/><path class="cls-11" d="M282.88,383.16q15.31,3.12,30.64,6.27c8.74,1.81,18.3,3.17,25.19,9.37,12.05,10.83,14.69,30.77,18.84,45.59C368.13,482.17,379,520,379.84,559.53c.07,3.21,5.07,3.23,5,0-.7-32.34-7.79-64-16.47-95-4.22-15.11-8-30.4-12.79-45.35-3.52-11.07-8.78-22.44-19.44-28.23-7.12-3.87-15.37-5.09-23.21-6.7q-14.35-3-28.72-5.88c-3.15-.64-4.49,4.18-1.33,4.82Z" transform="translate(0.5 0.5)"/><path class="cls-11" d="M175.58,588.64c22.76,10.55,49.73,9.73,74.29,10.24a271.66,271.66,0,0,0,40.93-1.78c9.1-1.2,23.05-1.83,27.84-11.23,1.46-2.86-2.85-5.4-4.31-2.52-2.61,5.12-8.72,6.11-13.87,7.13A170.77,170.77,0,0,1,282.29,593a315.27,315.27,0,0,1-36.24.76c-22.47-.62-47.12.18-68-9.47-2.9-1.34-5.44,3-2.52,4.32Z" transform="translate(0.5 0.5)"/><path class="cls-11" d="M173.17,587a793,793,0,0,0-1.46,93.52c.14,3.21,5.14,3.23,5,0A793,793,0,0,1,178.17,587c.24-3.21-4.76-3.19-5,0Z" transform="translate(0.5 0.5)"/><path class="cls-11" d="M316.11,585.41a437.77,437.77,0,0,1-.89,91.48c-.37,3.19,4.63,3.16,5,0a437.77,437.77,0,0,0,.89-91.48c-.31-3.18-5.31-3.21-5,0Z" transform="translate(0.5 0.5)"/><path class="cls-11" d="M174,683.78A112.8,112.8,0,0,0,240.32,687c3.12-.8,1.8-5.62-1.33-4.82A108,108,0,0,1,175.3,679c-3-1.08-4.34,3.75-1.33,4.82Z" transform="translate(0.5 0.5)"/><path class="cls-11" d="M256.77,687.81a119.67,119.67,0,0,0,36.24,2.7c9.57-.79,19.28-2.54,26.49-9.34,2.35-2.22-1.19-5.75-3.53-3.54-7.08,6.66-17.45,7.67-26.72,8.13A115.24,115.24,0,0,1,258.1,683c-3.14-.7-4.48,4.12-1.33,4.82Z" transform="translate(0.5 0.5)"/><path class="cls-11" d="M259.15,684.55l-1.39-30.14c-.15-3.2-5.15-3.22-5,0l1.39,30.14c.14,3.2,5.15,3.22,5,0Z" transform="translate(0.5 0.5)"/><path class="cls-11" d="M242.16,684c-.72-9.95,1.05-19.63,2.71-29.4.54-3.15-4.28-4.5-4.82-1.33-1.74,10.18-3.64,20.36-2.89,30.73.23,3.19,5.23,3.22,5,0Z" transform="translate(0.5 0.5)"/><path class="cls-11" d="M224.59,652.05a97.88,97.88,0,0,0,51-.77c3.09-.88,1.78-5.71-1.33-4.82a92.57,92.57,0,0,1-48.3.76c-3.12-.78-4.46,4-1.33,4.83Z" transform="translate(0.5 0.5)"/><path class="cls-11" d="M176.86,683.5q1.92,60.76.12,121.57c-.1,3.22,4.9,3.21,5,0q1.8-60.78-.12-121.57c-.1-3.21-5.1-3.22-5,0Z" transform="translate(0.5 0.5)"/><path class="cls-11" d="M175.76,821.39q2.61,58.7.39,117.47c-.12,3.22,4.88,3.22,5,0q2.23-58.73-.39-117.47c-.14-3.21-5.14-3.23-5,0Z" transform="translate(0.5 0.5)"/><path class="cls-11" d="M234.25,688.11q-6.1,122-8.42,244.11c-.06,3.22,4.94,3.22,5,0q2.31-122.12,8.42-244.11c.16-3.22-4.84-3.21-5,0Z" transform="translate(0.5 0.5)"/><path class="cls-11" d="M257.86,686.09q-1.22,125.1.61,250.22c0,3.21,5,3.22,5,0q-1.82-125.1-.61-250.22c0-3.22-5-3.22-5,0Z" transform="translate(0.5 0.5)"/><path class="cls-11" d="M309.4,687.1q.64,27.82.49,55.67c0,3.22,5,3.22,5,0q.15-27.84-.49-55.67c-.08-3.21-5.08-3.22-5,0Z" transform="translate(0.5 0.5)"/><path class="cls-11" d="M309.36,755.52q3.15,91.89,3.43,183.84c0,3.22,5,3.23,5,0q-.29-91.93-3.43-183.84c-.11-3.2-5.11-3.22-5,0Z" transform="translate(0.5 0.5)"/><path class="cls-11" d="M177.3,955.86c-5-13.87,11.89-20.11,22.33-22,11.16-2,24.85-1.73,32.35,8.19,1.85,2.45,3.67,5.91,2.9,9.11-.86,3.61-4.79,5.68-8,6.7a93,93,0,0,1-17.68,3.25c-11.74,1.28-23.11,0-33-6.76-2.66-1.81-5.17,2.52-2.52,4.32,13.45,9.19,29.19,8.82,44.64,6.13,6.73-1.17,14.73-2.21,19.21-8,4.31-5.59,2.45-12.54-1.53-17.79-9.42-12.4-26.33-12.39-40.16-9.46-12.63,2.68-28.93,12.13-23.31,27.65,1.09,3,5.92,1.7,4.82-1.33Z" transform="translate(0.5 0.5)"/><path class="cls-11" d="M261,955.61c-6.94-11.26,5.06-21.27,15.21-23.38,10.64-2.2,25.84-1.45,33.8,6.94,11.88,12.53-9.31,17.57-18.28,19.05-11.2,1.84-22.73,1.11-32.59-4.91-2.75-1.69-5.27,2.64-2.52,4.31,13.18,8.06,29.05,7.63,43.58,3.9,5.95-1.53,13.4-3.45,16.77-9.14s.8-12.34-3.43-16.74c-10-10.38-29.51-11.48-42.46-7.21-12,4-22,17.37-14.4,29.7,1.69,2.74,6,.23,4.32-2.52Z" transform="translate(0.5 0.5)"/><path class="cls-12" d="M380.91,209.93s35.86-18.87,44.37,11.09-.34,56.51-26.21,60.59-24.34-20-24.34-20l3.08-32Z" transform="translate(0.5 0.5)"/><path class="cls-12" d="M118.6,213.44s-3.78-12.85-21.83-11.83-27.23,16-26.21,33,10.67,43.14,36.09,41.88,20.43-16,20.43-16l-4.33-17.48-2.43-14.13Z" transform="translate(0.5 0.5)"/><path class="cls-12" d="M250.74,353.1s-54.08,8.17-91.86-32.68c-23.43-25.33-38-64-41.11-111-1.89-28.83.54-60.8,7.92-94.76,19.4-89.36,148.59-96,205.27-44.93s59.75,81.19,48,148.59S372.37,342.15,250.74,353.1Z" transform="translate(0.5 0.5)"/><path class="cls-13" d="M403.33,226.63S387.24,234,387.16,258c0,0,8.25-23,23.91-17.36" transform="translate(0.5 0.5)"/><path class="cls-13" d="M91.5,229.19s19.74,3.74,24.17,18.72c0,0-12.26-14.81-24.17,2.55" transform="translate(0.5 0.5)"/><line class="cls-14" x1="232.12" y1="250.39" x2="242.4" y2="259.39"/><line class="cls-14" x1="255.48" y1="261.18" x2="265.57" y2="251.48"/><path class="cls-11" d="M232.88,364.29c4.27,2.21,9.1,3.08,13.87,3.58,5.68.6,11.6.7,16.9-1.41s9.88-6.89,10.27-12.59a2.68,2.68,0,0,0-.25-1.54,2.91,2.91,0,0,0-2.5-1c-7.16-.3-14.27,1.15-21.43,1.4-8.13.29-16.25-1-24.39-.86-3.64.05-.35,5.17.72,6.66A19.07,19.07,0,0,0,232.88,364.29Z" transform="translate(0.5 0.5)"/><path class="cls-7" d="M136.52,192.4" transform="translate(0.5 0.5)"/></svg>