<svg id="Layer_1" data-name="Layer 1" xmlns="http://www.w3.org/2000/svg" viewBox="0 0 501 1001"><defs><style>.cls-1{fill:none;stroke:#fff;stroke-miterlimit:10;opacity:0;}.cls-2{fill:#2c0404;}.cls-3{fill:#280303;}</style></defs><title>m-eyes1</title><rect class="cls-1" x="0.5" y="0.5" width="500" height="1000"/><path class="cls-2" d="M280.83,217.36a56.37,56.37,0,0,1,54.09,3.7c2.72,1.74,5.23-2.59,2.52-4.32a61.49,61.49,0,0,0-59.13-3.7c-2.91,1.37-.37,5.68,2.52,4.32Z" transform="translate(0.5 0.5)"/><path class="cls-2" d="M156.58,219.4a77.68,77.68,0,0,1,63.21-1.94c3,1.21,4.28-3.62,1.33-4.82a82.58,82.58,0,0,0-67.07,2.44c-2.89,1.41-.36,5.72,2.53,4.32Z" transform="translate(0.5 0.5)"/><path class="cls-2" d="M168,214.58l-.09,9.87c0,3.22,5,3.23,5,0l.09-9.87c0-3.22-5-3.22-5,0Z" transform="translate(0.5 0.5)"/><path class="cls-2" d="M289.52,213.9a98.23,98.23,0,0,0,.72,10.57c.38,3.15,5.39,3.19,5,0a98.23,98.23,0,0,1-.72-10.57c0-3.22-5-3.22-5,0Z" transform="translate(0.5 0.5)"/><path class="cls-3" d="M279.05,176.37a4.8,4.8,0,0,1,.08-2.58c.71-1.72,3-2.16,5-2.34l51.7-4.86a5.33,5.33,0,0,1,3.61.51,4.7,4.7,0,0,1,1.47,2.56L345.07,183a3,3,0,0,1,.16,1.82c-.38,1.09-1.82,1.41-3,1.53-5.08.52-10.2.56-15.32.6l-31.57.24c-2.77,0-12.35,1.56-14.44-.05C279.14,185.82,279.37,178.43,279.05,176.37Z" transform="translate(0.5 0.5)"/><path class="cls-3" d="M149.21,182.37l2.64-10.32a3.51,3.51,0,0,1,4.07-3.34,303,303,0,0,1,52.16,1.86,2.93,2.93,0,0,1,3.1,3.28q.66,5.43,1.08,10.88a3.13,3.13,0,0,1-.32,2.08,3.19,3.19,0,0,1-2.52.94q-18.15,1.08-36.34,1c-6,0-12-.31-18-.39C150.77,188.29,147.86,187.67,149.21,182.37Z" transform="translate(0.5 0.5)"/></svg>