<svg xmlns="http://www.w3.org/2000/svg" viewBox="0 0 196.44 60.36"><defs><style>.cls-1{fill:#2c0404;}.cls-2{fill:#280303;}</style></defs><title>Asset 7</title><g id="Layer_2" data-name="Layer 2"><g id="Layer_2-2" data-name="Layer 2"><path class="cls-1" d="M132,50.85A56.34,56.34,0,0,1,186,54.55c2.72,1.74,5.23-2.59,2.52-4.32a61.47,61.47,0,0,0-59.13-3.7c-2.91,1.37-.37,5.68,2.52,4.32Z"/><path class="cls-1" d="M7.7,52.89A77.68,77.68,0,0,1,70.91,51c3,1.21,4.28-3.63,1.33-4.82A82.54,82.54,0,0,0,5.17,48.57C2.28,50,4.81,54.29,7.7,52.89Z"/><path class="cls-1" d="M19.11,48.07,19,57.94c0,3.22,5,3.22,5,0l.09-9.87c0-3.22-5-3.22-5,0Z"/><path class="cls-1" d="M140.64,47.39A98.23,98.23,0,0,0,141.36,58c.38,3.15,5.39,3.19,5,0a98.23,98.23,0,0,1-.72-10.57c0-3.22-5-3.23-5,0Z"/><path class="cls-2" d="M130.17,9.85a4.8,4.8,0,0,1,.08-2.58c.71-1.72,3-2.15,5-2.34L186.94.08a5.33,5.33,0,0,1,3.61.51A4.71,4.71,0,0,1,192,3.14l4.17,13.37a2.94,2.94,0,0,1,.16,1.82c-.38,1.08-1.82,1.41-3,1.53-5.08.52-10.2.56-15.32.6l-31.57.24c-2.77,0-12.35,1.55-14.44-.06C130.26,19.31,130.49,11.92,130.17,9.85Z"/><path class="cls-2" d="M.33,15.86,3,5.54A4.66,4.66,0,0,1,4.25,3,4.63,4.63,0,0,1,7,2.19,305.06,305.06,0,0,1,59.2,4.05a4,4,0,0,1,2.08.68,3.93,3.93,0,0,1,1,2.61c.44,3.62.8,7.24,1.08,10.88a3.14,3.14,0,0,1-.32,2.08,3.19,3.19,0,0,1-2.52.94q-18.15,1.08-36.34,1c-6,0-12-.32-18-.39C1.89,21.78-1,21.16.33,15.86Z"/></g></g></svg>