<svg id="Layer_1" data-name="Layer 1" xmlns="http://www.w3.org/2000/svg" viewBox="0 0 501 1001"><defs><style>.cls-1,.cls-4,.cls-5{fill:none;}.cls-1,.cls-5{stroke:#fff;}.cls-1,.cls-4{stroke-miterlimit:10;}.cls-1{opacity:0;}.cls-2,.cls-3{fill:#fff;}.cls-2{opacity:0.46;}.cls-3{opacity:0.38;}.cls-4{stroke:#340c0a;stroke-width:5px;}.cls-5{stroke-linecap:round;stroke-linejoin:round;stroke-width:4px;}</style></defs><title>m-glasses1</title><rect class="cls-1" x="0.5" y="0.5" width="500" height="1000"/><path class="cls-2" d="M351.34,187.47l-88.72.62-2.44,5.29s0,12.26.07,12.94,5.21,19.37,5.21,19.37,3.37,6.12,5.85,8.61,9.06,9.51,10.93,9.3,26.55,4.82,26.55,4.82l17.5-4.16,12.12-6.83L347.92,223l4.79-12.09.62-16.64Z" transform="translate(0.5 0.5)"/><path class="cls-2" d="M139.3,187.47l88.73.62,2.44,5.29s0,12.26-.07,12.94-5.21,19.37-5.21,19.37-3.37,6.12-5.85,8.61-9.06,9.51-10.93,9.3-26.55,4.82-26.55,4.82l-17.5-4.16-12.12-6.83L142.73,223l-4.79-12.09-.63-16.64Z" transform="translate(0.5 0.5)"/><path class="cls-3" d="M279.66,242l72.51-42.39V189.18H261.35l.69,14.55s3.07,15.57,3.58,16.59S270,231.81,270,231.81L282,240.65Z" transform="translate(0.5 0.5)"/><path class="cls-3" d="M157.59,242l72.51-42.39V189.18H139.28l.7,14.55s3.06,15.57,3.57,16.59,4.34,11.49,4.34,11.49L160,240.65Z" transform="translate(0.5 0.5)"/><path class="cls-4" d="M349.75,187.9h-85a3.92,3.92,0,0,0-3.9,3.48c-1.43,12.89-2.69,57.09,47.3,56.61,44.59-.44,46.12-43.3,45.55-56.36A3.91,3.91,0,0,0,349.75,187.9Z" transform="translate(0.5 0.5)"/><path class="cls-4" d="M228.31,189.77s15.83-11.57,35.41-.68" transform="translate(0.5 0.5)"/><path class="cls-4" d="M142.25,188.94H226a4.6,4.6,0,0,1,4.58,4.14c1.39,13.67,1.8,56.42-47.37,55.94-43.81-.42-46.05-41.83-45.57-55.65A4.59,4.59,0,0,1,142.25,188.94Z" transform="translate(0.5 0.5)"/><line class="cls-4" x1="138.73" y1="192.9" x2="119.2" y2="207.48"/><line class="cls-4" x1="354.24" y1="191.31" x2="382.64" y2="208.29"/><path class="cls-5" d="M156.13,231.34s9.62,10.23,30.17,9.8" transform="translate(0.5 0.5)"/><path class="cls-5" d="M191.94,241.16a13.92,13.92,0,0,0,2.92-.54" transform="translate(0.5 0.5)"/><path class="cls-5" d="M276.82,230.53s9.62,10.23,30.17,9.8" transform="translate(0.5 0.5)"/><path class="cls-5" d="M311.91,240.62a14,14,0,0,0,2.92-.54" transform="translate(0.5 0.5)"/></svg>