<svg xmlns="http://www.w3.org/2000/svg" viewBox="0 0 266.22 69.6"><defs><style>.cls-1,.cls-2{fill:#fff;}.cls-1{opacity:0.46;}.cls-2{opacity:0.38;}.cls-3,.cls-4{fill:none;}.cls-3{stroke:#340c0a;stroke-miterlimit:10;stroke-width:5px;}.cls-4{stroke:#fff;stroke-linecap:round;stroke-linejoin:round;stroke-width:4px;}</style></defs><title>Asset 9</title><g id="Layer_2" data-name="Layer 2"><g id="Layer_2-2" data-name="Layer 2"><path class="cls-1" d="M234.14,5.55l-88.72.62L143,11.45s0,12.27.07,13,5.2,19.37,5.2,19.37,3.37,6.12,5.85,8.61,9.06,9.51,10.93,9.29,26.56,4.83,26.56,4.83l17.49-4.16,12.12-6.83,9.52-14.43L235.5,29l.63-16.64Z"/><path class="cls-1" d="M22.1,5.55l88.72.62,2.44,5.28s0,12.27-.07,13S108,43.77,108,43.77s-3.37,6.12-5.85,8.61-9,9.51-10.92,9.29S64.65,66.5,64.65,66.5L47.16,62.34,35,55.51,25.52,41.08,20.74,29l-.63-16.64Z"/><path class="cls-2" d="M162.45,60.11,235,17.72V7.26H144.14l.7,14.55s3.06,15.57,3.57,16.59,4.34,11.49,4.34,11.49l12.06,8.84Z"/><path class="cls-2" d="M40.39,60.11,112.9,17.72V7.26H22.08l.69,14.55s3.07,15.57,3.58,16.59,4.34,11.49,4.34,11.49l12.05,8.84Z"/><path class="cls-3" d="M232.55,6H147.5a3.91,3.91,0,0,0-3.89,3.48c-1.43,12.89-2.7,57.09,47.3,56.6,44.58-.43,46.12-43.29,45.55-56.35A3.91,3.91,0,0,0,232.55,6Z"/><path class="cls-3" d="M111.11,7.85s15.83-11.57,35.4-.68"/><path class="cls-3" d="M25,7h83.77a4.61,4.61,0,0,1,4.58,4.14c1.39,13.67,1.8,56.42-47.37,55.94C22.2,66.68,20,25.27,20.44,11.45A4.59,4.59,0,0,1,25,7Z"/><line class="cls-3" x1="21.02" y1="10.48" x2="1.5" y2="25.06"/><line class="cls-3" x1="236.53" y1="8.89" x2="264.94" y2="25.87"/><path class="cls-4" d="M38.93,49.42s9.62,10.23,30.17,9.8"/><path class="cls-4" d="M74.74,59.24a13.9,13.9,0,0,0,2.91-.54"/><path class="cls-4" d="M159.61,48.61s9.62,10.23,30.17,9.8"/><path class="cls-4" d="M194.71,58.7a13.9,13.9,0,0,0,2.91-.54"/></g></g></svg>