<svg id="Layer_1" data-name="Layer 1" xmlns="http://www.w3.org/2000/svg" viewBox="0 0 501 1001"><defs><style>.cls-1{fill:none;stroke:#fff;stroke-miterlimit:10;opacity:0;}.cls-2{fill:#ccc;}.cls-3{fill:#8c8c8c;}.cls-4{fill:#280303;}.cls-5{fill:#d65c56;}</style></defs><title>m-shoes1</title><rect class="cls-1" x="0.5" y="0.5" width="500" height="1000"/><path class="cls-2" d="M251,948.1a9.75,9.75,0,0,1,3.27-4.28,69.27,69.27,0,0,1,15.06-10,38.39,38.39,0,0,1,8.71-3.18c7.32-1.56,14.93.05,22.13,2.13a20.83,20.83,0,0,1,5.57,2.26,21.66,21.66,0,0,1,3.68,3.29l4.53,4.7a16.86,16.86,0,0,1,3.41,4.45c1.95,4.27-.14,9.53-3.72,12.56s-8.32,4.29-12.92,5.19c-8.22,1.61-16.68,2.39-25,1.24a45.79,45.79,0,0,1-16.44-5.42C255.08,958.68,249.31,953.78,251,948.1Z" transform="translate(0.5 0.5)"/><path class="cls-2" d="M170.32,940.65a38,38,0,0,1,22.26-11.18,54.28,54.28,0,0,1,12,0c6.91.65,13.84,2.09,20.06,5.18s11.73,7.93,14.74,14.19c1.44,3,2.2,6.84.17,9.48-1.36,1.77-3.63,2.53-5.77,3.2-12.83,4-26.27,8.1-39.52,5.8a58.27,58.27,0,0,0-8.57-1.34,26.93,26.93,0,0,1-4-.11c-2.39-.39-4.44-1.87-6.39-3.31-3.22-2.36-8.59-5.81-9.81-9.91S167.58,943.48,170.32,940.65Z" transform="translate(0.5 0.5)"/><path class="cls-3" d="M186.7,953.93a102.52,102.52,0,0,1,18.79-2.43c5.36-.2,10.86.06,15.82,2.11,2.63,1.09,5.35,3.2,5.25,6a5.63,5.63,0,0,1-3.22,4.53,15.89,15.89,0,0,1-5.63,1.37,177.57,177.57,0,0,1-34.19.77c-3.53-.3-9.11-.75-7.83-5.68C176.8,956.31,183,954.76,186.7,953.93Z" transform="translate(0.5 0.5)"/><path class="cls-4" d="M237.66,950.52c1.61,10.16-13.74,10.88-20.54,11.84a155.16,155.16,0,0,1-27.58,1.37c-7.75-.31-19.31-1.84-21.18-11.21-1.12-5.62,4.43-12.84,9.28-15.3,4-2.05,9.94-2.5,14.33-3.22,8.24-1.35,16.95-2,25.23-.55,9.89,1.74,18,6.91,20.46,17.07.77,3.13,5.59,1.8,4.82-1.33-5.88-23.87-34.85-23.14-54.14-19.61-3.5.64-7,1.41-10.41,2.35-4.06,1.12-7.23,4.23-9.91,7.41-4.92,5.82-6.58,13.51-2,20,5.33,7.55,14.89,9,23.48,9.34a156.67,156.67,0,0,0,38.21-3.15c8.79-1.84,16.32-6.33,14.73-16.39C242,946,237.16,947.37,237.66,950.52Z" transform="translate(0.5 0.5)"/><path class="cls-3" d="M268.56,951.35c4.05-1.84,8.59-2.28,13-2.35,7.1-.11,14.44.74,20.62,4.25,2.59,1.48,5.21,4.2,4.32,7-.78,2.48-3.75,3.45-6.33,3.83a93.18,93.18,0,0,1-14.47.59L267,964.49C254.94,964.35,261.5,954.54,268.56,951.35Z" transform="translate(0.5 0.5)"/><path class="cls-4" d="M312,945.84c3.16,2.94,3.82,8,.65,11.22s-9.24,3.92-13.38,4.73a78,78,0,0,1-27.71.45c-6.71-1.13-15.54-3.6-17.25-11.26-.94-4.17.87-7.26,4-9.61,14.32-10.59,41.71-9.73,53.65,4.47,2.07,2.47,5.59-1.08,3.53-3.53-13-15.48-41.54-16.5-57.84-6.49-7.11,4.36-11.14,11.78-6.89,20,7,13.46,29.2,13.31,41.92,12,7.61-.8,19-1.81,24.32-8.14,4.29-5.14,3.22-12.95-1.51-17.34C313.16,940.12,309.61,943.65,312,945.84Z" transform="translate(0.5 0.5)"/><path class="cls-5" d="M189.58,945.47a35.3,35.3,0,0,1,28.19.46c2.91,1.32,5.45-3,2.53-4.32a40.2,40.2,0,0,0-32.05-1c-2.95,1.18-1.66,6,1.33,4.82Z" transform="translate(0.5 0.5)"/><path class="cls-5" d="M175.05,944.68a13.54,13.54,0,0,0,5.65,9.91,2.52,2.52,0,0,0,3.42-.9,2.57,2.57,0,0,0-.9-3.42,8,8,0,0,1-3.17-5.59,2.57,2.57,0,0,0-2.5-2.5,2.51,2.51,0,0,0-2.5,2.5Z" transform="translate(0.5 0.5)"/><path class="cls-5" d="M226.67,946.72a14.48,14.48,0,0,1-3,7,2.53,2.53,0,0,0,.9,3.42,2.56,2.56,0,0,0,3.42-.89,19.32,19.32,0,0,0,3.64-9.56,2.51,2.51,0,0,0-2.5-2.5,2.55,2.55,0,0,0-2.5,2.5Z" transform="translate(0.5 0.5)"/><path class="cls-5" d="M262.53,946l3.17,5.55c1.6,2.8,5.92.28,4.32-2.52l-3.17-5.56c-1.6-2.79-5.92-.28-4.32,2.53Z" transform="translate(0.5 0.5)"/><path class="cls-5" d="M276.94,943.74a34.59,34.59,0,0,1,18.56,2.41c2.92,1.27,5.47-3,2.52-4.31a39.05,39.05,0,0,0-21.08-3.1c-3.14.42-3.19,5.42,0,5Z" transform="translate(0.5 0.5)"/><path class="cls-5" d="M306.35,945.08l-3.07,7.66a2.52,2.52,0,0,0,1.75,3.08,2.56,2.56,0,0,0,3.07-1.75l3.07-7.66a2.52,2.52,0,0,0-1.75-3.07,2.54,2.54,0,0,0-3.07,1.74Z" transform="translate(0.5 0.5)"/></svg>