<svg xmlns="http://www.w3.org/2000/svg" viewBox="0 0 191.64 132.36"><defs><style>.cls-1{fill:#4d86c8;}.cls-2{fill:#3d76b7;}.cls-3{fill:#2c0404;}</style></defs><title>Asset 15</title><g id="Layer_2" data-name="Layer 2"><g id="Layer_1-2" data-name="Layer 1"><path class="cls-1" d="M27.61,11.54C43.47,19,61,22.23,78.23,25.35a12.46,12.46,0,0,0,4.78.24,22.15,22.15,0,0,0,4.25-1.85c3.91-1.8,8.38-1.79,12.68-1.95a137.42,137.42,0,0,0,60.4-16.65A6.64,6.64,0,0,1,164.08,4c2,.2,3.27,2.07,4.24,3.79,9.23,16.41,12.47,35.42,15,54.07,2.5,18.28,4.48,36.9,1.48,55.1a6.47,6.47,0,0,1-1,2.9,6.54,6.54,0,0,1-2.54,1.78A103.68,103.68,0,0,1,105,126.32a3.65,3.65,0,0,1-2.05-1.24,3.82,3.82,0,0,1-.37-2.3,235.61,235.61,0,0,0-4.68-60.06c-6.61,8.15-7.73,19.43-7.12,29.91s2.66,21,1.3,31.38a2.83,2.83,0,0,1-.75,1.86,2.91,2.91,0,0,1-1.77.47c-26.67,1.12-54,2.16-79.38-6.28-2.38-.79-4.91-1.81-6.2-4a11,11,0,0,1-1.17-4.59C-.35,79.41,4.2,48.32,13.54,17.63,15.78,10.28,20.31,8.09,27.61,11.54Z"/><path class="cls-2" d="M7.32,50.09a27.3,27.3,0,0,0,11.85,1.24c4-.34,8-2,10.33-5.25,3.41-4.76,2.25-11.29,3.45-17a3.61,3.61,0,0,1,.66-1.63c1-1.24,3-.83,4.51-.34A163.71,163.71,0,0,0,85.46,35a5.82,5.82,0,0,1,3.26.71c1.81,1.26,1.55,4,1.22,6.13s-.13,5,1.94,5.77a5.11,5.11,0,0,0,2,.16l9.73-.53a2.13,2.13,0,0,0,1.61-.55,2,2,0,0,0,.25-1.5c-.27-2.17-1-4.27-1.2-6.45s.4-4.63,2.2-5.88c1.56-1.08,3.62-1,5.52-.95a72.44,72.44,0,0,0,30.16-5.81c1.29-.55,3-1.06,3.9,0a3.27,3.27,0,0,1,.63,1.64c.72,3.88,1.66,7.82,3.86,11.08s5.93,5.77,9.86,5.5c-1.83-.06-2.89,1.39-3.19,3.19a11.9,11.9,0,0,0,.8,5.38,199.9,199.9,0,0,1,8.14,73.41c4.12-2.65,9.45-2.4,13.81-4.61,7-3.56,9.86-12.9,9.53-19-.45-8.11-2.2-13.74-2.09-21.86C187.78,56.17,176,31.85,166.92,9A6.58,6.58,0,0,0,165,6c-2.05-1.52-4.91-.24-7.17.95-11,5.76-23.27,8.54-35.38,11.27-9.18,2.06-18.39,4.13-27.77,4.85C69.82,25,45.27,17.33,21.76,8.94a3.54,3.54,0,0,0-2.38-.26,3.51,3.51,0,0,0-1.69,2c-3.8,8.06-5.29,17-8.39,25.38C7.41,41.13,4.33,49,7.32,50.09Z"/><path class="cls-2" d="M132.64,122.68c.31,2.52.4,5.5-1.54,7.13s-4.77,1-7.17.38l-15-4a10.45,10.45,0,0,1-3.52-1.43c-2.82-2-2.93-6.12-2.81-9.6A415.93,415.93,0,0,0,101.76,70c-.14-1.93-.84-4.41-2.77-4.47-1.54,0-2.53,1.58-3.1,3-6.76,16.86-2.32,35.85-3,54a2.66,2.66,0,0,1-.76,2.15,2.72,2.72,0,0,1-1.39.36l-24.56,1.75c5.34-21.74,1.83-46,12.78-65.5,1.58-2.82,3.78-5.72,7-6.26,2.33-.4,4.65.55,7,.88,3.66.51,7.34-.53,11-1,6.31-.89,9.57.26,12,5.87a205.46,205.46,0,0,1,7.48,20.1A228.13,228.13,0,0,1,132.64,122.68Z"/><path class="cls-3" d="M18.4,9.71C65.18,34.22,120.08,27.64,166.28,5.32c2.61-1.26.33-5.14-2.27-3.88C119.33,23,65.94,29.54,20.68,5.82c-2.57-1.34-4.84,2.54-2.28,3.89Z"/><path class="cls-3" d="M26.83,4.05c-3.09-.27-7.31-.14-9.18,2.75-1.41,2.17-2.06,5.93-2.87,8.37q-1.35,4.08-2.63,8.17a293,293,0,0,0-9,36c-3.9,22.08-5.25,46.19,2,67.71.93,2.73,5.28,1.56,4.34-1.19C2.94,106.29,3.7,84.42,6.89,64.25A264.32,264.32,0,0,1,13.51,34.6Q15.58,27.25,17.93,20q1.17-3.61,2.4-7.23c1.22-3.61,2.57-4.56,6.5-4.21,2.88.25,2.86-4.26,0-4.5Z"/><path class="cls-3" d="M189.73,125.41c.77-12.23,2.44-24.14,1.74-36.44a207.28,207.28,0,0,0-5.23-35.39,309.47,309.47,0,0,0-10.38-34.36C173.13,11.63,170.53.55,161,0c-2.9-.16-2.89,4.34,0,4.5,5.34.31,7.34,7.18,8.94,11.48,1.86,5,3.65,10.07,5.31,15.16a267.86,267.86,0,0,1,8.11,30.1,192.55,192.55,0,0,1,3.83,31.56c.39,11-1.24,21.69-1.92,32.61-.19,2.89,4.32,2.88,4.5,0Z"/><path class="cls-3" d="M97.23,61.35a306.24,306.24,0,0,1,4,62.71c-.11,2.89,4.39,2.89,4.5,0a310.94,310.94,0,0,0-4.16-63.91c-.48-2.84-4.81-1.64-4.33,1.2Z"/><path class="cls-3" d="M95.3,123.73c-2.48-21.45-1.65-43.11,5-63.76.89-2.77-3.45-3.95-4.34-1.2-6.78,21-7.7,43.14-5.18,65,.32,2.84,4.83,2.87,4.5,0Z"/><path class="cls-3" d="M73.71,54.45a64.29,64.29,0,0,0,44.53,1.87c2.75-.88,1.57-5.23-1.2-4.34A60.45,60.45,0,0,1,74.9,50.11c-2.66-1.12-3.83,3.23-1.19,4.34Z"/><path class="cls-3" d="M3.33,119.28c5.9,4,13.24,5.36,20.09,6.8a176.74,176.74,0,0,0,23,3.3,179.74,179.74,0,0,0,47.61-2.83c2.84-.54,1.64-4.88-1.2-4.34A174.46,174.46,0,0,1,48.33,125a167.86,167.86,0,0,1-21.87-2.89c-7-1.4-14.85-2.68-20.86-6.72-2.41-1.62-4.67,2.28-2.27,3.88Z"/><path class="cls-3" d="M102.6,127.84a125.82,125.82,0,0,0,83.94-6.07c2.65-1.15.36-5-2.27-3.88a121,121,0,0,1-80.48,5.61c-2.79-.78-4,3.56-1.19,4.34Z"/><path class="cls-3" d="M111.08,33.34a130,130,0,0,0,54.38-15c2.56-1.35.29-5.24-2.27-3.88a124.73,124.73,0,0,1-52.11,14.42c-2.88.15-2.9,4.65,0,4.5Z"/><path class="cls-3" d="M146.07,25.9c1.11,7.31.8,15.61,8.88,18.48,7.6,2.7,16.08,1.33,23.15-2.14,2.6-1.27.32-5.16-2.27-3.88-5.62,2.76-12.3,3.88-18.42,2.08-3.63-1.07-4.91-3-5.63-6.71-.59-3-.92-6-1.38-9-.43-2.85-4.77-1.64-4.33,1.2Z"/><path class="cls-3" d="M19.92,22.19a14.77,14.77,0,0,0,4.26,3.36,2.3,2.3,0,0,0,3.08-.81,2.27,2.27,0,0,0-.81-3.07A10.49,10.49,0,0,1,23.11,19a2.25,2.25,0,0,0-3.19,3.18Z"/><path class="cls-3" d="M31.66,26.93a99.45,99.45,0,0,0,39.61,9c2.89,0,2.89-4.45,0-4.5a93.8,93.8,0,0,1-37.34-8.38c-2.61-1.19-4.9,2.68-2.27,3.88Z"/><path class="cls-3" d="M30.28,31.1c0,5.41-.31,12.68-5.8,15.3A27.5,27.5,0,0,1,8.22,48.34C5.39,47.88,4.17,52.21,7,52.68c7.06,1.17,15.14.69,21.37-3.24,5.84-3.67,6.33-12.12,6.38-18.34,0-2.9-4.48-2.9-4.5,0Z"/><path class="cls-3" d="M86.62,26q.41,10,.49,20.06a2.29,2.29,0,0,0,2.25,2.25l8.8,0c2.9,0,2.9-4.48,0-4.5l-8.8,0,2.25,2.25Q91.52,36,91.12,26c-.12-2.88-4.62-2.9-4.5,0Z"/><path class="cls-3" d="M100.55,25.34l2.13,16.33c.37,2.83,4.87,2.87,4.5,0l-2.13-16.33c-.37-2.83-4.87-2.87-4.5,0Z"/><path class="cls-3" d="M114.88,121.37a113.85,113.85,0,0,0,49.24-2c2.8-.74,1.61-5.08-1.2-4.34a108.49,108.49,0,0,1-46.85,2c-2.83-.51-4,3.83-1.19,4.34Z"/><path class="cls-3" d="M173.65,118.05l4.1-1.33a2.31,2.31,0,0,0,1.57-2.77,2.28,2.28,0,0,0-2.77-1.57l-4.09,1.33a2.25,2.25,0,1,0,1.19,4.34Z"/><path class="cls-3" d="M14.81,116.8a133.41,133.41,0,0,0,57.74,4c2.86-.42,1.64-4.76-1.2-4.34a128.09,128.09,0,0,1-55.35-4c-2.78-.83-4,3.51-1.19,4.34Z"/></g></g></svg>