<svg id="Layer_1" data-name="Layer 1" xmlns="http://www.w3.org/2000/svg" viewBox="0 0 501 1001"><defs><style>.cls-1{fill:none;stroke:#fff;stroke-miterlimit:10;opacity:0;}.cls-2{fill:#4d86c8;}.cls-3{fill:#3d76b7;}.cls-4{fill:#2c0404;}</style></defs><title>f-bottom1</title><rect class="cls-1" x="0.5" y="0.5" width="500" height="1000"/><path class="cls-2" d="M187.5,585.59c15.86,7.49,33.35,10.69,50.62,13.82a12.45,12.45,0,0,0,4.78.23,20.73,20.73,0,0,0,4.25-1.85c3.91-1.79,8.38-1.79,12.68-1.95a137.15,137.15,0,0,0,60.4-16.65A6.63,6.63,0,0,1,324,578c2,.2,3.27,2.07,4.24,3.79,9.23,16.4,12.47,35.42,15,54.07,2.5,18.27,4.48,36.9,1.48,55.1a4.95,4.95,0,0,1-3.53,4.67,103.74,103.74,0,0,1-76.25,4.73,3.72,3.72,0,0,1-2.05-1.25,3.79,3.79,0,0,1-.37-2.29,235.61,235.61,0,0,0-4.68-60.06c-6.61,8.14-7.73,19.43-7.12,29.9s2.67,21,1.3,31.39a2.81,2.81,0,0,1-.75,1.85,2.85,2.85,0,0,1-1.77.47c-26.67,1.13-54.05,2.16-79.38-6.27-2.38-.79-4.91-1.81-6.2-4a11.1,11.1,0,0,1-1.17-4.6c-3.2-32.1,1.35-63.18,10.69-93.87C175.67,584.34,180.21,582.15,187.5,585.59Z" transform="translate(0.5 0.5)"/><path class="cls-3" d="M167.21,624.15a27.45,27.45,0,0,0,11.85,1.24c4-.35,8-2,10.33-5.25,3.41-4.76,2.25-11.29,3.45-17a3.62,3.62,0,0,1,.66-1.62c1-1.24,3-.84,4.51-.34A164.05,164.05,0,0,0,245.35,609a5.74,5.74,0,0,1,3.26.7c1.81,1.26,1.55,4,1.22,6.14s-.13,5,1.94,5.77a5.13,5.13,0,0,0,2,.16l9.73-.53a2.1,2.1,0,0,0,1.61-.56,2,2,0,0,0,.25-1.49c-.27-2.18-1-4.27-1.2-6.46s.4-4.62,2.2-5.87c1.56-1.08,3.62-1,5.52-1a72.5,72.5,0,0,0,30.17-5.8c1.28-.55,3-1.06,3.89,0a3.27,3.27,0,0,1,.63,1.64c.72,3.88,1.66,7.82,3.86,11.08s5.93,5.76,9.86,5.5c-1.83-.07-2.89,1.39-3.19,3.19a11.9,11.9,0,0,0,.8,5.38,199.84,199.84,0,0,1,8.14,73.4c4.12-2.65,9.45-2.39,13.81-4.61,7-3.55,9.87-12.89,9.53-19-.45-8.11-2.2-13.74-2.08-21.86.34-24.63-11.4-49-20.52-71.82a6.69,6.69,0,0,0-1.9-3c-2.05-1.52-4.91-.23-7.17,1-11,5.77-23.27,8.55-35.38,11.27-9.18,2.07-18.39,4.13-27.77,4.86-24.88,1.91-49.43-5.72-72.94-14.11a3.61,3.61,0,0,0-2.38-.27,3.57,3.57,0,0,0-1.69,2c-3.8,8.06-5.29,17-8.39,25.37C167.3,615.19,164.22,623,167.21,624.15Z" transform="translate(0.5 0.5)"/><path class="cls-3" d="M292.53,696.74c.31,2.52.41,5.49-1.54,7.12s-4.77,1-7.17.39l-14.95-4a10.66,10.66,0,0,1-3.52-1.43c-2.82-2-2.93-6.12-2.81-9.6a418.73,418.73,0,0,0-.88-45.09c-.15-1.92-.85-4.4-2.78-4.46-1.53,0-2.53,1.58-3.1,3-6.76,16.85-2.32,35.85-2.95,54a2,2,0,0,1-2.15,2.51l-24.56,1.74c5.34-21.74,1.83-46,12.78-65.5,1.58-2.82,3.78-5.71,7-6.26,2.33-.4,4.65.56,7,.89,3.67.51,7.34-.53,11-1,6.31-.88,9.57.27,12,5.88a206.25,206.25,0,0,1,7.48,20.09A228.23,228.23,0,0,1,292.53,696.74Z" transform="translate(0.5 0.5)"/><path class="cls-4" d="M178.29,583.77c46.78,24.51,101.68,17.92,147.88-4.39,2.61-1.26.33-5.14-2.27-3.89-44.68,21.58-98.07,28.11-143.33,4.39-2.57-1.34-4.84,2.54-2.28,3.89Z" transform="translate(0.5 0.5)"/><path class="cls-4" d="M186.72,578.1c-3.09-.27-7.31-.14-9.18,2.76-1.41,2.17-2.06,5.93-2.87,8.37q-1.35,4.08-2.63,8.17a293.28,293.28,0,0,0-9,36c-3.9,22.09-5.25,46.19,2,67.72.93,2.73,5.28,1.56,4.34-1.2-6.62-19.55-5.86-41.43-2.67-61.59a263.82,263.82,0,0,1,6.62-29.65q2.07-7.35,4.42-14.61,1.17-3.63,2.4-7.23c1.22-3.62,2.57-4.56,6.5-4.22,2.88.25,2.86-4.25,0-4.5Z" transform="translate(0.5 0.5)"/><path class="cls-4" d="M349.62,699.47c.77-12.24,2.44-24.14,1.74-36.44a208.26,208.26,0,0,0-5.22-35.39,312.49,312.49,0,0,0-10.39-34.37c-2.73-7.58-5.33-18.66-14.9-19.21-2.9-.16-2.89,4.34,0,4.5,5.34.31,7.34,7.17,8.94,11.47,1.86,5,3.65,10.08,5.31,15.17a267.86,267.86,0,0,1,8.11,30.1A192.43,192.43,0,0,1,347,666.85c.39,11-1.23,21.7-1.92,32.62-.19,2.89,4.32,2.88,4.5,0Z" transform="translate(0.5 0.5)"/><path class="cls-4" d="M257.12,635.41a306.19,306.19,0,0,1,4,62.7c-.11,2.9,4.39,2.9,4.5,0a311.54,311.54,0,0,0-4.15-63.9c-.49-2.85-4.82-1.64-4.34,1.2Z" transform="translate(0.5 0.5)"/><path class="cls-4" d="M255.19,697.78c-2.48-21.44-1.65-43.1,5-63.76.89-2.76-3.45-3.94-4.34-1.19-6.78,21-7.7,43.14-5.18,64.95.33,2.85,4.83,2.88,4.5,0Z" transform="translate(0.5 0.5)"/><path class="cls-4" d="M233.6,628.5a64.23,64.23,0,0,0,44.53,1.87c2.75-.88,1.57-5.22-1.2-4.34a60.31,60.31,0,0,1-42.13-1.87c-2.67-1.11-3.84,3.24-1.2,4.34Z" transform="translate(0.5 0.5)"/><path class="cls-4" d="M163.22,693.34c5.9,4,13.24,5.35,20.09,6.8a176.72,176.72,0,0,0,23,3.29,179.31,179.31,0,0,0,47.61-2.82c2.84-.55,1.64-4.88-1.2-4.34a175.37,175.37,0,0,1-44.52,2.8,169.59,169.59,0,0,1-21.87-2.89c-7-1.4-14.85-2.68-20.86-6.72-2.41-1.62-4.67,2.27-2.27,3.88Z" transform="translate(0.5 0.5)"/><path class="cls-4" d="M262.49,701.89a125.82,125.82,0,0,0,83.94-6.06c2.65-1.15.36-5-2.27-3.88a120.89,120.89,0,0,1-80.48,5.6c-2.79-.77-4,3.57-1.19,4.34Z" transform="translate(0.5 0.5)"/><path class="cls-4" d="M271,607.4a130.15,130.15,0,0,0,54.38-15c2.56-1.36.29-5.24-2.27-3.88A124.88,124.88,0,0,1,271,602.9c-2.88.15-2.9,4.65,0,4.5Z" transform="translate(0.5 0.5)"/><path class="cls-4" d="M306,600c1.11,7.31.8,15.61,8.88,18.48,7.6,2.7,16.08,1.33,23.15-2.14,2.6-1.28.32-5.16-2.27-3.89-5.62,2.76-12.3,3.89-18.42,2.09-3.63-1.07-4.91-3-5.63-6.72-.59-3-.92-6-1.37-9s-4.78-1.64-4.34,1.2Z" transform="translate(0.5 0.5)"/><path class="cls-4" d="M179.81,596.25a14.77,14.77,0,0,0,4.26,3.36,2.31,2.31,0,0,0,3.08-.81,2.27,2.27,0,0,0-.81-3.08,10.32,10.32,0,0,1-3.34-2.65,2.28,2.28,0,0,0-3.19,0,2.3,2.3,0,0,0,0,3.18Z" transform="translate(0.5 0.5)"/><path class="cls-4" d="M191.55,601a99.27,99.27,0,0,0,39.61,9c2.89.06,2.89-4.44,0-4.5a93.8,93.8,0,0,1-37.34-8.38c-2.61-1.19-4.9,2.69-2.27,3.89Z" transform="translate(0.5 0.5)"/><path class="cls-4" d="M190.17,605.15c0,5.42-.31,12.68-5.8,15.31a27.5,27.5,0,0,1-16.26,1.94c-2.83-.47-4.05,3.87-1.19,4.34,7.06,1.17,15.14.68,21.37-3.24,5.84-3.67,6.33-12.13,6.38-18.35,0-2.89-4.48-2.9-4.5,0Z" transform="translate(0.5 0.5)"/><path class="cls-4" d="M246.51,600.07q.41,10,.49,20a2.28,2.28,0,0,0,2.25,2.25l8.8,0c2.9,0,2.9-4.49,0-4.5l-8.8,0,2.25,2.25q-.09-10-.49-20c-.12-2.89-4.62-2.9-4.5,0Z" transform="translate(0.5 0.5)"/><path class="cls-4" d="M260.44,599.4l2.13,16.33c.37,2.83,4.87,2.87,4.5,0l-2.13-16.33c-.37-2.83-4.87-2.87-4.5,0Z" transform="translate(0.5 0.5)"/><path class="cls-4" d="M274.77,695.42a113.69,113.69,0,0,0,49.24-2c2.8-.73,1.61-5.07-1.2-4.33a108.49,108.49,0,0,1-46.85,2c-2.83-.5-4,3.83-1.19,4.34Z" transform="translate(0.5 0.5)"/><path class="cls-4" d="M333.54,692.1l4.1-1.32a2.31,2.31,0,0,0,1.57-2.77,2.27,2.27,0,0,0-2.77-1.57l-4.09,1.32a2.31,2.31,0,0,0-1.58,2.77,2.27,2.27,0,0,0,2.77,1.57Z" transform="translate(0.5 0.5)"/><path class="cls-4" d="M174.7,690.85a133.42,133.42,0,0,0,57.74,4c2.86-.43,1.64-4.76-1.19-4.34a128.27,128.27,0,0,1-55.36-4c-2.78-.83-4,3.51-1.19,4.33Z" transform="translate(0.5 0.5)"/></svg>