<svg xmlns="http://www.w3.org/2000/svg" viewBox="0 0 287.67 237.54"><defs><style>.cls-1{fill:#f4cc3a;}.cls-2{fill:#e6b12b;}.cls-3{fill:#2c0404;}.cls-4{fill:#fff;}.cls-5{fill:#300908;}</style></defs><title>Asset 14</title><g id="Layer_2" data-name="Layer 2"><g id="Layer_1-2" data-name="Layer 1"><path class="cls-1" d="M46.68,41.68A114.43,114.43,0,0,1,79.39,20.4c11.89-5.09,24.63-8.15,36.14-14a1.6,1.6,0,0,1,.78-.23c.72.07.9,1,.89,1.75a97,97,0,0,0,5.13,32.27c1.27,3.74,2.76,7.39,4.38,11C131,60.56,136,69.56,141.12,78.54c2.66,4.69,5.48,9.57,10,12.47,5.36-9,4.33-20.55,8.73-30.07,2.49-5.41,6.63-9.91,9.34-15.2,6.17-12.05,4.29-26.41,4.91-39.93a2.25,2.25,0,0,1,.36-1.35c.61-.74,1.79-.42,2.67,0l34.36,14.71a43.21,43.21,0,0,1,6.09,3.4,30.87,30.87,0,0,0,13.77,5.2C260.7,52.63,281,88.83,285.92,127c.55,4.24.87,8.79-1.16,12.56-1.64,3-5.14,5.42-8,7.39,0,0-4.47-8.81-4.64-14.09,0-.81-4.27.27-4.93-.21-.88-.63-2.1-.08-3,.48a69.57,69.57,0,0,0-21.14,20.28,141.31,141.31,0,0,1,4.16,15.47c-3.16,2-7.05,4.12-10.46,2.55-2.82-1.3-4.06-4.57-4.93-7.55a165.4,165.4,0,0,1-6.05-31.81l-13.4,21.71a22.78,22.78,0,0,0-3,6.22c-.47,1.85-.47,3.81-1.09,5.62-1.71,4.95-7.66,7.3-12.88,6.83s-10-3-14.79-5.09-10.24-3.64-15.25-2.09c-2.89.9-5.58,3.07-6.21,6-1.6,7.55,10.07,12.38,9.81,20.09-.08,2.53-1.49,4.8-2.86,6.93L152.58,219.4c-4.56-6.5-6.4-14.52-7.54-22.38-.42-2.92-.79-5.93-2.26-8.49s-4.36-4.55-7.25-4c-3.8.75-5.6,5.47-4.83,9.28s3.25,7,5.17,10.35c4.63,8.12,5.58,19.54-1.19,26a60.89,60.89,0,0,0-13.2-20.24c-2.1-2.12-4.41-4.16-5.62-6.88-2-4.57-.49-10,2.15-14.24s6.28-7.79,9-12a4.08,4.08,0,0,0,.88-3.15,4.35,4.35,0,0,0-2.06-2.18L118,166.39c-5.66,5.32-15.92,5.88-22.39,1.6S85,156.7,81.52,149.76c-5.13-10.19-9.51-21.29-8.65-32.67-3.88,2.46-5.81,7-7.31,11.36a156.58,156.58,0,0,0-7.18,30.11c-1.58-.42-2.22-2.26-2.75-3.81-2.46-7.21-7.58-13.28-13.51-18.06s-12.71-8.39-19.44-12a21.7,21.7,0,0,1,.12,16.78A2.47,2.47,0,0,1,21.62,143a2.52,2.52,0,0,1-2.17-.52A37.27,37.27,0,0,1,7.32,130.17a11.47,11.47,0,0,1-2.06-6.1c0-2.18,1.15-4.19,2-6.2,2-4.8,2.66-10,3.68-15.12C15.6,79.52,29.32,57.81,46.68,41.68Z"/><path class="cls-2" d="M180.83,8.68c4.58,15.11-1.46,31.23-8.09,45.55-3.33,7.19-7.19,14.7-14,18.68-.84-12.73,7.86-23.82,12.59-35.67a60.05,60.05,0,0,0,4.25-22.71c0-1.8-1.15-6.74.19-8.32C177.81,3.74,180.11,6.32,180.83,8.68Z"/><path class="cls-2" d="M113.17,52.83c4,9.84,11.51,19.5,22,20.82a2,2,0,0,0,1.32-.15c.75-.46.66-1.55.45-2.4-4-16.08-17.51-29-19.48-45.43-.81-6.68.39-13.42,1.57-20,.05-.27-4.86,1.79-5.28,2.1a12.47,12.47,0,0,0-3.34,3.56c-1.9,3.47-1.9,8.69-2.1,12.55A68.41,68.41,0,0,0,113.17,52.83Z"/><path class="cls-2" d="M106.61,66.23c8.85,8.91,17.6,18,24.94,28.15s13.26,21.56,15.87,33.84c1-2.88.91-6,.77-9.09l-.65-13.65a43.75,43.75,0,0,0-1.48-11.12c-1.83-5.84-6-10.62-10.06-15.2-2.93-3.32-5.86-6.64-9-9.73A90.29,90.29,0,0,0,99.07,51c-4.07-1.71-12.45-4.58-5.94,1.9C97.62,57.32,102.15,61.74,106.61,66.23Z"/><path class="cls-2" d="M24.59,129.82a4.38,4.38,0,0,0-.79-2.75,4.52,4.52,0,0,0-1.64-1.1,27.3,27.3,0,0,0-13-2.39,5.47,5.47,0,0,0-3.38,1.06c-1.81,1.59-1.16,4.52-.12,6.68A31,31,0,0,0,10.05,138c2.37,2.75,7.82,7.18,11.43,4C24,139.76,24.7,132.9,24.59,129.82Z"/><path class="cls-2" d="M125,199.2c.74,5.05,2.18,10.28,5.8,13.88,1.73,1.74,4,3.09,5,5.3s.85,4.63,2.19,6.51c3.22-6.11,1-13.63-2-19.83s-6.93-12.35-7.14-19.24c-.06-2,.51-5.66-2-5.49-1.34.09-3.33,3.17-3.65,4.35C122.23,188.55,124.45,195.25,125,199.2Z"/><path class="cls-2" d="M157.79,186.52a17.73,17.73,0,0,0-5.69,10.83c-.66,5.11.92,10.4-.34,15.39-1.06.31-1.91-.87-2.38-1.87q-2.24-4.78-4.18-9.71a15.1,15.1,0,0,1-1.46-6.49c.27-3.83,3.2-6.87,5.95-9.55l6.9-6.7a3.49,3.49,0,0,1,1.67-1.08,3.39,3.39,0,0,1,1.9.43c1.89.83,6.79,2.91,4.82,5.62C163.82,185,159.57,184.91,157.79,186.52Z"/><path class="cls-2" d="M103.1,166.66a6.86,6.86,0,0,0,1.51,2.45c1.67,1.55,4.29,1.22,6.53.78a7.12,7.12,0,0,0,3.45-1.33,4.8,4.8,0,0,0,1.29-4.35,13.63,13.63,0,0,0-1.81-4.36c-2.78-4.9-5.75-9.7-8.18-14.79-1.55-3.27-2.83-12.33-6-13.84C94.93,140.57,99.21,157.56,103.1,166.66Z"/><path class="cls-2" d="M210.88,131.29c-6.88,11-14.73,21.92-17.54,34.62-.34,1.5-.54,3.27.48,4.43a5.28,5.28,0,0,0,2.74,1.33c3.69,1,8.15,1.76,10.89-.9,1.49-1.45,2.05-3.57,2.54-5.59,1.56-6.51,3-13.1,5.62-19.26,2.5-5.84,6-11.19,8.38-17.11a45.19,45.19,0,0,0,3.09-16.3c0-1.67-.36-14.87-3.9-12.82-.75.44-1.05,6.66-1.32,7.77a55.73,55.73,0,0,1-2.67,8.14A104.59,104.59,0,0,1,210.88,131.29Z"/><path class="cls-2" d="M220.43,68.83c2.19-4.14,5.37-7.66,8.52-11.13,4.35-4.8,9.09-9.85,15.39-11.37,1.28-.31,3.09-.13,3.29,1.17a2.55,2.55,0,0,1-1.17,2.08c-1.94,1.68-4.07,3.14-6.07,4.75C230,62.61,224.86,73.65,221.71,86.18,216,81.89,217.41,74.52,220.43,68.83Z"/><path class="cls-2" d="M68.38,80C66,98.54,55.6,114.86,48,131.9a11.16,11.16,0,0,0-1.32,4.87,10.8,10.8,0,0,0,.93,3.51,82,82,0,0,0,9.72,17.64c1.91-2.88,2.35-6.47,2.78-9.9,1-7.72,2.2-15.64,6.2-22.32,1.6-2.66,3.6-5.07,5.16-7.76,3.42-5.88,4.57-12.87,4.39-19.68s-1.61-13.52-3-20.17c-1.13-5.33-1.69-11.46-3.7-16.48C68,67.44,69.16,74,68.38,80Z"/><path class="cls-2" d="M119.56,34.06c1.2,6.14,3.75,11.92,6.39,17.6q5.79,12.44,12.21,24.58A35.49,35.49,0,0,0,126.4,61.32c-2.26-1.64-4.73-3-6.66-5-2.43-2.53-3.84-5.87-5-9.19a80.78,80.78,0,0,1-4.07-19.81,41.36,41.36,0,0,1,.61-12.06c.42-1.93,2.63-10.13,5.38-10C119.84,5.46,118.85,30.46,119.56,34.06Z"/><path class="cls-2" d="M126.49,82.31c9.89,11.42,18,24.74,21.28,39.48A55.12,55.12,0,0,0,137.09,80a46.29,46.29,0,0,0-10.27-9.88c-4.8-3.31-10.27-5.52-15.13-8.75-1.51-1-11.41-11-12.29-5.47-.4,2.48,11,10.31,13.11,12.2A177.21,177.21,0,0,1,126.49,82.31Z"/><path class="cls-2" d="M236.57,88.93c.77,4.87,2.45,9.53,3.94,14.22a186.4,186.4,0,0,1,7.28,33.52c.47,3.82.81,7.73-.1,11.47-.74,3.06-3.83,4.84-3.31,7.94.74,4.49,2.56,8.38,2.5,12.08a3.85,3.85,0,0,1-.57,2.21c-.74,1-2.14,1.28-3.39,1.45-2.43.33-5.11.61-7.14-.75-2.19-1.46-2.9-4.31-3.39-6.89A272.11,272.11,0,0,1,227.55,115a60.74,60.74,0,0,0-.68-11.2c-1.08-5.69-3.94-11.09-3.8-16.88.1-4.52,2-8.76,3.92-12.86,4.11-8.91,8.69-18.36,17.16-23.31,1.08-.64,1.95-1.07,3.08-.68-.55,2.92-3.58,6.3-5,9.08a61.2,61.2,0,0,0-3.91,9.57A44.84,44.84,0,0,0,236.57,88.93Z"/><path class="cls-2" d="M204,15.49,213.1,35.9c1.27,2.85,2.57,5.84,2.38,9-.24,3.84-2.74,7.22-5.78,9.58s-6.61,3.88-10,5.67a72.72,72.72,0,0,0-37.07,50.21c-2.85,15.24-.82,31.59-7.09,45.77a54.13,54.13,0,0,0-3,7.08c3.82.7,6.68,5.64,6.52,9.52s-2.3,7.4-4.76,10.42c0-4.21-4.17-7.21-8.22-8.37s-8.47-1.3-12.06-3.49a3.11,3.11,0,0,1-1.11-1,2.44,2.44,0,0,1,.94-2.91,14.77,14.77,0,0,1,3-1.41c5.71-2.56,7.22-9.83,7.89-16.05Q147.47,125,148.22,100a40.06,40.06,0,0,1,1.27-10.71A32.56,32.56,0,0,1,153.77,81a100,100,0,0,1,47.55-37.8,5.14,5.14,0,0,0,2.62-1.65c.83-1.25.37-2.93-.15-4.34a83.44,83.44,0,0,0-16-26.6A42.71,42.71,0,0,1,204,15.49Z"/><path class="cls-3" d="M261.68,65.58a128.45,128.45,0,0,1,21.28,61c.23,2.87,4.73,2.89,4.5,0a133,133,0,0,0-21.9-63.31c-1.6-2.4-5.5-.15-3.88,2.27Z"/><path class="cls-3" d="M236,171a64.68,64.68,0,0,1,50-43c2.85-.5,1.64-4.83-1.19-4.34a69.15,69.15,0,0,0-53.16,46.11c-.91,2.76,3.43,3.94,4.34,1.2Z"/><path class="cls-3" d="M283.11,125.59a25.41,25.41,0,0,1-8.24,20.73c-2.12,2,1.07,5.15,3.19,3.18a29.81,29.81,0,0,0,9.55-23.91c-.18-2.87-4.68-2.9-4.5,0Z"/><path class="cls-3" d="M233.94,173.25c4.26,1.54,8.57.16,12.58-1.46,2.65-1.07,1.49-5.42-1.2-4.34-3.26,1.32-6.69,2.73-10.18,1.46-2.73-1-3.9,3.36-1.2,4.34Z"/><path class="cls-3" d="M235.59,169.57a212.9,212.9,0,0,1-5-41.94c-.05-2.89-4.55-2.9-4.5,0a218.79,218.79,0,0,0,5.13,43.13c.63,2.83,5,1.63,4.34-1.19Z"/><path class="cls-3" d="M227.24,91c-4.91-19.52,11.7-33.91,26.94-42.32,2.53-1.4.27-5.29-2.27-3.89-17.15,9.46-34.43,25.85-29,47.4.71,2.81,5,1.62,4.34-1.19Z"/><path class="cls-3" d="M256.6,54.21a9.71,9.71,0,0,1,1.49,2.86,2.25,2.25,0,1,0,4.33-1.19,13.88,13.88,0,0,0-1.93-3.94,2.25,2.25,0,1,0-3.89,2.27Z"/><path class="cls-3" d="M204.89,18.67c9.29,3.06,17.77,7.88,26.21,12.76,7.55,4.37,15,9,19.67,16.67,1.5,2.47,5.39.22,3.88-2.27-4.76-7.84-12.18-13-20-17.52-9.18-5.37-18.47-10.64-28.6-14-2.76-.91-3.94,3.43-1.2,4.34Z"/><path class="cls-3" d="M213.89,76.6C224.14,89.41,228.11,109,224.55,125c-1.86,8.35-8,15.15-11.69,22.72a99.06,99.06,0,0,0-8,23.22c-.6,2.83,3.74,4,4.34,1.2a93.7,93.7,0,0,1,10.36-27.44c4.62-8,9.22-14.57,10.14-24,1.62-16.59-2.12-34.09-12.65-47.25-1.8-2.26-5,.94-3.18,3.19Z"/><path class="cls-3" d="M174,4.87A43.92,43.92,0,0,1,192.2,19.49c4.84,6.84,7.92,15.13,11.47,22.67,1.23,2.62,5.11.34,3.88-2.27-3.92-8.33-7.27-17.41-13-24.72A47.9,47.9,0,0,0,176.22,1C173.59-.19,171.3,3.69,174,4.87Z"/><path class="cls-3" d="M203.54,39.46c-27.69,6.64-46.38,29.56-56,55.3-1,2.72,3.33,3.89,4.34,1.2,9.06-24.29,26.73-45.9,52.84-52.16,2.81-.68,1.62-5-1.2-4.34Z"/><path class="cls-3" d="M118.15,6.18C107.43,37.93,136,66.78,148.58,93.49c1.23,2.62,5.12.34,3.89-2.27-6.42-13.6-15.18-25.88-22.14-39.18-7.46-14.23-13.22-28.72-7.84-44.67.93-2.75-3.41-3.93-4.34-1.19Z"/><path class="cls-3" d="M172.1,3.59C175,19.67,171.91,34.24,164,48.4a146.35,146.35,0,0,0-15.39,40c-.62,2.82,3.72,4,4.34,1.19a138.38,138.38,0,0,1,6.88-22.52c3.2-7.87,7.61-15,11.36-22.57,6.51-13.17,7.75-27.78,5.21-42.13-.51-2.85-4.85-1.64-4.34,1.2Z"/><path class="cls-3" d="M134.3,61.78a185.76,185.76,0,0,0,24.52.28c2.88-.16,2.9-4.66,0-4.5a185.76,185.76,0,0,1-24.52-.28c-2.89-.23-2.88,4.27,0,4.5Z"/><path class="cls-3" d="M120.78.59c-15,13.19-27.55,28.86-34.69,47.64-1,2.71,3.31,3.89,4.33,1.2,6.86-18,19.18-33,33.54-45.66,2.18-1.92-1-5.09-3.18-3.18Z"/><path class="cls-3" d="M90.36,52.08c12.86,1.45,23,10.27,32.41,18.34,8.93,7.61,19.73,14.9,25.56,25.33,1.42,2.53,5.31.26,3.89-2.27-6.56-11.72-18.83-20-28.89-28.48-9.72-8.21-20-16-33-17.42-2.87-.32-2.85,4.18,0,4.5Z"/><path class="cls-3" d="M62.23,32.87A239.51,239.51,0,0,1,116.82,8.16c2.76-.85,1.58-5.2-1.2-4.34A244.78,244.78,0,0,0,60,29c-2.46,1.51-.2,5.41,2.28,3.89Z"/><path class="cls-3" d="M48.29,36.86A127.18,127.18,0,0,0,5.9,118.76c-.31,2.87,4.2,2.85,4.5,0A122.53,122.53,0,0,1,51.48,40.05c2.18-1.92-1-5.09-3.19-3.19Z"/><path class="cls-3" d="M21,95.65c-3,11-11.14,18.22-19.66,25.24-2.24,1.85,1,5,3.18,3.19,9.18-7.57,17.6-15.39,20.82-27.24.76-2.8-3.58-4-4.34-1.19Z"/><path class="cls-3" d="M.29,125.68a47.78,47.78,0,0,0,18.92,19c2.54,1.4,4.81-2.49,2.27-3.89a43.4,43.4,0,0,1-17.3-17.41c-1.39-2.54-5.27-.27-3.89,2.27Z"/><path class="cls-3" d="M4.64,127.17a47.5,47.5,0,0,1,51.28,34c.81,2.77,5.15,1.59,4.34-1.2A52,52,0,0,0,4.64,122.67c-2.85.32-2.88,4.82,0,4.5Z"/><path class="cls-3" d="M52.92,162.38l4.45.35a2.27,2.27,0,0,0,2.25-2.25,2.29,2.29,0,0,0-2.25-2.25l-4.45-.35a2.27,2.27,0,0,0-2.25,2.25,2.3,2.3,0,0,0,2.25,2.25Z"/><path class="cls-3" d="M60.43,159.27a92.33,92.33,0,0,1,14.19-42.08c1.55-2.46-2.34-4.72-3.89-2.27a97.23,97.23,0,0,0-14.8,44.35c-.23,2.89,4.27,2.87,4.5,0Z"/><path class="cls-3" d="M50.39,40.13c12.2,8.11,19.26,21.47,22.2,35.56,3.54,17,.07,33.39.12,50.41A57.33,57.33,0,0,0,85.52,162c3.73,4.59,8.6,9.75,14.53,11.29,6.11,1.59,12.16-1.13,17.58-3.68,2.62-1.24.34-5.12-2.27-3.89-3.54,1.67-7.47,3.59-11.49,3.54-4.44,0-7.84-2.8-10.87-5.74A52.31,52.31,0,0,1,81.59,147c-6.35-14.4-3.52-28.94-2.83-44.06,1.14-24.75-4.08-52.06-26.1-66.7-2.42-1.61-4.68,2.28-2.27,3.88Z"/><path class="cls-3" d="M162,171.09c6.66-3.82,11.4-4,18.31-.85a47.66,47.66,0,0,0,13.71,4c3.34.42,17.08,2,14.89-5-.86-2.76-5.21-1.58-4.34,1.19-.27-.86-11.47-.8-12.78-1.06-4.46-.88-8.31-2.86-12.49-4.56-7.08-2.88-13.11-1.35-19.57,2.36-2.51,1.44-.25,5.33,2.27,3.88Z"/><path class="cls-3" d="M128.43,164.66c-11.1,11.93,5.81,29.63,19.3,25.32,7.18-2.28,11.72-10.63,13.23-17.6s-7.06-10.2-12.7-11c-2.87-.38-2.84,4.12,0,4.5,2.16.29,6.51,1.3,7.81,3.42,1.08,1.76-.19,4.2-.84,5.84-1.72,4.36-4.4,9.46-9.39,10.69-8.88,2.2-22-9.68-14.22-18,2-2.12-1.21-5.31-3.19-3.18Z"/><path class="cls-3" d="M124.61,177.2c-7.68,6.68-13.63,18.26-11,28.67,1.26,5,4.94,8.46,8.83,11.5,4.84,3.8,13.4,9.74,8.69,16.87-1.61,2.42,2.29,4.68,3.88,2.27,5.73-8.67-2.07-16.67-8.64-21.75-6.27-4.84-9.91-9.75-8.31-18a28.92,28.92,0,0,1,9.74-16.32c2.19-1.91-1-5.08-3.18-3.19Z"/><path class="cls-3" d="M136.85,233.17a27.08,27.08,0,0,0,4.25-21.33,29,29,0,0,0-4.71-10.13c-2.15-3.16-7.9-11.42-1.62-14,2.64-1.1,1.48-5.45-1.19-4.34-7.06,2.94-7,11-3.59,16.84,2.64,4.56,6,8.22,6.94,13.6a22.83,22.83,0,0,1-4,17.12c-1.65,2.39,2.25,4.64,3.89,2.27Z"/><path class="cls-3" d="M143.88,188.91c-2.38,6.2-.64,12.34,1.94,18.19,1.53,3.47,3.38,6.89,4.17,10.63,1.1,5.19-.66,9.56-3.32,14-1.49,2.49,2.39,4.75,3.89,2.27,3.64-6,5.35-12.13,3.34-19.07-2.38-8.21-9.1-15.88-5.68-24.79,1-2.71-3.31-3.88-4.34-1.2Z"/><path class="cls-3" d="M153.84,228c2-6,4-12.11,7.11-17.71,2.64-4.8,7-8.55,9.37-13.45,4.6-9.46-2.85-18.23-10.4-23.12-2.43-1.58-4.69,2.32-2.27,3.89,4.68,3,9.73,7.39,9.54,13.55-.16,4.86-4.31,8.17-7,11.83-5.15,7.11-8,15.57-10.73,23.81-.92,2.76,3.42,3.94,4.34,1.2Z"/><path class="cls-3" d="M132.91,167c13.42,1,15-15.94,16.19-25.48,2-15.66,2.19-31.47,2.35-47.24,0-2.89-4.47-2.9-4.5,0-.12,11.92-.25,23.84-1.17,35.73-.48,6.21-1.18,12.4-2.24,18.54-1,6-2.84,14.53-10.63,14-2.89-.21-2.88,4.29,0,4.5Z"/><path class="cls-4" d="M32.71,80.41a108.35,108.35,0,0,1,15.06-24c1.83-2.21-1.33-5.41-3.18-3.18A112.37,112.37,0,0,0,28.83,78.14c-1.2,2.61,2.67,4.9,3.88,2.27Z"/><path class="cls-4" d="M83.18,110.38a46.79,46.79,0,0,0,2.35,38.23c1.33,2.57,5.21.3,3.88-2.27a42.43,42.43,0,0,1-1.89-34.77c1-2.71-3.33-3.88-4.34-1.19Z"/><path class="cls-4" d="M91.79,157.53l2.41,2.7a2.26,2.26,0,0,0,3.18,0,2.3,2.3,0,0,0,0-3.18L95,154.35a2.26,2.26,0,0,0-3.18,0,2.3,2.3,0,0,0,0,3.18Z"/><path class="cls-5" d="M189,139.75c-1.83,7.72-8.28,13.92-14.47,18.52a70.84,70.84,0,0,1-7.9,5.26c-3.16,1.75-6.85,2.46-9.82,4.46a.76.76,0,0,0,.18,1.36c7,1.56,15.08-5,19.72-9.56,5.79-5.71,11.94-11.36,13.16-19.8.08-.55-.73-.81-.87-.24Z"/><path class="cls-5" d="M164.46,134.22c-.74,6.37-1.72,12.87-5.34,18.31-2.81,4.21-6.31,7.43-10,10.81a1.18,1.18,0,0,0,1.14,2c12-4.06,14.58-20.2,15.15-31.08,0-.61-.87-.58-.93,0Z"/><path class="cls-5" d="M120.28,133.91c1.17,10.67,5.34,26.72,17.07,30.47.93.3,1.51-.91.91-1.57-3.79-4.12-8-7.15-11-12a46,46,0,0,1-6-17c-.09-.53-1-.42-1,.13Z"/><path class="cls-5" d="M100.35,122a46.12,46.12,0,0,0,4.14,29.16c3.67,7.06,10.88,16.8,19.05,18.74a1,1,0,0,0,1-1.73C122,165,118.28,163,115.4,160.1a50.86,50.86,0,0,1-7.79-9.87,43.1,43.1,0,0,1-6.11-28.07c.08-.65-1-.81-1.15-.16Z"/></g></g></svg>