<svg id="Layer_1" data-name="Layer 1" xmlns="http://www.w3.org/2000/svg" viewBox="0 0 501 1001"><defs><style>.cls-1{fill:none;stroke:#fff;stroke-miterlimit:10;opacity:0;}.cls-2{fill:#f4cc3a;}.cls-3{fill:#e6b12b;}.cls-4{fill:#2c0404;}.cls-5{fill:#fff;}.cls-6{fill:#300908;}</style></defs><title>f-tops1</title><rect class="cls-1" x="0.5" y="0.5" width="500" height="1000"/><path class="cls-2" d="M150.61,415.4a114.13,114.13,0,0,1,32.72-21.28c11.88-5.1,24.62-8.16,36.14-14a1.43,1.43,0,0,1,.77-.22c.73.06.91,1,.9,1.75a97.18,97.18,0,0,0,5.12,32.26c1.27,3.74,2.77,7.39,4.38,11,4.24,9.41,9.33,18.41,14.42,27.4,2.65,4.69,5.47,9.56,10,12.46,5.36-9,4.33-20.55,8.73-30.07,2.5-5.41,6.63-9.9,9.34-15.2,6.17-12.05,4.3-26.4,4.92-39.93a2.25,2.25,0,0,1,.36-1.35c.61-.73,1.78-.42,2.66,0l34.37,14.71a42.49,42.49,0,0,1,6.08,3.39,30.87,30.87,0,0,0,13.77,5.2c29.33,24.92,49.63,61.12,54.55,99.29.55,4.24.87,8.79-1.16,12.55-1.63,3-5.14,5.43-8,7.39,0,0-4.47-8.81-4.64-14.09,0-.81-4.28.27-4.94-.2-.88-.63-2.1-.09-3,.48A69.39,69.39,0,0,0,347,527.12a145.46,145.46,0,0,1,4.16,15.48c-3.17,2-7.06,4.11-10.47,2.54-2.82-1.29-4.05-4.57-4.93-7.55a166.21,166.21,0,0,1-6.05-31.8l-13.39,21.7a22.81,22.81,0,0,0-3,6.22c-.47,1.86-.47,3.82-1.09,5.62-1.7,5-7.66,7.3-12.88,6.83s-10-3-14.79-5.08S274.3,537.43,269.3,539c-2.89.9-5.59,3.07-6.22,6-1.6,7.54,10.07,12.37,9.82,20.08-.09,2.53-1.5,4.8-2.87,6.94l-13.52,21.08c-4.56-6.51-6.39-14.52-7.53-22.39-.43-2.91-.8-5.93-2.26-8.48s-4.36-4.56-7.26-4c-3.8.74-5.59,5.47-4.83,9.27s3.25,7,5.17,10.35c4.64,8.13,5.58,19.54-1.19,26a60.54,60.54,0,0,0-13.2-20.23c-2.1-2.12-4.4-4.17-5.62-6.89-2-4.57-.49-10,2.15-14.24s6.29-7.79,9-12a4.07,4.07,0,0,0,.87-3.15,4.28,4.28,0,0,0-2.06-2.18l-7.82-5.08c-5.66,5.32-15.92,5.89-22.39,1.6s-10.58-11.29-14.07-18.22c-5.12-10.2-9.51-21.3-8.65-32.67-3.88,2.45-5.81,7-7.31,11.36a155.55,155.55,0,0,0-7.17,30.1c-1.59-.42-2.23-2.25-2.76-3.8-2.45-7.22-7.57-13.29-13.51-18.06s-12.71-8.39-19.44-12a21.7,21.7,0,0,1,.12,16.78,2.5,2.5,0,0,1-1.18,1.47,2.56,2.56,0,0,1-2.17-.53,37.43,37.43,0,0,1-12.13-12.27,11.49,11.49,0,0,1-2.06-6.1c.06-2.19,1.15-4.19,2-6.21,2-4.79,2.65-10,3.68-15.11C119.53,453.23,133.26,431.53,150.61,415.4Z" transform="translate(0.5 0.5)"/><path class="cls-3" d="M284.76,382.39c4.59,15.11-1.46,31.23-8.09,45.56-3.32,7.18-7.19,14.7-14,18.67-.84-12.73,7.86-23.82,12.59-35.66a59.87,59.87,0,0,0,4.25-22.72c0-1.8-1.14-6.74.19-8.32C281.74,377.46,284,380,284.76,382.39Z" transform="translate(0.5 0.5)"/><path class="cls-3" d="M217.1,426.54c4,9.84,11.51,19.51,22,20.82a2.08,2.08,0,0,0,1.33-.14c.74-.46.65-1.56.44-2.4-4-16.09-17.5-29-19.48-45.44-.8-6.68.39-13.42,1.58-20,.05-.27-4.87,1.79-5.29,2.1a12.56,12.56,0,0,0-3.33,3.56c-1.91,3.47-1.91,8.69-2.1,12.55A68.4,68.4,0,0,0,217.1,426.54Z" transform="translate(0.5 0.5)"/><path class="cls-3" d="M210.55,440c8.84,8.9,17.59,18,24.93,28.15s13.26,21.56,15.87,33.83c1-2.88.91-6,.77-9.09l-.64-13.64A43.78,43.78,0,0,0,250,468.07c-1.83-5.84-6-10.61-10.05-15.2-2.94-3.32-5.87-6.63-9-9.72A90.11,90.11,0,0,0,203,424.67c-4.08-1.72-12.46-4.58-5.95,1.9C201.55,431,206.08,435.45,210.55,440Z" transform="translate(0.5 0.5)"/><path class="cls-3" d="M128.53,503.54a4.54,4.54,0,0,0-.79-2.76,4.41,4.41,0,0,0-1.65-1.09,27.19,27.19,0,0,0-13-2.4,5.59,5.59,0,0,0-3.38,1.06c-1.8,1.59-1.16,4.53-.12,6.69a30.94,30.94,0,0,0,4.37,6.67c2.36,2.74,7.81,7.17,11.43,4C128,513.47,128.63,506.61,128.53,503.54Z" transform="translate(0.5 0.5)"/><path class="cls-3" d="M229,572.91c.74,5.05,2.19,10.28,5.8,13.89,1.73,1.73,4,3.09,5,5.29s.85,4.64,2.19,6.51c3.22-6.1,1.05-13.62-2-19.83s-6.93-12.34-7.14-19.24c-.06-2,.52-5.65-2-5.48-1.34.09-3.32,3.16-3.65,4.34C226.17,562.26,228.38,569,229,572.91Z" transform="translate(0.5 0.5)"/><path class="cls-3" d="M261.72,560.23A17.81,17.81,0,0,0,256,571.07c-.66,5.1.92,10.39-.34,15.39-1.06.3-1.9-.88-2.37-1.87q-2.25-4.8-4.19-9.72a15.2,15.2,0,0,1-1.46-6.48c.27-3.84,3.2-6.88,6-9.56l6.9-6.7a3.31,3.31,0,0,1,1.67-1.07,3.45,3.45,0,0,1,1.89.42c1.89.83,6.79,2.91,4.83,5.63C267.75,558.72,263.51,558.62,261.72,560.23Z" transform="translate(0.5 0.5)"/><path class="cls-3" d="M207,540.38a7,7,0,0,0,1.51,2.45c1.67,1.54,4.29,1.21,6.53.77a7.07,7.07,0,0,0,3.45-1.32,4.8,4.8,0,0,0,1.29-4.36,13.48,13.48,0,0,0-1.81-4.35c-2.77-4.9-5.75-9.71-8.17-14.8-1.56-3.27-2.83-12.33-6-13.83C198.87,514.28,203.15,531.27,207,540.38Z" transform="translate(0.5 0.5)"/><path class="cls-3" d="M314.82,505c-6.88,11-14.74,21.92-17.55,34.62-.33,1.51-.53,3.27.49,4.43a5.3,5.3,0,0,0,2.73,1.34c3.7,1,8.16,1.75,10.9-.91,1.49-1.44,2.05-3.57,2.53-5.59,1.56-6.51,3-13.1,5.62-19.25,2.5-5.84,6-11.2,8.38-17.11a45,45,0,0,0,3.09-16.3c0-1.67-.36-14.88-3.89-12.83-.76.44-1.06,6.67-1.32,7.77a57.13,57.13,0,0,1-2.68,8.15A105.85,105.85,0,0,1,314.82,505Z" transform="translate(0.5 0.5)"/><path class="cls-3" d="M324.36,442.54c2.2-4.14,5.37-7.65,8.52-11.13,4.35-4.8,9.09-9.84,15.39-11.37,1.28-.31,3.09-.12,3.29,1.18.12.82-.54,1.53-1.17,2.08-1.94,1.68-4.07,3.13-6.07,4.74-10.34,8.29-15.53,19.32-18.67,31.85C319.9,455.61,321.34,448.23,324.36,442.54Z" transform="translate(0.5 0.5)"/><path class="cls-3" d="M172.32,453.74c-2.4,18.51-12.79,34.84-20.41,51.87a11.15,11.15,0,0,0-1.31,4.88,10.75,10.75,0,0,0,.93,3.5,81.49,81.49,0,0,0,9.71,17.64c1.91-2.88,2.35-6.46,2.78-9.9,1-7.72,2.21-15.64,6.2-22.31,1.6-2.67,3.6-5.08,5.16-7.76,3.43-5.89,4.57-12.88,4.39-19.69s-1.61-13.51-3-20.17c-1.14-5.33-1.7-11.45-3.7-16.48C171.94,441.15,173.1,447.73,172.32,453.74Z" transform="translate(0.5 0.5)"/><path class="cls-3" d="M223.49,407.78c1.2,6.14,3.76,11.92,6.39,17.59q5.79,12.45,12.21,24.58A35.32,35.32,0,0,0,230.33,435c-2.25-1.64-4.72-3-6.66-5.05-2.43-2.53-3.84-5.86-5-9.19a79.78,79.78,0,0,1-4.07-19.8,41.06,41.06,0,0,1,.6-12.07c.43-1.92,2.63-10.13,5.38-10C223.78,379.17,222.79,404.17,223.49,407.78Z" transform="translate(0.5 0.5)"/><path class="cls-3" d="M230.42,456c9.89,11.41,18,24.73,21.28,39.47A55,55,0,0,0,241,453.69a46.24,46.24,0,0,0-10.26-9.88c-4.81-3.32-10.28-5.52-15.13-8.76-1.51-1-11.41-11-12.3-5.47-.4,2.48,11,10.31,13.11,12.21A175.58,175.58,0,0,1,230.42,456Z" transform="translate(0.5 0.5)"/><path class="cls-3" d="M340.51,462.65c.76,4.86,2.44,9.52,3.93,14.22a185.43,185.43,0,0,1,7.28,33.51c.47,3.82.81,7.74-.09,11.48-.75,3-3.83,4.84-3.32,7.94.75,4.49,2.57,8.38,2.5,12.08a3.82,3.82,0,0,1-.57,2.2c-.74,1-2.14,1.28-3.39,1.46-2.43.33-5.1.6-7.14-.76s-2.89-4.31-3.39-6.89a272.92,272.92,0,0,1-4.83-49.15,62.43,62.43,0,0,0-.68-11.19c-1.09-5.69-3.95-11.1-3.81-16.89.11-4.51,2-8.76,3.92-12.86,4.11-8.91,8.7-18.35,17.16-23.31,1.09-.63,1.95-1.07,3.08-.68-.55,2.93-3.58,6.3-5,9.08a61.36,61.36,0,0,0-3.92,9.58A44.82,44.82,0,0,0,340.51,462.65Z" transform="translate(0.5 0.5)"/><path class="cls-3" d="M307.91,389.2,317,409.62c1.27,2.84,2.57,5.83,2.38,8.95-.24,3.83-2.74,7.21-5.78,9.57s-6.61,3.89-10,5.68A72.67,72.67,0,0,0,266.55,484c-2.86,15.24-.82,31.59-7.09,45.77a53.41,53.41,0,0,0-3,7.08c3.83.7,6.69,5.64,6.53,9.52s-2.31,7.41-4.76,10.42c0-4.21-4.18-7.21-8.23-8.36s-8.47-1.31-12.06-3.5a2.84,2.84,0,0,1-1.1-1,2.43,2.43,0,0,1,.93-2.91,15.14,15.14,0,0,1,3-1.41c5.7-2.56,7.21-9.83,7.89-16.05q2.7-24.84,3.47-49.84c.11-3.6.19-7.26,1.26-10.7a32.39,32.39,0,0,1,4.28-8.28,100.1,100.1,0,0,1,47.56-37.81,5,5,0,0,0,2.61-1.65c.84-1.25.38-2.92-.15-4.34a83.55,83.55,0,0,0-16.05-26.6A42.71,42.71,0,0,1,307.91,389.2Z" transform="translate(0.5 0.5)"/><path class="cls-4" d="M365.61,439.29a128.45,128.45,0,0,1,21.28,61c.23,2.86,4.73,2.89,4.5,0A133,133,0,0,0,369.49,437c-1.6-2.4-5.49-.15-3.88,2.27Z" transform="translate(0.5 0.5)"/><path class="cls-4" d="M339.94,544.66a64.71,64.71,0,0,1,50-43c2.84-.49,1.64-4.83-1.2-4.33a69.14,69.14,0,0,0-53.16,46.1c-.91,2.76,3.43,3.94,4.34,1.2Z" transform="translate(0.5 0.5)"/><path class="cls-4" d="M387.05,499.31A25.44,25.44,0,0,1,378.81,520c-2.13,2,1.06,5.15,3.18,3.18a29.83,29.83,0,0,0,9.56-23.9c-.19-2.88-4.69-2.9-4.5,0Z" transform="translate(0.5 0.5)"/><path class="cls-4" d="M337.88,547c4.25,1.55,8.56.17,12.57-1.45,2.66-1.07,1.5-5.43-1.19-4.34-3.27,1.32-6.7,2.72-10.19,1.45-2.72-1-3.9,3.36-1.19,4.34Z" transform="translate(0.5 0.5)"/><path class="cls-4" d="M339.53,543.28a212.17,212.17,0,0,1-5-41.94c-.05-2.89-4.55-2.9-4.5,0a219,219,0,0,0,5.14,43.14c.62,2.82,5,1.63,4.34-1.2Z" transform="translate(0.5 0.5)"/><path class="cls-4" d="M331.18,464.66c-4.92-19.51,11.69-33.91,26.93-42.32,2.54-1.4.27-5.29-2.27-3.89-17.14,9.47-34.43,25.85-29,47.41.7,2.8,5,1.61,4.34-1.2Z" transform="translate(0.5 0.5)"/><path class="cls-4" d="M360.53,427.93a9.36,9.36,0,0,1,1.49,2.86,2.25,2.25,0,0,0,4.34-1.2,14,14,0,0,0-1.94-3.93,2.25,2.25,0,0,0-3.89,2.27Z" transform="translate(0.5 0.5)"/><path class="cls-4" d="M308.82,392.38c9.29,3.06,17.78,7.88,26.21,12.76,7.55,4.37,15,9.05,19.67,16.68,1.5,2.47,5.4.21,3.89-2.27-4.77-7.85-12.18-13-20-17.53-9.17-5.37-18.47-10.64-28.6-14-2.76-.91-3.94,3.43-1.2,4.34Z" transform="translate(0.5 0.5)"/><path class="cls-4" d="M317.83,450.31c10.25,12.81,14.21,32.38,10.65,48.38-1.86,8.35-8,15.16-11.69,22.73a98.72,98.72,0,0,0-8,23.22c-.6,2.82,3.73,4,4.34,1.19a93.4,93.4,0,0,1,10.35-27.44c4.62-8,9.22-14.57,10.14-24,1.62-16.59-2.12-34.09-12.64-47.24-1.81-2.26-5,.94-3.18,3.18Z" transform="translate(0.5 0.5)"/><path class="cls-4" d="M277.88,378.58a44,44,0,0,1,18.25,14.62c4.84,6.84,7.92,15.13,11.47,22.68,1.23,2.61,5.11.33,3.89-2.27-3.92-8.33-7.28-17.42-13-24.72a47.81,47.81,0,0,0-18.35-14.19c-2.62-1.17-4.91,2.7-2.27,3.88Z" transform="translate(0.5 0.5)"/><path class="cls-4" d="M307.47,413.17c-27.68,6.65-46.38,29.56-56,55.3-1,2.72,3.34,3.89,4.34,1.2,9.06-24.29,26.74-45.89,52.84-52.16,2.81-.68,1.62-5-1.2-4.34Z" transform="translate(0.5 0.5)"/><path class="cls-4" d="M222.09,379.89c-10.73,31.75,17.83,60.6,30.42,87.32,1.24,2.61,5.12.33,3.89-2.28-6.41-13.6-15.17-25.88-22.14-39.18-7.45-14.22-13.22-28.71-7.83-44.66.93-2.75-3.42-3.93-4.34-1.2Z" transform="translate(0.5 0.5)"/><path class="cls-4" d="M276,377.3c2.85,16.08-.19,30.66-8,44.82a146,146,0,0,0-15.4,40c-.62,2.82,3.72,4,4.34,1.2a137.55,137.55,0,0,1,6.89-22.53c3.19-7.86,7.6-15,11.35-22.57,6.51-13.17,7.75-27.78,5.21-42.12-.51-2.85-4.84-1.65-4.34,1.19Z" transform="translate(0.5 0.5)"/><path class="cls-4" d="M238.23,435.49a184.08,184.08,0,0,0,24.52.28c2.88-.15,2.9-4.65,0-4.5a184.08,184.08,0,0,1-24.52-.28c-2.89-.22-2.87,4.28,0,4.5Z" transform="translate(0.5 0.5)"/><path class="cls-4" d="M224.71,374.3c-15,13.19-27.55,28.86-34.69,47.65-1,2.71,3.32,3.88,4.34,1.19,6.85-18,19.17-33,33.53-45.66,2.18-1.91-1-5.08-3.18-3.18Z" transform="translate(0.5 0.5)"/><path class="cls-4" d="M194.29,425.79c12.86,1.45,23,10.28,32.42,18.34,8.93,7.61,19.72,14.91,25.56,25.33,1.41,2.53,5.3.26,3.88-2.27-6.55-11.71-18.82-20-28.89-28.48-9.72-8.21-19.95-15.95-33-17.42-2.87-.32-2.85,4.18,0,4.5Z" transform="translate(0.5 0.5)"/><path class="cls-4" d="M166.16,406.58a239,239,0,0,1,54.59-24.7c2.76-.86,1.58-5.2-1.19-4.34a243.53,243.53,0,0,0-55.67,25.16c-2.47,1.51-.21,5.4,2.27,3.88Z" transform="translate(0.5 0.5)"/><path class="cls-4" d="M152.23,410.58a127,127,0,0,0-42.39,81.89c-.31,2.88,4.19,2.85,4.5,0a122.54,122.54,0,0,1,41.07-78.71c2.18-1.91-1-5.09-3.18-3.18Z" transform="translate(0.5 0.5)"/><path class="cls-4" d="M124.88,469.36c-3,11.05-11.14,18.23-19.66,25.25-2.24,1.84,1,5,3.18,3.18,9.18-7.56,17.61-15.39,20.82-27.23.76-2.8-3.58-4-4.34-1.2Z" transform="translate(0.5 0.5)"/><path class="cls-4" d="M104.23,499.4a47.7,47.7,0,0,0,18.92,19c2.53,1.4,4.81-2.48,2.27-3.89a43.33,43.33,0,0,1-17.31-17.4c-1.38-2.55-5.27-.28-3.88,2.27Z" transform="translate(0.5 0.5)"/><path class="cls-4" d="M108.57,500.89a47.5,47.5,0,0,1,51.28,34c.81,2.78,5.16,1.6,4.34-1.19a51.93,51.93,0,0,0-55.62-37.27c-2.85.31-2.88,4.81,0,4.5Z" transform="translate(0.5 0.5)"/><path class="cls-4" d="M156.85,536.09l4.45.36a2.25,2.25,0,0,0,0-4.5l-4.45-.36a2.27,2.27,0,0,0-2.25,2.25,2.3,2.3,0,0,0,2.25,2.25Z" transform="translate(0.5 0.5)"/><path class="cls-4" d="M164.37,533a92.31,92.31,0,0,1,14.18-42.09c1.56-2.45-2.34-4.71-3.88-2.27A97.2,97.2,0,0,0,159.87,533c-.24,2.88,4.26,2.87,4.5,0Z" transform="translate(0.5 0.5)"/><path class="cls-4" d="M154.32,413.85c12.2,8.11,19.26,21.47,22.2,35.56,3.55,17,.07,33.39.12,50.4a57.31,57.31,0,0,0,12.81,35.85c3.73,4.59,8.6,9.75,14.53,11.29,6.11,1.59,12.17-1.13,17.58-3.68,2.62-1.24.34-5.12-2.27-3.89-3.53,1.67-7.47,3.59-11.48,3.55-4.45,0-7.85-2.81-10.88-5.74a52.33,52.33,0,0,1-11.4-16.47c-6.36-14.39-3.53-28.93-2.83-44.06,1.13-24.75-4.09-52.06-26.11-66.7-2.42-1.61-4.67,2.29-2.27,3.89Z" transform="translate(0.5 0.5)"/><path class="cls-4" d="M265.9,544.8c6.66-3.82,11.4-3.95,18.31-.85a48,48,0,0,0,13.71,4c3.34.42,17.08,2,14.89-5-.86-2.76-5.2-1.58-4.34,1.2-.27-.87-11.46-.81-12.77-1.07-4.47-.88-8.32-2.86-12.49-4.55-7.09-2.88-13.12-1.36-19.58,2.35-2.51,1.44-.25,5.33,2.27,3.88Z" transform="translate(0.5 0.5)"/><path class="cls-4" d="M232.37,538.37c-11.11,11.93,5.8,29.63,19.3,25.33,7.18-2.29,11.71-10.64,13.23-17.6s-7.06-10.21-12.71-11c-2.86-.39-2.83,4.12,0,4.5,2.16.28,6.51,1.3,7.81,3.41,1.09,1.76-.19,4.21-.83,5.85-1.73,4.35-4.41,9.45-9.39,10.69-8.89,2.19-22-9.68-14.23-18,2-2.12-1.2-5.31-3.18-3.18Z" transform="translate(0.5 0.5)"/><path class="cls-4" d="M228.55,550.92c-7.68,6.67-13.64,18.25-11,28.67,1.25,4.95,4.93,8.45,8.82,11.5,4.84,3.8,13.4,9.74,8.69,16.86-1.6,2.43,2.29,4.68,3.89,2.27,5.73-8.66-2.08-16.67-8.65-21.74-6.27-4.85-9.91-9.75-8.3-18.05a28.8,28.8,0,0,1,9.74-16.33c2.19-1.9-1-5.07-3.18-3.18Z" transform="translate(0.5 0.5)"/><path class="cls-4" d="M240.78,606.89A27.14,27.14,0,0,0,245,585.55a29.25,29.25,0,0,0-4.72-10.13c-2.15-3.15-7.9-11.41-1.62-14,2.64-1.09,1.48-5.45-1.19-4.34-7.06,2.94-7,11-3.59,16.84,2.64,4.56,6,8.22,6.94,13.6a22.81,22.81,0,0,1-4,17.12c-1.66,2.39,2.24,4.64,3.88,2.28Z" transform="translate(0.5 0.5)"/><path class="cls-4" d="M247.81,562.63c-2.37,6.19-.63,12.33,1.94,18.18,1.53,3.48,3.38,6.89,4.18,10.63,1.09,5.19-.67,9.56-3.32,14-1.5,2.48,2.39,4.75,3.88,2.27,3.64-6.05,5.35-12.14,3.34-19.08-2.38-8.21-9.1-15.88-5.68-24.79,1-2.7-3.31-3.87-4.34-1.19Z" transform="translate(0.5 0.5)"/><path class="cls-4" d="M257.77,601.66c2-6,4-12.11,7.11-17.7,2.64-4.81,7-8.56,9.37-13.46,4.6-9.46-2.85-18.23-10.39-23.11-2.44-1.58-4.7,2.31-2.27,3.88,4.68,3,9.72,7.39,9.53,13.55-.15,4.86-4.31,8.18-7,11.84-5.15,7.11-8,15.56-10.73,23.81-.92,2.75,3.43,3.93,4.34,1.19Z" transform="translate(0.5 0.5)"/><path class="cls-4" d="M236.84,540.71c13.42,1,15-15.94,16.2-25.49,2-15.66,2.18-31.47,2.35-47.23,0-2.9-4.47-2.9-4.5,0-.13,11.91-.25,23.84-1.18,35.72-.48,6.21-1.17,12.41-2.23,18.55-1,6-2.84,14.53-10.64,14-2.89-.22-2.87,4.28,0,4.5Z" transform="translate(0.5 0.5)"/><path class="cls-5" d="M136.65,454.12a108.31,108.31,0,0,1,15-24c1.84-2.21-1.33-5.41-3.18-3.18a112.74,112.74,0,0,0-15.76,24.91c-1.2,2.61,2.68,4.9,3.89,2.27Z" transform="translate(0.5 0.5)"/><path class="cls-5" d="M187.11,484.09a46.83,46.83,0,0,0,2.35,38.23c1.33,2.58,5.21.3,3.89-2.27a42.37,42.37,0,0,1-1.9-34.76c1-2.72-3.33-3.89-4.34-1.2Z" transform="translate(0.5 0.5)"/><path class="cls-5" d="M195.72,531.24l2.41,2.7a2.28,2.28,0,0,0,3.19,0,2.31,2.31,0,0,0,0-3.18l-2.42-2.7a2.26,2.26,0,0,0-3.18,0,2.3,2.3,0,0,0,0,3.18Z" transform="translate(0.5 0.5)"/><path class="cls-6" d="M293,513.47c-1.84,7.71-8.29,13.92-14.47,18.51a72,72,0,0,1-7.91,5.27c-3.16,1.74-6.85,2.45-9.81,4.46a.75.75,0,0,0,.17,1.35c7,1.56,15.08-5,19.72-9.55,5.79-5.71,11.94-11.36,13.16-19.8.08-.56-.73-.82-.86-.24Z" transform="translate(0.5 0.5)"/><path class="cls-6" d="M268.39,507.93c-.74,6.38-1.71,12.88-5.34,18.31-2.81,4.22-6.31,7.43-10,10.82a1.18,1.18,0,0,0,1.14,2c12-4.06,14.57-20.2,15.15-31.09,0-.61-.87-.58-.94,0Z" transform="translate(0.5 0.5)"/><path class="cls-6" d="M224.21,507.63c1.17,10.67,5.34,26.72,17.07,30.46a.94.94,0,0,0,.91-1.56c-3.79-4.12-8-7.15-11-12a46,46,0,0,1-6-17c-.09-.54-1-.42-1,.13Z" transform="translate(0.5 0.5)"/><path class="cls-6" d="M204.28,495.72a46.17,46.17,0,0,0,4.15,29.15c3.67,7.06,10.87,16.81,19,18.75a1,1,0,0,0,1-1.73c-2.55-3.14-6.27-5.22-9.15-8.07a50.92,50.92,0,0,1-7.79-9.88,43.15,43.15,0,0,1-6.11-28.07c.08-.65-1-.8-1.15-.15Z" transform="translate(0.5 0.5)"/></svg>