<svg xmlns="http://www.w3.org/2000/svg" viewBox="0 0 161.08 40.32"><defs><style>.cls-1{fill:#113c7c;}.cls-2{fill:#fff;}.cls-3{fill:#310a09;}.cls-4{fill:#888;}</style></defs><title>Asset 16</title><g id="Layer_2" data-name="Layer 2"><g id="Layer_1-2" data-name="Layer 1"><path class="cls-1" d="M7.64,11.34A33.48,33.48,0,0,1,17.93,6.28C32.24,1.55,48.76.84,61.7,8.57a18.78,18.78,0,0,1,5.78,5A44.91,44.91,0,0,1,70,17.92a16.68,16.68,0,0,1,1.89,4c.76,3.23-1.12,6.63-3.81,8.56s-6,2.7-9.3,3.27a118.82,118.82,0,0,1-44.87-.7c-3.21-.67-6.5-1.53-9-3.6C-1.43,24.38,2.36,15.5,7.64,11.34Z"/><path class="cls-2" d="M49.48,27.83c3.1.69,6.28,1.7,8.53,3.93a7.1,7.1,0,0,1-4.09,1.64,112.51,112.51,0,0,1-33.63.49c-2.15-.29-6.65-.22-8.43-1.47-1.17-.82-.8-.78.44-1.46a23.48,23.48,0,0,1,3.91-1.44,63.2,63.2,0,0,1,15.58-3A62.21,62.21,0,0,1,49.48,27.83Z"/><path class="cls-3" d="M6.19,28.42C-.58,23.53,4.27,14.65,9.67,11.23c4.81-3.05,10.77-4.56,16.25-5.95C39.18,1.93,52.8,1.7,63.52,11.33c4.77,4.28,11.74,13.23,3.26,17.77-5.63,3-13.79,3.49-20,4A112.23,112.23,0,0,1,6,29.1,1.5,1.5,0,0,0,5.15,32a114.14,114.14,0,0,0,45.32,3.76c8.05-1,25.35-2.26,23.21-14.41C71.68,10,57.71,1.86,47.28.42,35.62-1.19,22,2,11.39,6.91,6.19,9.32,1.52,13.17.3,19A11.36,11.36,0,0,0,4.67,31c1.57,1.13,3.07-1.47,1.52-2.59Z"/><path class="cls-4" d="M27.77,22.13,45.69,9c1.54-1.13.05-3.74-1.51-2.6L26.26,19.54c-1.54,1.13-.05,3.74,1.51,2.59Z"/><path class="cls-4" d="M28.15,10.69q12.26,7.16,24.23,14.77c1.63,1,3.14-1.56,1.51-2.59q-12-7.6-24.22-14.77a1.5,1.5,0,0,0-1.52,2.59Z"/><path class="cls-1" d="M113.62,4.12c9.18-2.2,18.89-1.33,28.06.88,4.85,1.17,9.78,2.81,13.39,6.18s5.53,8.89,3.37,13.29a14.91,14.91,0,0,1-5.23,5.42c-13.21,9-30.66,9.56-46.63,7.35-4.56-.63-9.33-1.56-12.82-4.49C80.32,21.49,103.94,6.44,113.62,4.12Z"/><path class="cls-2" d="M141.56,26.92c2.52.59,5.13,1.48,6.79,3.43a1.19,1.19,0,0,1,.37.77c0,.43-.42.73-.79,1-6.75,4.1-14.72,6.05-22.67,6.45a79.56,79.56,0,0,1-14.79-.76c-1.94-.26-5.89-.2-7.51-1.27-1.8-1.18,1-2.32,2.35-3.18a47.76,47.76,0,0,1,22.8-7.49A46.07,46.07,0,0,1,141.56,26.92Z"/><path class="cls-3" d="M96.87,33.19c-7.68-3-6-12.56-1.42-17.39,4.29-4.57,10.73-7.48,16.54-9.54,12.47-4.41,27-4.55,38.3,3.12,3.06,2.08,6.34,5,7.42,8.67,1.36,4.54-1.77,8.14-5.33,10.42a57.8,57.8,0,0,1-17.32,6.91,70.54,70.54,0,0,1-38.59-1.62c-1.84-.6-2.63,2.3-.8,2.9a73.69,73.69,0,0,0,40.18,1.61c8.67-2.11,26.8-7.35,25.12-19.36C159.36,7.4,143.86,1.56,134,.46A54.49,54.49,0,0,0,96.2,11.11c-8,6.2-11.94,20.33-.13,25,1.8.71,2.58-2.19.8-2.89Z"/><path class="cls-4" d="M115.14,20.52c5.6-4.47,11.53-9,18.88-9.82,1.9-.21,1.92-3.22,0-3-8.24.9-14.7,5.67-21,10.69-1.51,1.21.62,3.32,2.12,2.13Z"/><path class="cls-4" d="M117.23,11.88a47.07,47.07,0,0,1,18,9.12c1.48,1.22,3.61-.89,2.12-2.12A50.51,50.51,0,0,0,118,9a1.5,1.5,0,0,0-.8,2.89Z"/></g></g></svg>