<svg id="Layer_1" data-name="Layer 1" xmlns="http://www.w3.org/2000/svg" viewBox="0 0 161.08 40.32"><defs><style>.cls-1{fill:#113c7c;}.cls-2{fill:#fff;}.cls-3{fill:#310a09;}.cls-4{fill:#888;}</style></defs><title>f-shoes1</title><path class="cls-1" d="M188.68,945A33.25,33.25,0,0,1,199,939.94c14.31-4.73,30.83-5.44,43.77,2.29a18.67,18.67,0,0,1,5.78,5,42.93,42.93,0,0,1,2.47,4.39,16.68,16.68,0,0,1,1.89,4c.77,3.23-1.12,6.63-3.81,8.56s-6,2.7-9.29,3.27a118.87,118.87,0,0,1-44.88-.7c-3.21-.67-6.5-1.53-9-3.6C179.61,958,183.41,949.16,188.68,945Z" transform="translate(-181.04 -933.66)"/><path class="cls-2" d="M230.52,961.49c3.1.69,6.28,1.69,8.54,3.92a7.17,7.17,0,0,1-4.1,1.65,112.51,112.51,0,0,1-33.63.49c-2.14-.29-6.65-.23-8.42-1.47-1.18-.83-.81-.78.43-1.47a23.45,23.45,0,0,1,3.91-1.43,63.68,63.68,0,0,1,15.58-3A62.58,62.58,0,0,1,230.52,961.49Z" transform="translate(-181.04 -933.66)"/><path class="cls-3" d="M187.23,962.08c-6.77-4.89-1.91-13.77,3.48-17.19,4.82-3,10.78-4.56,16.25-5.95,13.26-3.35,26.88-3.59,37.6,6,4.77,4.28,11.74,13.23,3.26,17.77-5.63,3-13.79,3.49-20,4a112.45,112.45,0,0,1-40.84-4,1.5,1.5,0,0,0-.8,2.89,114.16,114.16,0,0,0,45.32,3.76c8.05-1,25.35-2.26,23.21-14.41-2-11.35-16-19.48-26.4-20.92-11.66-1.61-25.3,1.59-35.89,6.49-5.2,2.41-9.87,6.26-11.09,12.09a11.38,11.38,0,0,0,4.38,12c1.56,1.13,3.06-1.47,1.51-2.59Z" transform="translate(-181.04 -933.66)"/><path class="cls-4" d="M208.82,955.79l17.91-13.11c1.55-1.12.05-3.73-1.51-2.59L207.3,953.2c-1.54,1.13,0,3.73,1.52,2.59Z" transform="translate(-181.04 -933.66)"/><path class="cls-4" d="M209.2,944.35q12.24,7.15,24.22,14.77c1.64,1,3.14-1.56,1.52-2.59q-12-7.62-24.23-14.77a1.5,1.5,0,0,0-1.51,2.59Z" transform="translate(-181.04 -933.66)"/><path class="cls-1" d="M294.66,937.78c9.18-2.2,18.89-1.33,28.07.88,4.84,1.17,9.78,2.8,13.38,6.18s5.53,8.89,3.38,13.29a15.18,15.18,0,0,1-5.24,5.42c-13.21,9-30.66,9.56-46.63,7.35-4.56-.63-9.32-1.56-12.82-4.49C261.36,955.15,285,940.1,294.66,937.78Z" transform="translate(-181.04 -933.66)"/><path class="cls-2" d="M322.6,960.58c2.52.59,5.13,1.48,6.8,3.43a1.18,1.18,0,0,1,.36.77c0,.43-.42.73-.79,1-6.75,4.11-14.72,6.06-22.66,6.46a80.54,80.54,0,0,1-14.8-.76c-1.94-.26-5.89-.21-7.51-1.27-1.79-1.18,1-2.33,2.35-3.18a47.72,47.72,0,0,1,22.8-7.49A46,46,0,0,1,322.6,960.58Z" transform="translate(-181.04 -933.66)"/><path class="cls-3" d="M277.91,966.85c-7.68-3-6-12.56-1.42-17.39,4.29-4.57,10.74-7.48,16.54-9.54,12.48-4.41,27-4.55,38.3,3.12,3.06,2.08,6.34,5,7.43,8.66,1.35,4.55-1.78,8.15-5.34,10.43A57.42,57.42,0,0,1,316.1,969a70.45,70.45,0,0,1-38.59-1.61c-1.84-.6-2.63,2.3-.8,2.89a73.63,73.63,0,0,0,40.19,1.62c8.66-2.11,26.79-7.35,25.12-19.36-1.61-11.52-17.11-17.35-27-18.46a54.55,54.55,0,0,0-37.79,10.65c-7.95,6.21-11.95,20.34-.13,25,1.79.71,2.57-2.19.79-2.89Z" transform="translate(-181.04 -933.66)"/><path class="cls-4" d="M296.18,954.17c5.6-4.46,11.53-9,18.88-9.82,1.9-.2,1.92-3.21,0-3-8.24.91-14.69,5.67-21,10.7-1.51,1.21.63,3.32,2.12,2.12Z" transform="translate(-181.04 -933.66)"/><path class="cls-4" d="M298.27,945.54a47,47,0,0,1,18,9.12c1.48,1.22,3.62-.89,2.12-2.12a50.51,50.51,0,0,0-19.28-9.89,1.5,1.5,0,0,0-.8,2.89Z" transform="translate(-181.04 -933.66)"/></svg>