<svg id="Layer_1" data-name="Layer 1" xmlns="http://www.w3.org/2000/svg" viewBox="0 0 501 1001"><defs><style>.cls-1,.cls-6{fill:none;stroke-miterlimit:10;}.cls-1{stroke:#fff;opacity:0;}.cls-2{fill:#ef9300;}.cls-3{fill:#dc7900;}.cls-4{fill:#280303;}.cls-5{fill:#fff;}.cls-6{stroke:#280303;}</style></defs><title>m-tops1</title><rect class="cls-1" x="0.5" y="0.5" width="500" height="1000"/><path class="cls-2" d="M199,345.79a9.08,9.08,0,0,0-10.3,5.49c-.86,2.3-.71,4.82-.79,7.27-.16,4.75-1.31,9.61-4.23,13.36s-7.33,6.2-8.79,10.59a6.38,6.38,0,0,1-1,2.3c-.57.68-2.24.87-3.09,1.17-7.65,2.67-13.88,7.32-19.45,13.21-8.41,8.89-13.34,20.45-17.58,31.93a420,420,0,0,0-17.38,60.56c-1.61,7.79-4.08,16-5.11,23.91l-3.81,29.25c-.71,5.49-1.43,11-2.51,16.41-.88,4.41-2,8.81-2.33,13.3a65.69,65.69,0,0,0,.26,10.21q.9,10.62,2.72,21.13c.6,3.49,1.51,7,2,10.46.57,3.81-.53,5.08-2.45,8.49a4.59,4.59,0,0,0-.72,1.83c-.13,1.4,1,2.58,2,3.5a53.46,53.46,0,0,0,25.33,12.32,17.87,17.87,0,0,0,8.75-.06c-.39-6.24-1-13.47,2.7-18.62a59.1,59.1,0,0,0,8.31-16.71c7.57-24.05.67-50,.79-75.21a134.49,134.49,0,0,1,13.52-58c4.14,14.12,5.14,29,6.33,43.66a131,131,0,0,1,.63,18.46c-.52,8.61-2.74,17.05-3.25,25.66a64.89,64.89,0,0,0,3.32,24.54c2.18,6.45-.12,13.33-.94,19.8-.44,3.47-.81,4.52,1.86,6.54s6.81,3.15,9.9,4.37A135.4,135.4,0,0,0,225,626.12c5.34.32,10.69.33,16,.26q15.78-.21,31.54-1.38c12.65-.94,25.63-2.43,37.34-7.62,5.76-2.55,10.78-4,9.89-10.74a65.19,65.19,0,0,1,.75-22.5c1-4.46,2.42-8.8,3.41-13.26a65.1,65.1,0,0,0,1.33-19.09c-.63-8-2.73-15.81-4.13-23.72a135.84,135.84,0,0,1,2.75-59.22c10.51,8.82,13.43,23.55,15.58,37.11,1.76,11.14,3.44,22.33,3.74,33.61.5,18.88-2.87,38.2,2.12,56.42,1.65,6,4.16,11.71,5.78,17.71A62,62,0,0,1,353,636.31a90.33,90.33,0,0,0,31.26-7.16,6.55,6.55,0,0,0,3-2c1-1.48.69-3.45.58-5.24-.45-7.4,3.5-14.27,5.33-21.46,3.94-15.58-2.2-31.65-5.9-47.28-3.63-15.31-4.94-31.06-7.17-46.64-3.9-27.26-12.82-62.3-22.31-88.15-4.76-13-9.24-17.4-20.3-25.66-4.51-3.38-10-5.14-15.45-6.61a201.13,201.13,0,0,0-21.72-4.62c2.64-4.76,4.9-9.92,5.1-15.36s-2-11.24-6.65-14.09c-3.17-2-7-2.34-10.76-2.52a132.76,132.76,0,0,0-15.58.19,3,3,0,0,1,1.42,2.7l3.25.36-1.67,6.87,3.08,3.89a2.58,2.58,0,0,0-3.23-.43l.46,15.05a6.3,6.3,0,0,1-.22,2.37,5.54,5.54,0,0,1-2,2.39c-7.86,6-19.69,6.69-25.18,14.89-8-8.85-16.7-18.19-28.49-20.08a92.54,92.54,0,0,0,3-21.77A73.73,73.73,0,0,0,199,345.79Z" transform="translate(0.5 0.5)"/><path class="cls-3" d="M351.65,623.27a1.51,1.51,0,0,1,.31-1,1.46,1.46,0,0,1,.93-.32c10.7-1,21.75.75,32.09-2.18,1.73,1.25,1.78,4,.65,5.77s-3.08,2.91-5,3.86A54.66,54.66,0,0,1,359,635.53c-2.09.09-5,.49-6.48-1.37C350.68,631.75,351.46,626.11,351.65,623.27Z" transform="translate(0.5 0.5)"/><path class="cls-3" d="M286.88,386.63c-1.51.73-3.14,1.59-3.73,3.15-.7,1.84.45,4,2.15,5a9.62,9.62,0,0,0,5.74.88,26,26,0,0,0,9.58-2.83c2-1.05,4.07-2.71,4.12-5,.06-2.59-3.38-7-5.68-7.07C296,380.61,289.68,385.28,286.88,386.63Z" transform="translate(0.5 0.5)"/><path class="cls-3" d="M120.52,636.19c2.94,2.7,6.82,4.06,10.59,5.34,2.25.77,4.85,1.5,6.89.28s2.62-3.95,2.69-6.35a28.78,28.78,0,0,0-.29-4.91,5.79,5.79,0,0,0-.88-2.64c-1-1.36-2.82-1.75-4.49-2-3.84-.55-12.9-2.89-16.42-.8C114.55,627.53,118,633.86,120.52,636.19Z" transform="translate(0.5 0.5)"/><path class="cls-3" d="M295.49,595a22.32,22.32,0,0,0,14.6-13c3.47-8.58,1.25-18.26-.34-27.38C301,504.36,314.13,450.59,345.14,410c-2.3,11.24-8,21.38-12.77,31.81-7.62,16.6-12.78,34.57-12.87,52.84,0,6.11.51,12.21.7,18.31s.05,12,.63,17.91c.9,9.25,3.51,18.27,4.45,27.51s0,19.19-5.53,26.68A26,26,0,0,1,295.49,595Z" transform="translate(0.5 0.5)"/><path class="cls-3" d="M293.31,582.11c-9.54,4.62-20.45,5.35-31,6-17.69,1.09-35.73,2.14-52.88-2.36-5-1.33-10.74-4-11.42-9.21-.28-2.06.56-4.4,2.44-5.28,2.25-1,4.81.32,7,1.44,12,6.12,26.06,6,39.51,5.85,11.57-.18,23.19-.35,34.65-2.13,3.71-.58,11.75-4.22,15.3-3.08C302.31,575.08,296,580.81,293.31,582.11Z" transform="translate(0.5 0.5)"/><path class="cls-3" d="M301.37,608.34l-.71,7.11a2.48,2.48,0,0,0,.16,1.48c.44.77,1.49.84,2.37.78a27.52,27.52,0,0,0,11.87-3.64,8.44,8.44,0,0,0,3-2.53,9.16,9.16,0,0,0,1.14-4.56,69.28,69.28,0,0,0-.93-16.46c-6.54,2-12.87,4.68-19.53,6.19-7.07,1.6-14.38,1.84-21.63,2.08-33.76,1.08-68,2.11-100.81-6.1a3.06,3.06,0,0,0-2.23,0,2.9,2.9,0,0,0-1.13,1.75c-1.15,3.65-2,6.43,1.47,8,3.7,1.74,9.33,1.85,13.37,2.54q13.59,2.34,27.33,3.75a402.26,402.26,0,0,0,55.1,1.86Q285.8,610.1,301.37,608.34Z" transform="translate(0.5 0.5)"/><path class="cls-3" d="M178.42,493.56c1.53,11.72.73,23.59.34,35.41-.47,14.67-.53,30.24-8.34,42.67-3.5-12.25,0-25.24,1.34-37.91,1.5-14.31.16-28.75-2.24-42.89-1.12-6.6-4.14-14.2-4.16-20.84,0-9.1,5.85.29,7.4,3.55A66.33,66.33,0,0,1,178.42,493.56Z" transform="translate(0.5 0.5)"/><path class="cls-3" d="M163.62,472.69c-2,8.28-6.06,15.9-8.57,24-4.42,14.39-3.68,29.79-2.89,44.82l1.71,32.79c.29,5.69.59,11.38.32,17.07-.5,10.43-3.05,21-9.05,29.56a12.77,12.77,0,0,1-4.45,4.29,5.46,5.46,0,0,1-5.88-.36c3-5.3,5.78-10.77,7.36-16.65a69.57,69.57,0,0,0,2-13.8c1.41-22.6-1.37-45.23-1.93-67.86s1.28-46,11.26-66.32c2.27-4.64,4.64-9,5.55-14.18,1.11,4.21,3.91,7.5,4.93,11.82A32.56,32.56,0,0,1,163.62,472.69Z" transform="translate(0.5 0.5)"/><path class="cls-3" d="M339.72,473.9c3.38,15.61,9.81,30.41,13.35,46,7.65,33.62,1.47,68.6.27,103-11.45-23.48-11.41-50.67-11.68-76.79s-1.45-53.54-14.8-76a11.26,11.26,0,0,1-1.56-3.4,10.26,10.26,0,0,1,.47-4.55c4.71-18.41,9.85-37.61,22.64-51.65a181.4,181.4,0,0,1,26.68,63.5c2.32,11.1,3.59,22.4,5.26,33.62,3.6,24.21,9,48.12,12.59,72.33,1.18,8,2.13,16.19.18,24s-7.41,15.25-15.21,17.3c5.07-17.87,5.32-36.8,3.48-55.29s-5.72-36.69-8.81-55c-2.46-14.58-4.43-29.29-8.52-43.5a115.59,115.59,0,0,0-7.93-20.5c-1.61-3.16-7.88-17-12.52-15.92s-5.66,16.59-5.88,20.16A83.36,83.36,0,0,0,339.72,473.9Z" transform="translate(0.5 0.5)"/><path class="cls-3" d="M216.79,412.58c11.06,4.31,20.78,12,32.3,14.86,9.67,2.42,20,1.24,29.44-2s18.09-8.37,26.34-14c3.47-2.36,6.94-4.85,9.54-8.15s4.26-7.55,3.61-11.7-4-8-8.19-8.31a4,4,0,0,0-3.86,1.53,3.87,3.87,0,0,0-.45,1.23c-.48,2.27.12,4.61.17,6.93.16,7.42-5.4,14-12,17.36s-14.19,4.19-21.56,5.12c-3.6.46-7.36,1-10.31,3.14-1.58,1.14-3.3,2.79-5.15,2.2A5.37,5.37,0,0,1,255,419.8a30,30,0,0,0-10.72-5.53c-2.75-.78-5.65-1.17-8.17-2.53-2.81-1.52-4.87-4.1-7.38-6.07-9.54-7.48-22.84-5.13-34.09-6-2.55-.2-12.54-3.16-14.37-.12s11.77,6.28,14.1,6.89C201.85,408.42,209.54,409.75,216.79,412.58Z" transform="translate(0.5 0.5)"/><path class="cls-4" d="M274.67,353.3c8.64-.07,28.77-2.5,29,10.39.2,10.64-8.75,19.3-18.66,21.35-3.15.64-1.82,5.47,1.33,4.82,12.47-2.58,23.49-14.38,22.24-27.67-1.49-15.89-22.54-14-33.91-13.89-3.22,0-3.23,5,0,5Z" transform="translate(0.5 0.5)"/><path class="cls-4" d="M224.87,351.72c-9.89-4.65-24.75-12.34-35.52-6.1-6.15,3.57-4.72,10.46-4.93,16.37-.3,8.26-8.59,11.94-12,18.77-7.15,14.28,10.18,18.9,20.66,19.77,8.78.73,17.59.37,26.12,2.94a52.1,52.1,0,0,1,21.95,13.38c2.27,2.28,5.81-1.26,3.53-3.54a56.78,56.78,0,0,0-30.39-16.13c-6.7-1.17-13.51-1.09-20.28-1.58-5.62-.41-19.37-1.19-18.08-10,.84-5.69,7.2-9.5,10.33-13.9,3.86-5.42,2.4-10.38,3-16.55,1.38-14.38,26.46-2.25,33.09.87,2.9,1.36,5.44-3,2.53-4.32Z" transform="translate(0.5 0.5)"/><path class="cls-4" d="M262.4,422.36c3.39-7.48,14.3-4,20.78-5.11,6.9-1.14,13.23-4.5,18.68-8.79,4.83-3.8,8.3-8,7.69-14.51-.48-5.1-2.35-11.41-6.57-14.61-2.56-1.94-5.06,2.4-2.52,4.32,2.15,1.63,3.17,5.95,3.73,8.42A10.2,10.2,0,0,1,301,402.69a37.48,37.48,0,0,1-16.74,9.24c-8.63,2-21.52-2.38-26.19,7.91-1.32,2.91,3,5.45,4.32,2.52Z" transform="translate(0.5 0.5)"/><path class="cls-4" d="M273.76,364.64c5.29-.76,5.17,5.9,3.78,8.78a17.45,17.45,0,0,1-3.22,4.32c-3.36,3.52-7.53,5.79-11.94,7.69-6.3,2.72-12.3,5.19-16.07,11.25-1.7,2.74,2.62,5.26,4.32,2.53,3.8-6.12,10.95-7.72,17-10.68a33.55,33.55,0,0,0,13-10.66c5-7.33,2.49-19.58-8.24-18.05-3.17.45-1.82,5.27,1.33,4.82Z" transform="translate(0.5 0.5)"/><path class="cls-4" d="M249.35,396.31a53.38,53.38,0,0,0-28.66-20.4c-2.73-.82-5.58-1.3-7.7-3.34a6,6,0,0,1,1.26-9.87c2.8-1.58.28-5.9-2.53-4.31-8.81,5-7,16.69,1.82,20.49,5.53,2.37,11.23,3.35,16.53,6.44a49.7,49.7,0,0,1,15,13.51c1.89,2.56,6.23.07,4.32-2.52Z" transform="translate(0.5 0.5)"/><path class="cls-4" d="M266.92,400.62c3.15,6.62,3,13.94,3,21.11,0,6.87-.17,13.75-.68,20.6-1.07,14.28-4,28.38-11.06,40.95-1.58,2.81,2.74,5.33,4.32,2.53,7.51-13.36,10.59-28.32,11.74-43.48.6-7.95.74-16,.69-23.94,0-7.07-.61-13.83-3.69-20.29-1.39-2.91-5.7-.37-4.32,2.52Z" transform="translate(0.5 0.5)"/><path class="cls-4" d="M225.16,388.28c-8.22,10.22-4.35,23.67-.35,34.84,5.06,14.17,12.52,30.25,5.07,45-1.45,2.87,2.86,5.4,4.31,2.53,6-11.89,3.86-25.05-.31-37.17-4-11.64-14.42-30.16-5.19-41.63,2-2.48-1.52-6-3.53-3.54Z" transform="translate(0.5 0.5)"/><path class="cls-4" d="M164,386.22a67.17,67.17,0,0,0-23.61,22.33c-1.75,2.71,2.58,5.22,4.32,2.52a61.69,61.69,0,0,1,21.82-20.53c2.8-1.59.28-5.91-2.53-4.32Z" transform="translate(0.5 0.5)"/><path class="cls-4" d="M140.64,412.79c13.23,20.38,23.15,43.17,24.06,67.74.12,3.21,5.12,3.22,5,0-.94-25.45-11-49.14-24.74-70.26-1.75-2.69-6.08-.19-4.32,2.52Z" transform="translate(0.5 0.5)"/><path class="cls-4" d="M167.24,495.68a148.69,148.69,0,0,1,1.08,54.15c-2.3,14.49-4.86,30,3.82,43,1.78,2.67,6.11.17,4.32-2.52-9.53-14.24-4.07-31.56-2.15-47.17a149.59,149.59,0,0,0-2.24-48.81c-.66-3.15-5.48-1.82-4.83,1.32Z" transform="translate(0.5 0.5)"/><path class="cls-4" d="M162.8,469.29c-10.12,24.36-13.93,50.8-13.26,77.08.34,13.23,3,26.33,3.17,39.53A59.29,59.29,0,0,1,140.13,623c-1.95,2.51,1.56,6.07,3.53,3.53A65,65,0,0,0,157.15,595c1.83-13.74-1.55-27.66-2.31-41.39-1.57-28.24,1.88-56.71,12.78-83,1.23-3-3.6-4.27-4.82-1.33Z" transform="translate(0.5 0.5)"/><path class="cls-4" d="M141,623.31a51.11,51.11,0,0,1-20.81-2.17c-3.11-1-6.7-2.32-9.23-4.52-2.78-2.42-3.28-5.87-3.76-9.32-1.92-13.77-3.13-27.87-.74-41.66.55-3.14-4.27-4.49-4.82-1.32a108.84,108.84,0,0,0-1.29,24.85c.44,7.8.66,16.81,3,24.33,4.24,13.81,25.8,15.9,37.69,14.81,3.18-.29,3.21-5.29,0-5Z" transform="translate(0.5 0.5)"/><path class="cls-4" d="M139,412a445.68,445.68,0,0,0-35.24,144.6c-.23,3.21,4.77,3.2,5,0a438.9,438.9,0,0,1,34.55-142.08c1.26-2.92-3-5.47-4.31-2.52Z" transform="translate(0.5 0.5)"/><path class="cls-4" d="M105.61,618.49a12.84,12.84,0,0,1-3.85,6.55,2.53,2.53,0,0,0,0,3.54c11,9.47,23.84,19.33,39.22,15.08a2.54,2.54,0,0,0,1.84-2.41,91.14,91.14,0,0,1,.35-13.42c.32-3.2-4.68-3.18-5,0a91.14,91.14,0,0,0-.35,13.42l1.83-2.41c-13.46,3.72-24.82-5.58-34.35-13.8v3.54a17.48,17.48,0,0,0,5.13-8.76c.79-3.12-4-4.45-4.82-1.33Z" transform="translate(0.5 0.5)"/><path class="cls-4" d="M304.59,384.74a70.13,70.13,0,0,1,38.72,18c2.37,2.17,5.92-1.36,3.54-3.54a75.89,75.89,0,0,0-42.26-19.48c-3.18-.41-3.15,4.6,0,5Z" transform="translate(0.5 0.5)"/><path class="cls-4" d="M347.18,407.32A193.41,193.41,0,0,0,318,493.6a174.08,174.08,0,0,0,2,45.64c1.54,8.69,3.59,17.43,2.88,26.31a46.73,46.73,0,0,1-8.6,23.06c-1.85,2.64,2.48,5.15,4.32,2.53,8.95-12.82,10.59-27.25,8.17-42.41-2.6-16.27-5.07-31.88-4.23-48.44a187.73,187.73,0,0,1,29-90.45c1.73-2.72-2.59-5.23-4.31-2.52Z" transform="translate(0.5 0.5)"/><path class="cls-4" d="M174.43,594.48c23.56,7.32,48.64,8.73,73.17,8.36,23.28-.35,49.11-1.09,70.84-10.29,2.95-1.25.4-5.55-2.53-4.31-10.84,4.58-22.57,6.27-34.2,7.52q-18,1.92-36.07,2.11c-23.48.23-47.33-1.2-69.88-8.21-3.08-.95-4.39,3.87-1.33,4.82Z" transform="translate(0.5 0.5)"/><path class="cls-4" d="M170.49,590.81c-.37,6.29-1,12.53-2,18.76-.5,3.14,4.32,4.5,4.82,1.32q1.59-10,2.19-20.08c.19-3.22-4.82-3.2-5,0Z" transform="translate(0.5 0.5)"/><path class="cls-4" d="M169,611c9.42,8.31,23.94,11.39,36,13.55,13.62,2.46,27.51,3.1,41.33,3,25.2-.22,53.92,0,75.47-15,2.62-1.82.12-6.15-2.53-4.31-20.39,14.17-47.25,14-71.12,14.29-13.07.18-26.23-.22-39.16-2.32-11.8-1.91-27.19-4.57-36.42-12.72-2.4-2.12-6,1.4-3.53,3.54Z" transform="translate(0.5 0.5)"/><path class="cls-4" d="M317.53,586.48l.09,24c0,3.21,5,3.22,5,0l-.09-24c0-3.22-5-3.23-5,0Z" transform="translate(0.5 0.5)"/><path class="cls-4" d="M323.18,467.63c7.24,11.73,10.76,25,12.89,38.49a258.25,258.25,0,0,1,3.45,43.28c-.32,25.26-1.59,51.44,12.59,73.67,1.73,2.7,6.06.2,4.32-2.52-15.28-23.95-11.27-51.67-11.94-78.55a275.94,275.94,0,0,0-4.17-40.65c-2.25-12.75-6-25.18-12.82-36.25-1.69-2.73-6-.22-4.32,2.53Z" transform="translate(0.5 0.5)"/><path class="cls-4" d="M349,412.2c19.55,27.24,24.23,63.23,28.72,95.62,2.58,18.53,4.69,37.16,8.75,55.44,2.14,9.65,5.37,19.32,5.35,29.3a42.12,42.12,0,0,1-9,25.6c-2,2.55,2.38,5.05,4.31,2.52a46.41,46.41,0,0,0,9.41-22.85c1.13-9.66-1.2-19.15-3.46-28.47-4.73-19.47-7.28-39.27-10-59.09-4.62-34-9.21-72-29.74-100.59-1.86-2.6-6.2-.1-4.32,2.52Z" transform="translate(0.5 0.5)"/><path class="cls-4" d="M355.76,625.29a101.14,101.14,0,0,0,30.9-3.81l-3.07-1.74c.94,4.1.62,5.66-3.32,7.65a57.53,57.53,0,0,1-9,3.62,60.54,60.54,0,0,1-18.14,2.55l2.41,1.84a21.67,21.67,0,0,1,0-12.66c.9-3.1-3.92-4.42-4.82-1.33a26.9,26.9,0,0,0,0,15.32,2.56,2.56,0,0,0,2.42,1.83,64.77,64.77,0,0,0,26-5.13c2.84-1.21,8-2.84,9.76-5.58s.25-6.57-.41-9.44a2.54,2.54,0,0,0-3.08-1.75,96.26,96.26,0,0,1-29.57,3.63c-3.22-.11-3.22,4.89,0,5Z" transform="translate(0.5 0.5)"/><path class="cls-4" d="M199,572.89c8.76-8,9.15-19.81,8.87-30.88l-2.5,2.5q36.35-1.95,72.74-.86c3.22.1,3.22-4.91,0-5q-36.37-1.08-72.74.86a2.54,2.54,0,0,0-2.5,2.5c.25,9.73.36,20.28-7.41,27.35-2.38,2.17,1.16,5.7,3.54,3.53Z" transform="translate(0.5 0.5)"/><path class="cls-4" d="M207.64,580.21c30.3,2,61.48,3.83,90.61-6.44a2.54,2.54,0,0,0,.59-4.57,23.79,23.79,0,0,1-9.54-22.42c.43-3.14-4.38-4.51-4.82-1.33a29.12,29.12,0,0,0,11.84,28.07l.6-4.57c-28.72,10.13-59.4,8.28-89.28,6.26-3.21-.22-3.2,4.78,0,5Z" transform="translate(0.5 0.5)"/><path class="cls-5" d="M124.45,513.45a189.79,189.79,0,0,1,13.24-63c.71-1.79-2.19-2.57-2.9-.79a192.28,192.28,0,0,0-13.34,63.76c-.07,1.93,2.93,1.93,3,0Z" transform="translate(0.5 0.5)"/><path class="cls-5" d="M120.59,522.14a37.84,37.84,0,0,0,.5,9.08c.33,1.9,3.23,1.1,2.9-.79a34.36,34.36,0,0,1-.4-8.29c.14-1.93-2.86-1.92-3,0Z" transform="translate(0.5 0.5)"/><path class="cls-5" d="M211.68,466.2c1.73-3.77,5-12.31,1.4-16.09-3.41-3.56-7.84,1.79-9.92,4.32-9.56,11.65-11.87,29.44-10.24,43.95.46,4.11.51,13.27,5.82,14.31,5.5,1.07,10.64-7,13.13-10.69a52.31,52.31,0,0,0,4.8-8.94c.94-2.28,2.93-6,2.29-8.66-1.37-5.63-11.68-2.16-15.23-1.71-1.89.24-1.91,3.24,0,3,3-.38,11.91-3.24,11.94,1.21,0,3.83-3.5,9-5.5,12.22-1.82,2.87-8.08,13.35-12.67,7.88-.86-1-.89-4-1.12-5.39a68.86,68.86,0,0,1-.87-8.72,67.43,67.43,0,0,1,4.15-26.09,35.65,35.65,0,0,1,6.63-11.42c2-2.21,4.53-3.38,5.1.45.4,2.67-1.23,6.53-2.3,8.86-.8,1.74,1.79,3.26,2.59,1.51Z" transform="translate(0.5 0.5)"/><path class="cls-5" d="M231.13,478.59a28.81,28.81,0,0,0,12.7-12.16c2.12-3.94,4.71-10.6,3.08-15.08-4.06-11.18-18.32,12.75-19.7,15.93-4.55,10.47-6.77,25-2.15,35.86,5.93,13.92,17.11-5.08,19-11.75a1.5,1.5,0,0,0-2.89-.8c-1.08,3.86-3.44,10.34-7.15,12.55-6.46,3.85-7.43-4.84-7.93-9.25A50,50,0,0,1,235,459.61c1.18-1.67,2.79-4.14,4.49-5.38,1.08-1.6,2.68-1.88,4.77-.86A16.58,16.58,0,0,1,244,456a25.75,25.75,0,0,1-14.42,20c-1.73.86-.21,3.45,1.52,2.59Z" transform="translate(0.5 0.5)"/><path class="cls-5" d="M252.43,472.78c4.27-3.69,8.39-7.83,10.87-13,1.57-3.29,3.27-8.58,1.42-12.09-4.54-8.62-13.57,8.53-14.76,11.84-4.15,11.47-5.11,25.73-1.08,37.4,3.65,10.54,13.84-2.21,16.11-7.17.8-1.75-1.78-3.27-2.59-1.52-1.2,2.63-3.13,6.7-5.83,8-6.41,3.16-6.4-6.49-6.78-10.16a59.1,59.1,0,0,1,2-22.41,36.66,36.66,0,0,1,4.17-9.86c.72-1.11,3.21-4.87,4.57-4.84,2.66,0,1.79,4.28,1.51,5.51-1.49,6.66-6.73,11.83-11.7,16.13-1.46,1.27.67,3.38,2.12,2.12Z" transform="translate(0.5 0.5)"/><path class="cls-5" d="M278,453.84q-4.31,26.52-10.93,52.56c-.47,1.87,2.42,2.67,2.9.79q6.6-26,10.93-52.55c.3-1.89-2.59-2.7-2.9-.8Z" transform="translate(0.5 0.5)"/><path class="cls-5" d="M277.58,481.52a212.19,212.19,0,0,1,28.28-27.87c1.49-1.22-.64-3.34-2.12-2.12a212.19,212.19,0,0,0-28.28,27.87c-1.24,1.47.88,3.6,2.12,2.12Z" transform="translate(0.5 0.5)"/><path class="cls-5" d="M276.57,484.08l21.84,16.49c1.55,1.16,3-1.44,1.52-2.59l-21.85-16.49c-1.54-1.16-3,1.44-1.51,2.59Z" transform="translate(0.5 0.5)"/><path class="cls-6" d="M353.07,625.32a2.31,2.31,0,0,1,.36-1.06,2.27,2.27,0,0,1,1.54-.61l28.57-3.47a3.18,3.18,0,0,1,1.15,0,2.53,2.53,0,0,1,1.65,2.12c.43,2.39-1,4.81-2.94,6.24a18.34,18.34,0,0,1-6.71,2.66q-9.17,2.26-18.52,3.72c-2.17.34-4.65,1.43-5.83-.43C351.33,632.9,352.79,627.13,353.07,625.32Z" transform="translate(0.5 0.5)"/></svg>