<svg xmlns="http://www.w3.org/2000/svg" viewBox="0 0 296.67 301.4"><defs><style>.cls-1{fill:#ef9300;}.cls-2{fill:#dc7900;}.cls-3{fill:#280303;}.cls-4{fill:#fff;}.cls-5{fill:none;stroke:#280303;stroke-miterlimit:10;}</style></defs><title>Asset 5</title><g id="Layer_2" data-name="Layer 2"><g id="Layer_2-2" data-name="Layer 2"><path class="cls-1" d="M98.85,2.51A9.08,9.08,0,0,0,88.56,8c-.86,2.3-.71,4.82-.79,7.27-.16,4.75-1.31,9.62-4.23,13.36s-7.33,6.2-8.79,10.6a6.41,6.41,0,0,1-1,2.29c-.58.68-2.24.87-3.09,1.17C63,45.36,56.8,50,51.23,55.9c-8.41,8.89-13.34,20.45-17.58,31.93a420.33,420.33,0,0,0-17.38,60.56c-1.61,7.79-4.08,16-5.11,23.92L7.35,201.55c-.72,5.49-1.43,11-2.51,16.41-.88,4.42-2,8.81-2.33,13.3a64.64,64.64,0,0,0,.26,10.22q.9,10.61,2.72,21.12c.6,3.49,1.51,7,2,10.46.56,3.81-.53,5.08-2.45,8.49a4.57,4.57,0,0,0-.72,1.84c-.13,1.39,1,2.57,2,3.49a53.57,53.57,0,0,0,25.33,12.33,18,18,0,0,0,8.75-.07c-.39-6.24-1-13.46,2.7-18.62a59.1,59.1,0,0,0,8.31-16.71c7.57-24.05.67-50,.79-75.21a134.49,134.49,0,0,1,13.52-58c4.14,14.13,5.14,29,6.33,43.66a131,131,0,0,1,.63,18.47c-.52,8.6-2.74,17-3.25,25.65A65,65,0,0,0,72.82,243c2.18,6.44-.12,13.32-.94,19.79-.44,3.47-.81,4.52,1.85,6.54s6.82,3.15,9.9,4.37a135.53,135.53,0,0,0,41.28,9.18c5.33.33,10.69.34,16,.26q15.8-.21,31.55-1.38c12.65-.94,25.63-2.43,37.34-7.62,5.76-2.55,10.78-4,9.89-10.74a65.19,65.19,0,0,1,.75-22.5c1-4.46,2.42-8.8,3.41-13.26a65.06,65.06,0,0,0,1.33-19.08c-.63-8-2.73-15.82-4.13-23.73a135.69,135.69,0,0,1,2.75-59.22c10.51,8.82,13.43,23.56,15.58,37.11,1.76,11.14,3.44,22.33,3.74,33.61.5,18.88-2.87,38.2,2.12,56.42,1.64,6,4.16,11.71,5.78,17.71A62,62,0,0,1,252.86,293a90.33,90.33,0,0,0,31.26-7.16,6.55,6.55,0,0,0,3-2c1-1.48.69-3.45.58-5.24-.45-7.4,3.5-14.27,5.32-21.46,3.95-15.57-2.19-31.65-5.9-47.28-3.62-15.31-4.93-31.06-7.16-46.64-3.9-27.26-12.82-62.3-22.31-88.15-4.76-13-9.24-17.4-20.3-25.66-4.51-3.38-10-5.14-15.45-6.61a201.13,201.13,0,0,0-21.72-4.62c2.64-4.76,4.9-9.92,5.1-15.36s-2-11.24-6.65-14.09c-3.17-2-7-2.34-10.76-2.52a132.76,132.76,0,0,0-15.58.19,3,3,0,0,1,1.42,2.7l3.25.36-1.67,6.87,3.08,3.89a2.58,2.58,0,0,0-3.23-.43l.46,15.05a6.28,6.28,0,0,1-.22,2.37,5.68,5.68,0,0,1-2,2.39c-7.86,6-19.69,6.69-25.18,14.89-8-8.85-16.7-18.19-28.49-20.08a92.47,92.47,0,0,0,3-21.77A73.69,73.69,0,0,0,98.85,2.51Z"/><path class="cls-2" d="M251.55,280a1.11,1.11,0,0,1,1.24-1.28c10.7-1,21.75.76,32.09-2.18,1.73,1.25,1.78,4,.65,5.77s-3.08,2.91-5,3.86a54.57,54.57,0,0,1-21.6,6.09c-2.09.1-5,.49-6.48-1.37C250.58,288.47,251.35,282.83,251.55,280Z"/><path class="cls-2" d="M186.78,43.35c-1.51.73-3.14,1.59-3.73,3.15-.7,1.84.45,4,2.15,5a9.62,9.62,0,0,0,5.74.88,25.84,25.84,0,0,0,9.57-2.83c2-1.05,4.08-2.71,4.13-5,.06-2.59-3.38-7-5.68-7.07C195.9,37.33,189.58,42,186.78,43.35Z"/><path class="cls-2" d="M20.42,292.91c2.94,2.7,6.82,4.06,10.59,5.35,2.25.76,4.85,1.5,6.88.27s2.63-3.94,2.7-6.34a28.9,28.9,0,0,0-.29-4.92,5.79,5.79,0,0,0-.88-2.64c-1-1.36-2.82-1.74-4.49-2-3.84-.55-12.9-2.88-16.42-.8C14.45,284.25,17.88,290.58,20.42,292.91Z"/><path class="cls-2" d="M195.39,251.75a22.32,22.32,0,0,0,14.6-13c3.47-8.58,1.25-18.25-.34-27.38C200.88,161.08,214,107.31,245,66.7c-2.3,11.24-8,21.38-12.76,31.81-7.62,16.6-12.78,34.58-12.87,52.84,0,6.11.51,12.21.7,18.32s.05,12,.63,17.9c.9,9.25,3.51,18.27,4.45,27.51s0,19.19-5.53,26.68A26,26,0,0,1,195.39,251.75Z"/><path class="cls-2" d="M193.21,238.83c-9.54,4.62-20.45,5.35-31,6-17.69,1.09-35.74,2.14-52.88-2.36-5-1.32-10.74-4.05-11.43-9.2-.27-2.06.57-4.41,2.45-5.28,2.25-1,4.81.31,7,1.44,12,6.11,26.06,6,39.51,5.84,11.57-.18,23.19-.35,34.65-2.13,3.71-.58,11.75-4.22,15.3-3.08C202.21,231.8,195.89,237.53,193.21,238.83Z"/><path class="cls-2" d="M201.27,265.06l-.71,7.11a2.51,2.51,0,0,0,.16,1.49c.44.76,1.49.83,2.37.77A27.52,27.52,0,0,0,215,270.79a8.51,8.51,0,0,0,3-2.52,9.23,9.23,0,0,0,1.14-4.57,69.28,69.28,0,0,0-.93-16.46c-6.54,2-12.87,4.68-19.53,6.19-7.07,1.61-14.38,1.84-21.63,2.08-33.76,1.08-68,2.11-100.81-6.1a3.11,3.11,0,0,0-2.23,0,2.85,2.85,0,0,0-1.13,1.74c-1.15,3.65-2,6.43,1.47,8.06,3.7,1.73,9.33,1.84,13.37,2.53q13.59,2.34,27.33,3.75a402.26,402.26,0,0,0,55.1,1.86Q185.7,266.82,201.27,265.06Z"/><path class="cls-2" d="M78.32,150.28c1.53,11.72.73,23.6.34,35.41-.47,14.67-.53,30.25-8.34,42.67-3.5-12.25,0-25.24,1.34-37.91,1.5-14.31.16-28.75-2.24-42.89-1.13-6.6-4.14-14.2-4.16-20.84,0-9.1,5.85.29,7.4,3.55A66.33,66.33,0,0,1,78.32,150.28Z"/><path class="cls-2" d="M63.52,129.42c-2,8.27-6.07,15.89-8.57,24-4.42,14.39-3.68,29.79-2.89,44.82l1.71,32.79c.29,5.69.59,11.38.32,17.07-.5,10.43-3.05,21-9.06,29.56A12.66,12.66,0,0,1,40.59,282a5.46,5.46,0,0,1-5.88-.36c3-5.3,5.78-10.77,7.36-16.65a70.31,70.31,0,0,0,2-13.8c1.41-22.6-1.37-45.23-1.93-67.86s1.28-46,11.26-66.32c2.27-4.64,4.64-9,5.55-14.18,1.1,4.21,3.91,7.5,4.93,11.82A32.6,32.6,0,0,1,63.52,129.42Z"/><path class="cls-2" d="M239.62,130.62c3.38,15.61,9.81,30.41,13.35,46,7.65,33.62,1.47,68.6.27,103-11.45-23.48-11.41-50.67-11.69-76.79s-1.44-53.54-14.79-76a11,11,0,0,1-1.56-3.4,10.26,10.26,0,0,1,.47-4.55c4.71-18.4,9.85-37.6,22.64-51.65A181.56,181.56,0,0,1,275,130.77c2.33,11.1,3.6,22.4,5.27,33.62,3.6,24.21,9,48.12,12.59,72.33,1.17,8,2.13,16.2.18,24S285.61,276,277.81,278c5.07-17.87,5.32-36.8,3.48-55.29s-5.72-36.69-8.81-55c-2.46-14.58-4.43-29.3-8.52-43.51a115.59,115.59,0,0,0-7.93-20.5c-1.61-3.16-7.88-17-12.52-15.92s-5.66,16.59-5.88,20.16A83.33,83.33,0,0,0,239.62,130.62Z"/><path class="cls-2" d="M116.69,69.3c11.06,4.31,20.78,12,32.3,14.86,9.67,2.42,20,1.24,29.44-2s18.09-8.37,26.34-14c3.47-2.36,6.94-4.85,9.53-8.15s4.27-7.55,3.62-11.7-4-8-8.19-8.31a4,4,0,0,0-3.86,1.53,3.87,3.87,0,0,0-.45,1.23c-.48,2.27.12,4.61.17,6.93.16,7.42-5.4,14-12,17.36S179.37,71.3,172,72.23c-3.61.46-7.36,1-10.31,3.14-1.58,1.14-3.3,2.79-5.15,2.2a5.37,5.37,0,0,1-1.66-1A30,30,0,0,0,144.16,71c-2.75-.77-5.65-1.17-8.17-2.53-2.81-1.52-4.87-4.1-7.38-6.07-9.54-7.48-22.85-5.13-34.09-6C92,56.21,82,53.24,80.14,56.28s11.78,6.28,14.11,6.9C101.75,65.14,109.44,66.47,116.69,69.3Z"/><path class="cls-3" d="M174.57,10c8.64-.06,28.76-2.5,29,10.39.19,10.64-8.75,19.3-18.66,21.35-3.15.65-1.82,5.47,1.33,4.82C198.71,44,209.72,32.2,208.48,18.91,207,3,185.94,4.94,174.57,5c-3.22,0-3.23,5,0,5Z"/><path class="cls-3" d="M124.77,8.44C114.88,3.79,100-3.9,89.25,2.34,83.1,5.91,84.53,12.8,84.32,18.71c-.3,8.27-8.59,11.94-12,18.77C65.16,51.76,82.49,56.38,93,57.26c8.78.73,17.59.36,26.12,2.93A52.1,52.1,0,0,1,141,73.57c2.27,2.28,5.81-1.26,3.53-3.54A56.78,56.78,0,0,0,114.18,53.9c-6.7-1.17-13.51-1.09-20.28-1.58-5.62-.41-19.37-1.19-18.08-10,.84-5.69,7.2-9.5,10.33-13.9,3.86-5.42,2.4-10.38,3-16.55,1.38-14.38,26.46-2.25,33.09.87,2.9,1.36,5.44-2.95,2.53-4.32Z"/><path class="cls-3" d="M162.3,79.08c3.39-7.48,14.3-4,20.78-5.11,6.9-1.14,13.23-4.5,18.68-8.79,4.83-3.8,8.3-8,7.69-14.51-.48-5.1-2.35-11.4-6.57-14.61-2.56-1.94-5.06,2.4-2.52,4.32,2.15,1.63,3.17,5.95,3.73,8.42a10.2,10.2,0,0,1-3.18,10.61,37.55,37.55,0,0,1-16.74,9.25c-8.63,2-21.52-2.38-26.19,7.9-1.32,2.91,3,5.45,4.32,2.52Z"/><path class="cls-3" d="M173.66,21.36c5.29-.75,5.17,5.9,3.78,8.78a17.5,17.5,0,0,1-3.22,4.33c-3.36,3.51-7.53,5.78-11.94,7.68C156,44.87,150,47.34,146.21,53.4c-1.7,2.74,2.62,5.26,4.32,2.53,3.8-6.12,10.95-7.72,17-10.68a33.55,33.55,0,0,0,13-10.66c5-7.33,2.49-19.58-8.24-18.05-3.17.45-1.82,5.27,1.33,4.82Z"/><path class="cls-3" d="M149.25,53a53.38,53.38,0,0,0-28.66-20.4c-2.73-.82-5.58-1.3-7.7-3.34a6,6,0,0,1,1.26-9.86c2.8-1.59.28-5.91-2.53-4.32-8.81,5-7,16.7,1.82,20.49C119,38,124.67,39,130,42a49.7,49.7,0,0,1,15,13.51c1.89,2.56,6.23.07,4.32-2.52Z"/><path class="cls-3" d="M166.82,57.34c3.15,6.62,3,13.94,3,21.11,0,6.87-.17,13.75-.68,20.61-1.08,14.27-4,28.37-11.06,40.94-1.58,2.81,2.74,5.33,4.32,2.53,7.51-13.36,10.59-28.32,11.74-43.47.6-8,.74-16,.69-24,0-7.07-.61-13.83-3.69-20.29-1.39-2.9-5.7-.37-4.32,2.52Z"/><path class="cls-3" d="M125.06,45c-8.22,10.21-4.35,23.66-.35,34.83,5.06,14.17,12.52,30.25,5.06,45-1.44,2.86,2.87,5.39,4.32,2.52,6-11.89,3.86-25-.31-37.17-4-11.64-14.42-30.16-5.19-41.63,2-2.48-1.52-6-3.53-3.53Z"/><path class="cls-3" d="M63.87,42.94A67.17,67.17,0,0,0,40.26,65.27c-1.75,2.71,2.58,5.22,4.32,2.52A61.69,61.69,0,0,1,66.4,47.26c2.8-1.58.28-5.91-2.53-4.32Z"/><path class="cls-3" d="M40.54,69.51c13.22,20.38,23.15,43.17,24.06,67.74.12,3.21,5.12,3.22,5,0-.94-25.45-11-49.14-24.74-70.26-1.75-2.69-6.08-.19-4.32,2.52Z"/><path class="cls-3" d="M67.14,152.41a148.63,148.63,0,0,1,1.08,54.14c-2.3,14.49-4.86,30,3.82,43,1.78,2.66,6.11.16,4.32-2.53-9.53-14.24-4.07-31.56-2.15-47.17A149.61,149.61,0,0,0,72,151.08c-.65-3.15-5.47-1.82-4.82,1.33Z"/><path class="cls-3" d="M62.7,126c-10.12,24.36-13.93,50.8-13.26,77.08.34,13.23,3,26.33,3.17,39.53A59.29,59.29,0,0,1,40,279.67c-2,2.51,1.56,6.07,3.53,3.53a65,65,0,0,0,13.49-31.52c1.83-13.74-1.55-27.66-2.31-41.38-1.57-28.25,1.88-56.72,12.78-83,1.23-3-3.6-4.27-4.82-1.33Z"/><path class="cls-3" d="M40.85,280A51.11,51.11,0,0,1,20,277.86c-3.11-1-6.7-2.32-9.23-4.51C8,270.92,7.53,267.47,7.05,264c-1.92-13.77-3.13-27.87-.74-41.65.55-3.15-4.27-4.5-4.82-1.33A108.84,108.84,0,0,0,.2,245.89c.44,7.8.66,16.81,3,24.34C7.4,284,29,286.12,40.85,285c3.18-.29,3.21-5.29,0-5Z"/><path class="cls-3" d="M38.89,68.69A445.92,445.92,0,0,0,3.66,213.29c-.23,3.21,4.77,3.2,5,0A438.9,438.9,0,0,1,43.21,71.21c1.26-2.92-3.05-5.47-4.32-2.52Z"/><path class="cls-3" d="M5.51,275.21a12.84,12.84,0,0,1-3.85,6.55,2.53,2.53,0,0,0,0,3.54c11,9.47,23.84,19.33,39.22,15.08A2.51,2.51,0,0,0,42.71,298a92.54,92.54,0,0,1,.36-13.42c.32-3.2-4.68-3.17-5,0A92.54,92.54,0,0,0,37.71,298l1.84-2.41c-13.46,3.72-24.82-5.57-34.36-13.8v3.54a17.43,17.43,0,0,0,5.14-8.76c.78-3.12-4-4.45-4.82-1.33Z"/><path class="cls-3" d="M204.49,41.46a70.2,70.2,0,0,1,38.72,18c2.37,2.17,5.91-1.36,3.54-3.54a75.89,75.89,0,0,0-42.26-19.48c-3.18-.4-3.15,4.6,0,5Z"/><path class="cls-3" d="M247.08,64a193.41,193.41,0,0,0-29.22,86.28,174.06,174.06,0,0,0,2,45.64c1.54,8.69,3.59,17.43,2.88,26.31a46.73,46.73,0,0,1-8.6,23.06c-1.85,2.65,2.48,5.15,4.32,2.53,8.95-12.82,10.59-27.25,8.17-42.41-2.6-16.26-5.07-31.88-4.23-48.44a187.66,187.66,0,0,1,29-90.44c1.73-2.73-2.59-5.24-4.31-2.53Z"/><path class="cls-3" d="M74.33,251.21c23.56,7.32,48.64,8.72,73.17,8.35,23.28-.35,49.11-1.09,70.83-10.29,3-1.25.41-5.55-2.52-4.31-10.84,4.59-22.57,6.27-34.2,7.52q-18,1.92-36.07,2.11c-23.48.23-47.33-1.2-69.88-8.21-3.08-.95-4.39,3.87-1.33,4.83Z"/><path class="cls-3" d="M70.39,247.53c-.37,6.29-1,12.53-2,18.76-.5,3.14,4.32,4.5,4.82,1.33q1.59-10,2.19-20.09c.18-3.21-4.82-3.2-5,0Z"/><path class="cls-3" d="M68.92,267.72c9.42,8.31,23.93,11.39,36,13.55,13.62,2.46,27.51,3.1,41.33,3,25.2-.22,53.92,0,75.47-15,2.62-1.83.12-6.16-2.53-4.32-20.39,14.17-47.25,14-71.12,14.29-13.07.18-26.23-.22-39.16-2.32-11.8-1.91-27.19-4.57-36.42-12.72-2.4-2.12-6,1.4-3.53,3.54Z"/><path class="cls-3" d="M217.43,243.2l.09,24c0,3.21,5,3.22,5,0l-.09-24c0-3.22-5-3.23-5,0Z"/><path class="cls-3" d="M223.08,124.35c7.24,11.73,10.76,25,12.89,38.49a258.25,258.25,0,0,1,3.45,43.28c-.32,25.27-1.59,51.44,12.59,73.67,1.73,2.7,6.06.2,4.32-2.52-15.28-23.94-11.27-51.67-11.94-78.54a276.07,276.07,0,0,0-4.17-40.66c-2.25-12.75-6-25.18-12.82-36.25-1.69-2.73-6-.22-4.32,2.53Z"/><path class="cls-3" d="M248.88,68.92c19.55,27.24,24.23,63.24,28.72,95.62,2.57,18.53,4.69,37.16,8.75,55.44,2.13,9.65,5.37,19.32,5.35,29.3a42.12,42.12,0,0,1-9,25.6c-2,2.56,2.38,5.05,4.31,2.53a46.45,46.45,0,0,0,9.41-22.86c1.13-9.65-1.2-19.15-3.46-28.47-4.73-19.47-7.28-39.27-10-59.09-4.62-34-9.21-72-29.74-100.59-1.86-2.59-6.2-.1-4.32,2.52Z"/><path class="cls-3" d="M255.65,282a101.17,101.17,0,0,0,30.91-3.81l-3.07-1.74c.94,4.1.62,5.66-3.32,7.65a57.53,57.53,0,0,1-9.05,3.62A60.56,60.56,0,0,1,253,290.28l2.42,1.84a21.67,21.67,0,0,1,0-12.66c.9-3.1-3.92-4.42-4.82-1.33a26.9,26.9,0,0,0,0,15.32,2.56,2.56,0,0,0,2.41,1.83,64.78,64.78,0,0,0,26-5.13c2.84-1.21,8-2.84,9.76-5.58s.25-6.57-.41-9.44a2.54,2.54,0,0,0-3.08-1.75A96.28,96.28,0,0,1,255.65,277c-3.21-.11-3.21,4.89,0,5Z"/><path class="cls-3" d="M98.93,229.61c8.76-8,9.15-19.81,8.87-30.88l-2.5,2.5q36.35-1.93,72.74-.86c3.22.1,3.22-4.9,0-5q-36.37-1.08-72.74.86a2.53,2.53,0,0,0-2.5,2.5c.24,9.73.36,20.28-7.41,27.35-2.38,2.17,1.16,5.7,3.54,3.53Z"/><path class="cls-3" d="M107.54,236.93c30.3,2,61.48,3.83,90.6-6.44a2.54,2.54,0,0,0,.6-4.57,23.79,23.79,0,0,1-9.54-22.42c.43-3.14-4.39-4.5-4.83-1.33a29.14,29.14,0,0,0,11.85,28.07l.6-4.57c-28.73,10.13-59.41,8.28-89.28,6.26-3.21-.21-3.2,4.79,0,5Z"/><path class="cls-4" d="M24.35,170.17a190,190,0,0,1,13.23-63c.71-1.79-2.19-2.57-2.89-.79a192.38,192.38,0,0,0-13.34,63.76c-.07,1.93,2.93,1.93,3,0Z"/><path class="cls-4" d="M20.49,178.86a37.81,37.81,0,0,0,.5,9.08c.33,1.9,3.23,1.1,2.9-.79a34.36,34.36,0,0,1-.4-8.29c.14-1.93-2.86-1.92-3,0Z"/><path class="cls-4" d="M111.58,122.92c1.73-3.77,5-12.31,1.39-16.09-3.4-3.56-7.83,1.79-9.91,4.32C93.5,122.8,91.19,140.59,92.82,155.1c.46,4.11.51,13.27,5.82,14.31,5.5,1.07,10.64-7,13.13-10.69a51.21,51.21,0,0,0,4.79-8.94c1-2.27,2.94-6,2.3-8.66-1.37-5.63-11.68-2.16-15.23-1.71-1.89.24-1.91,3.25,0,3,3-.38,11.91-3.24,11.94,1.21,0,3.83-3.5,9-5.5,12.22-1.82,2.87-8.08,13.35-12.67,7.88-.86-1-.89-4-1.12-5.39a68.86,68.86,0,0,1-.87-8.72,67.17,67.17,0,0,1,4.15-26.08,35.59,35.59,0,0,1,6.63-11.43c2-2.21,4.53-3.37,5.1.45.4,2.67-1.23,6.53-2.3,8.86-.8,1.74,1.79,3.27,2.59,1.51Z"/><path class="cls-4" d="M131,135.31a28.81,28.81,0,0,0,12.7-12.16c2.11-3.94,4.71-10.6,3.08-15.08-4.06-11.17-18.32,12.76-19.7,15.93-4.55,10.47-6.77,25-2.15,35.86,5.93,13.92,17.11-5.08,19-11.75a1.5,1.5,0,0,0-2.89-.79c-1.09,3.85-3.44,10.33-7.15,12.54-6.46,3.86-7.43-4.83-7.93-9.24A50,50,0,0,1,129.09,127a49.1,49.1,0,0,1,5.76-10.7c1.18-1.66,2.79-4.14,4.49-5.38,1.08-1.6,2.68-1.88,4.77-.86a16.78,16.78,0,0,1-.18,2.65,25.75,25.75,0,0,1-14.42,20c-1.73.86-.21,3.45,1.52,2.59Z"/><path class="cls-4" d="M152.33,129.5c4.27-3.69,8.39-7.83,10.87-13,1.57-3.28,3.27-8.58,1.42-12.09-4.54-8.62-13.57,8.53-14.76,11.84-4.15,11.47-5.11,25.74-1.08,37.4,3.65,10.55,13.84-2.21,16.11-7.17.8-1.75-1.78-3.27-2.59-1.52-1.2,2.63-3.13,6.7-5.83,8-6.41,3.16-6.4-6.49-6.78-10.16a59.1,59.1,0,0,1,2-22.41,36.66,36.66,0,0,1,4.17-9.86c.72-1.11,3.21-4.86,4.57-4.84,2.66,0,1.78,4.28,1.51,5.51-1.49,6.66-6.73,11.83-11.7,16.13-1.46,1.27.67,3.38,2.12,2.12Z"/><path class="cls-4" d="M177.92,110.56q-4.3,26.52-10.93,52.56c-.47,1.87,2.42,2.67,2.89.8q6.62-26,10.94-52.56c.3-1.89-2.59-2.7-2.9-.8Z"/><path class="cls-4" d="M177.48,138.24a213.41,213.41,0,0,1,28.28-27.87c1.49-1.22-.64-3.33-2.13-2.12a212.71,212.71,0,0,0-28.27,27.87c-1.24,1.47.87,3.6,2.12,2.12Z"/><path class="cls-4" d="M176.47,140.8l21.84,16.49c1.54,1.17,3-1.44,1.52-2.59L178,138.21c-1.54-1.16-3,1.44-1.51,2.59Z"/><path class="cls-5" d="M253,282a2.31,2.31,0,0,1,.36-1.06,2.27,2.27,0,0,1,1.54-.61l28.57-3.47a3.18,3.18,0,0,1,1.15,0,2.53,2.53,0,0,1,1.65,2.12c.43,2.39-1,4.81-2.94,6.24a18.54,18.54,0,0,1-6.71,2.67q-9.16,2.25-18.52,3.71c-2.17.34-4.65,1.43-5.83-.43C251.23,289.63,252.69,283.85,253,282Z"/></g></g></svg>