<svg id="Layer_1" data-name="Layer 1" xmlns="http://www.w3.org/2000/svg" viewBox="0 0 501 1004.6"><defs><style>.cls-1,.cls-11,.cls-12,.cls-13,.cls-15,.cls-7,.cls-8,.cls-9{fill:none;}.cls-1,.cls-8,.cls-9{stroke:#fff;}.cls-1{stroke-miterlimit:10;opacity:0;}.cls-2{opacity:0.23;}.cls-3{fill:#f2b892;}.cls-4{fill:#e3a075;}.cls-5{fill:#a6edeb;}.cls-6{fill:#7ad1ce;}.cls-7{stroke:#000;}.cls-11,.cls-12,.cls-13,.cls-15,.cls-7,.cls-8,.cls-9{stroke-linecap:round;stroke-linejoin:round;}.cls-11,.cls-7{stroke-width:6px;}.cls-12,.cls-15,.cls-8{stroke-width:5px;}.cls-9{stroke-width:4px;}.cls-10{fill:#f79678;}.cls-11,.cls-12,.cls-13{stroke:#280303;}.cls-13{stroke-width:3px;}.cls-14{fill:#280303;}.cls-15{stroke:#2c0404;}</style></defs><title>f-base1</title><rect class="cls-1" x="0.5" y="0.5" width="500" height="1000"/><ellipse class="cls-2" cx="261.21" cy="960.52" rx="112.85" ry="44.09"/><path class="cls-3" d="M83.17,215.72l12.46-5.37,13.2-.85,9.32,4.05,4.76,7.84s1.37,14.12,1.49,17.31,3.07,17.85,3.71,19.71,3.83,12.08,3.83,12.08l-1.41,8.3-16.22,5.41S99.49,283,99.07,282.82s-13-9.28-13.36-9.79-10.92-20.67-10.92-20.67l.59-13.66s1-7.15.51-7.91.64-6.51.64-6.51Z" transform="translate(0.5 0.5)"/><polygon class="cls-3" points="379.52 247.88 379.58 272.43 384.56 285.26 406.37 290.53 419.16 285.33 428.72 272.07 433.23 254.86 431.97 237.49 427.37 222.87 418.69 214.66 401.92 213.06 389.38 217.75 385.71 218.38 379.52 247.88"/><path class="cls-4" d="M98.51,237.87s-11,6.28-2.06,18.53l5.7-5.78,9.53-.85s6.06,3.4,5.32,3.49-3.94-7.67-3.94-7.67L105,240.06Z" transform="translate(0.5 0.5)"/><path class="cls-4" d="M392.23,260.4l-.94-10.11,9.62-12.35,5.75-4.22s11.48,1.28,8.55,13.34l-12,4.23-7.95,9.11Z" transform="translate(0.5 0.5)"/><path class="cls-4" d="M107.72,209.86s.15,26.75,3.8,34.46,8.42,13.29,6.54,19.33-12.76,21.22-37.27-1.44l3.91,9.51,9,8.52,11.58,5.27,19.14-4.69,7.35-9.44s-3.35-15-3.85-15.32S123.53,227,123.53,227l-.92-9.63L113,210.79Z" transform="translate(0.5 0.5)"/><path class="cls-4" d="M394,214.34a216.17,216.17,0,0,1-1.15,25.13c-1.4,12.38-6,27.19-5.1,31.91s3.83,10.09,14.8,6.77,23.84-20.22,22.86-33.83c-1-13.28-8.75-29.68-8.75-29.68l14.87,14.87,1.18,28.21-9.22,22.85-14.8,8.3-16.09,2.43L381.13,282l-4.47-8.17,2.36-20.3,4.15-22.64,3.32-13.36Z" transform="translate(0.5 0.5)"/><path class="cls-3" d="M226.83,45.66H247.6l36.08,3.94,19.53,7.83,14.16,7L335.8,77.65l12.22,13,16.17,13.44,10.9,21.28,8.23,13.92,4.36,16.23,1.56,15.13-2.77,39.07L379,254.53l-4.7,26.83-10.15,27.9-20.4,26.29-28.26,13.38-43.09,10.9-24,3.47-24.07-3.18L191,349.19S167.26,335.38,167.6,334s-16.69-19.48-18.22-24.55S136,284.76,136,282.33s-9.55-34.55-9.55-34.55S122.2,219.7,122,219.33s.27-33.94.27-33.94l3.13-34.2,4-23,12.7-36.51,17.56-18.33,16.76-11.63,15.49-7.15,15.67-4.79Z" transform="translate(0.5 0.5)"/><path class="cls-4" d="M305.93,65.51c.25.28,2.65,2.21,7.1,5.83A158.74,158.74,0,0,1,339,98.53a157.27,157.27,0,0,1,18.72,29.28c2,4.1,10.19,21.91,12.6,52.42,1.66,21.08,4.11,52.19-11.24,87.49-5.49,12.65-21.29,49-60.25,69.45-31,16.26-62.6,15.14-73.19,14.64-19.78-.93-35.77-5.73-36.09-4.43s15.91,7.85,35.06,10.56c15.31,2.16,27.35,1.17,41.54,0,16.19-1.34,24.31-2,35.4-5.45,18.1-5.61,30.3-14.31,37.79-19.75,9.33-6.77,16.74-12.14,23.49-22.12,7.08-10.48,9.47-20.18,11.23-27.58,4.25-17.9,6.21-22,8.39-50.21,1.29-16.6,3.41-12,4.53-29.57.68-10.62,2.65-26.84,1.69-41.19-1.05-15.61-9.8-23.83-13.93-33.24-3.22-7.36-7-12.29-12.25-19.06-8.28-10.73-14.08-18.4-18.13-23.09C329,68.94,282.15,39.21,305.93,65.51Z" transform="translate(0.5 0.5)"/><path class="cls-4" d="M237.68,264.73a4.56,4.56,0,0,1-.37-3.32c.63-1.57,2.78-2,4.36-1.4a12.85,12.85,0,0,1,4,3.09,19.73,19.73,0,0,0,10.65,5.52,12.59,12.59,0,0,0,11.09-3.76c1.27-1.44,2.2-3.28,3.87-4.22a3.14,3.14,0,0,1,2.4-.37,2.87,2.87,0,0,1,1.82,2.12,5.39,5.39,0,0,1-.23,2.89,17.46,17.46,0,0,1-3.85,6c-2.41,2.74-5.23,5.42-8.79,6.19a16.83,16.83,0,0,1-4.86.15,57.92,57.92,0,0,1-7.51-1.13,17.65,17.65,0,0,1-6.07-2.29c-1.89-1.27-2.4-2.82-3.47-4.67C239.72,267.85,238.42,266.64,237.68,264.73Z" transform="translate(0.5 0.5)"/><path class="cls-5" d="M190.3,523.87s-12.58-22-13.39-22.87-4.38-15.15-4.55-17.45,2-18.46,2.55-20.17,4-11.37,4-11.37l16.94-9.44,42.57-8.8L289.81,438,315,449.75l11.05,8.36L325.72,472l.34,15.36s-1.36,16-2.38,16.51-7.13,15.94-7.13,15.94l-5.12,5.34-11.58-2.89-10-4.94-35.94-6.47-22.78,2-21.45,5.28-14.3,4.43Z" transform="translate(0.5 0.5)"/><path class="cls-6" d="M318.86,452.36s-9.71-3.07-12,10.21,0,29.62-5.88,44.17c0,0-61.27-23.49-111.06,2.55,0,0-7.4-15.57-7.4-26s-2.05-11.23-6.64-16.34l-3.07,9.19,2.3,14,7.92,23,9.7,12,15.32-6.38L230,513.38l44.43-1.53,31.66,8.68,5.34,4.64,10.23-17.66L325.75,484V468.19l-1.53-13.28Z" transform="translate(0.5 0.5)"/><path class="cls-3" d="M181.17,588.19l7.45-13.4,5.19-24.51S192.45,532.54,192,532s.27-7.4.27-7.4l15.15-6.42,22.66-5,29-2.3,22.85,3.55,16.59,4.75,9.23,6,2.53,1.7,1.15,1.89s.1,4.23.49,8.16,1.8,14.12,2.28,16.65,4.25,19.73,4.25,19.73l3.82,7.4,1.4,6.39v.63l-16.78,6.46-40.28,5.67-40.09,1-27.74-4.71Z" transform="translate(0.5 0.5)"/><path class="cls-3" d="M229.38,362.87h33.28l14.75-3a60.42,60.42,0,0,1,.91,9.26c-.17,2.89,0,14,0,14l.08,6,15.54,6.38s14,.94,17.35,3.34,25.41,6.81,28.09,9.52,8.42,10.76,9.87,12.64,11.54,17.73,11.54,17.73S365.6,458,367,464.79s3,21.19,4.31,29.8,1.67,14.92,3.17,20,6,11.58,6.75,14.08,7,31.45,7,31.45a72,72,0,0,1,2.9,19.12c.31,11.47,0,33.56,0,33.56s.4,12.95.22,15.49-.49,2.27-.27,3.69,12.47,4.82,12.47,4.82l22.86,23L431,668.3l1,5.38s0,2.72-.37,3.23-5.37,2.47-8.17,2.81,1.84,6.56,1.84,6.56l-1.16,10s-6.37.95-7.07.77-3.76-.26-4.24,1-.78,3.18-4,3.74-3.07,1-5.79.56a32.5,32.5,0,0,1-5.79-1.62s-5.7-13.7-6.47-15.31-9.29-14-9.78-16.34-4.51-8.09-4.51-8.09l-2.64,1-2.21,8.35-3.07,8.51-6.72,6.47L358,681.17l.51-11.23L362,652.83l.68-9.36v-7.66l-2.72-46.13-6.56-44.25L350,532.57l-2-11.91s-4.09-17-4.51-18.38-4.17-10-4.17-10l-4.94-15s-6.47-9.11-7.15-11.24a61.59,61.59,0,0,0-3.23-8.59c-1.11-2-7.15-8.86-8.17-9.28s-36.09-11.75-36.09-11.75-25.49,0-38-.08a233.68,233.68,0,0,0-26.09,1.55s-18,3.22-19.75,4-14.38,5.53-15.23,6.89-4.34,8.5-5.45,10.89-5.21,15.61-5.46,18-6.54,16.54-6.62,16.8-4.69,31.66-6,34.81-7.61,36.07-8.1,40.43-3.14,14.46-3.48,17.86.4,22.72.27,28-.3,13-.26,19,.26,15.58.26,15.58L151,665.6l.85,15.14-1.79,6s-3.57,1.27-4,1.1-2.8-2.89-3.23-3.23-6.44-5.7-6.44-5.7-.45-10.9-.54-11.41-1.13-6.37-1.13-6.37l-8,10.8-14,26.75-8.12,6.38s-5.52.33-6,.15-5.16-5.45-5.16-5.45l-7.18,1.36s-3.32-1.62-3.41-3.23-.08-6,0-6.56,2.22-6.81,2.22-6.81l-6-4s-3.32-4.8-3.32-5.23,4.08-9.27,4.08-9.27l8.43-12.34,13.1-10,12.34-6.64,4.09-2.13s-.34-20.08-.34-21-1.28-16.51-1.36-17.87-.51-12-.51-12,.59-18.13.76-20.43,1.19-12.17,1.53-16,3.83-17.1,3.83-17.1,7.66-18.64,7.66-20l2.47-13.71a162.39,162.39,0,0,1,2.64-21.27c2.21-11.41,4.2-19.13,4.3-19.59s6.37-18.69,6.48-20.36,10.75-18,10.75-18l10.89-10.21,13.28-5.7,15.32-6.13,13.79-3.41L229,386s1.45-7.91,1.53-10.13S229.38,362.87,229.38,362.87Z" transform="translate(0.5 0.5)"/><path class="cls-3" d="M266.11,676.71,292.36,674l42.43-8s8.37-2.05,8.8-2.23,2.18,17.93,2.18,17.93l.81,42.26L338,761l-7.31,24.69s-2.68,5.75-2.68,6.77v8.3c0,1.4,3.7,11.1,4.21,11.61s1.49,15.3,1.49,15.3l2.09,22.58a68.72,68.72,0,0,1,.38,17.78c-1,10.47-9.42,52.15-9.42,52.15l-5.64,16.66,6.67,2.83,12.35,6.11,2.81,8.11s.13,6.06-.77,7.59-1.4,4.21-8.42,5.75-25.66,2.34-31.28,3.72-20.55-.66-20.55-.66-7.84-4.23-9.22-4.92-1.15-5.68-1-6.75,6.13-15.27,6.13-15.27l10.26-5.23s-2.85-4.85-3.49-5.75-5.54-33.8-6-38.54-1.87-24.65-1.87-24.65l2.72-41,4.72-23.49-6-25.77-9-36.78Z" transform="translate(0.5 0.5)"/><path class="cls-3" d="M166.7,673.47l21.18,2.4,51,1.76,11.28-1.27.65,22.68V737.6l-8,47.66-7.23,20.65.51,13.11L238,850.28l-3.21,48.27s-5.33,25.32-4.25,26.71,0,10.21,0,10.21l13.64,5.8,7.46,7.09V959s1.57,7-6.74,8-21.08,3.8-27.46,4-31.82-7.24-31.82-7.24l-2.05-2v-9.56l16.6-14.78-.06-7.24s-11.93-32.67-13-37.5S182,859.13,182,859.13l3.86-36.91L189,808.43s1.94-8.92-4-21.09c-6.18-12.62-17.08-61.49-17.08-61.49Z" transform="translate(0.5 0.5)"/><path class="cls-4" d="M177,453.56s-26.55,16.51-38.3,122.21c-7.2,64.8-3.23,95,2.22,105.32,3.45,6.5,8.5,2.43,8.5,2.43l1-9.36s-4.94-19.41-5.28-20.77-2.55-18.38-2.21-20.93,2.55-46.13,2.55-46.13L150.91,552l5.19-26.22,3.66-20.42,10.89-30Z" transform="translate(0.5 0.5)"/><path class="cls-4" d="M322.45,452s27.92,28.93,39.15,75.91,13.62,83.41,10.22,146.73L366,684.83l-7.83-3.74-1.36-10.22,4.76-17,2-11.57-2.73-40.17-3.74-25.54-4.09-25.19-5.24-30-9.06-25.54-7.14-18-7.15-13.62Z" transform="translate(0.5 0.5)"/><path class="cls-4" d="M166.76,685.34s19.23,6,60.93,6.47c0,0-6.47,35.57-3.06,67.91s-6.47,48-6.81,69.79S228,896.91,224.63,918l-2.13,15,8.3,1.28s3.83-18.77,3.7-21.06,2.55-35.62,2.55-36.52,1-39.19,1-41.1-2.17-11.49-3.06-15.32a60.7,60.7,0,0,1-.89-10.49l10.21-26.53,4.47-39.45s1.49-20.68,2-21.83,1-31.28,1-31.28-1.06-8.68-1-9.19-1.32-6.38-1.32-6.38L229.9,677l-29-2.3L179,674l-9.7-1.15-1.92,2.81Z" transform="translate(0.5 0.5)"/><path class="cls-4" d="M288.7,688.57s26.63-2.43,36.46-5.11c0,0,4,42.65-1.82,71.75S307,805.77,310.06,823.13s11,55.15,7.92,85.27-4.6,28.86-4.6,28.86h6.13l5.36-8.43s4.85-12,4.85-14.55,6.64-36.77,6.64-36.77,2-17.36-2.3-47.23-5.61-33.45-5.61-33.45l-.51-4.85,6.38-18.89,8.17-36.26,5.36-38.55s-1.53-24-1.53-25-.51-13.54-.51-13.54l-22.72,4.85-41.88,4.34-14,3.07v43.4l7.92,45.71,4.85,24.51s2.8,14,2.8,14.8,1,9.71.77,12-1,7.66-1,7.66,15.57-18.63,13.79-50.55S294.32,730.32,288.7,688.57Z" transform="translate(0.5 0.5)"/><path class="cls-4" d="M228.61,383.6A42.28,42.28,0,0,0,254,389c14.81-1.53,23.74-7.28,23.74-7.28l-.64-23.23-40.72,2.17-9.06.89Z" transform="translate(0.5 0.5)"/><path class="cls-5" d="M179.68,588.32l-11.74,28.77s-5.28,34.21-5.28,34.72.88,18.56.88,18.56,15.89,5.94,16.14,5.27,47.49,2.89,47.49,2.89l23.07-1.1,7.06-44v7.66l6,13.61,1.25,14.66,1.6,7.35,29-2,23.37-4.53,26-6.47s3.19-1.3,3.09-2.1-5.93-31.51-5.93-31.51-7.54-27.24-8.19-29.26S327,586.19,327,586.19l-8.55,4.68L299.51,595l-20.42,3.74-40,1.7-26.22-1.53L182.4,590.7Z" transform="translate(0.5 0.5)"/><path class="cls-4" d="M191.14,538.3l2.43-15.06s20.81-8,42.77-10.59,64.72,5.87,64.72,5.87l10.47,10.21s1.66,19.15,1.66,21.19S320,572.65,320,572.65s4.34,9.57,4.09,11.1-.64,5.49-1,6-15.45,4.47-16.86,4.85-51.19,5-51.19,5l-44.08-1.53-28.6-7.83-.68-5.11,3.24-6.64a133.59,133.59,0,0,0,51.74,9.37c29.62-.51,45.11,0,63-6A219.51,219.51,0,0,1,296,533s-17.7-11.58-51.57-9-53.28,16.51-53.28,16.51Z" transform="translate(0.5 0.5)"/><path class="cls-6" d="M177.57,595.89s8.43,14.3,53.87,16.6,76.6-4.34,76.6-4.34,9.27,38.64,15.13,60.38l17.55-6,6.38-2.81V651l-12.25-43.4-6.39-21.45-14.29,6.64-26.05,3.06L244,599.72l-41.36-2.55-21.7-8.43Z" transform="translate(0.5 0.5)"/><path class="cls-7" d="M249.25,269.52" transform="translate(0.5 0.5)"/><path class="cls-7" d="M239.29,258" transform="translate(0.5 0.5)"/><path class="cls-7" d="M272.1,258" transform="translate(0.5 0.5)"/><path class="cls-7" d="M260.1,270.29" transform="translate(0.5 0.5)"/><path class="cls-3" d="M166.57,676.71" transform="translate(0.5 0.5)"/><path class="cls-8" d="M230.17,449.85s-23.75.51-32.81,4.09-9.45,5.87-10,8.93-1.79,7.79,1,18.26" transform="translate(0.5 0.5)"/><path class="cls-8" d="M190.21,489a12.48,12.48,0,0,0,2,5.64" transform="translate(0.5 0.5)"/><path class="cls-9" d="M192.38,408.54s-16.26,3.24-30.81,19.15" transform="translate(0.5 0.5)"/><line class="cls-9" x1="157.39" y1="433.06" x2="155.86" y2="435.45"/><path class="cls-9" d="M182.44,610.56s-5.53,9-7,47" transform="translate(0.5 0.5)"/><path class="cls-9" d="M176.37,702.7A126.14,126.14,0,0,0,183,742" transform="translate(0.5 0.5)"/><path class="cls-10" d="M318.24,255.62a20.47,20.47,0,0,1,7.83-2.09,63.21,63.21,0,0,1,21.06,1.34c2.25.53,4.88,1.64,5.18,3.93a4.8,4.8,0,0,1-2,4c-2.84,2.51-6.74,3.4-10.48,4-6.61,1.05-15.37,2.62-22,1.08S313.29,258.36,318.24,255.62Z" transform="translate(0.5 0.5)"/><path class="cls-10" d="M163.4,259.62c6.35-2.09,13.17-2.17,19.85-2.06,3.64.06,7.47.23,10.56,2.16s5,6.26,3,9.34c-1.74,2.78-5.5,3.29-8.77,3.51-8.47.56-17.43,1.14-25.69-1.28C154.45,269,156.09,262,163.4,259.62Z" transform="translate(0.5 0.5)"/><path class="cls-11" d="M219.34,390S206,393.17,183,401.85s-42.38,20.43-48.51,81.7" transform="translate(0.5 0.5)"/><path class="cls-11" d="M131.94,498.11s2,4.08-4.09,20.42-11.49,31.15-11.49,56.68,1.53,60.26,1.53,60.26-12.44,5.27-22.29,13.62c-12.71,10.76-24.34,28.42-15.59,32" transform="translate(0.5 0.5)"/><path class="cls-11" d="M96.21,696.07s-1.47,4.5-5.3,4.59-9.19-.68-6.55-10.47,10-24.93,25.53-34.47" transform="translate(0.5 0.5)"/><path class="cls-11" d="M119.17,661.51s-14,13-19.15,23.83-5.81,18.49-.38,19.57,10.47.13,15.38-10.4,14.17-25.91,19.66-33.89c0,0,1.28,26.23,11.17,26.74s4.64-23.81,0-36.4c0,0-2.76-63.83,8.81-115.24s22.25-80.34,22.25-80.34" transform="translate(0.5 0.5)"/><path class="cls-11" d="M323.68,456.74s-19.91-23.48-75.06-21.7-71.86,13.5-74,26.92-3.65,40.23,16.78,63.21c0,0,5.36-4.6,19.4-7.91" transform="translate(0.5 0.5)"/><path class="cls-11" d="M374.44,480.1" transform="translate(0.5 0.5)"/><path class="cls-11" d="M325.93,398.39" transform="translate(0.5 0.5)"/><path class="cls-11" d="M289.59,386.56" transform="translate(0.5 0.5)"/><path class="cls-11" d="M389.55,574.19C393.89,600.49,391,632,391,632s12.44,5.27,22.29,13.62c12.71,10.76,24.34,28.42,15.59,32" transform="translate(0.5 0.5)"/><path class="cls-11" d="M412.87,693.48A5.83,5.83,0,0,0,418,697.2c3.83.09,9.2-.68,6.56-10.47s-10-24.93-25.53-34.46" transform="translate(0.5 0.5)"/><path class="cls-11" d="M223.85,513.68a164.78,164.78,0,0,1,47-1.28c25.53,3.07,40.6,15.32,40.6,15.32s21.44-24.51,12.25-71c0,0,16.51,26.56,28.09,78s11.31,112.8,11.31,112.8c-4.64,12.6-9.9,36.91,0,36.4s11.17-26.74,11.17-26.74c5.49,8,14.74,23.36,19.66,33.89s10,11.49,15.38,10.41,4.72-8.77-.38-19.58-19.15-23.83-19.15-23.83" transform="translate(0.5 0.5)"/><path class="cls-11" d="M191.43,525.17s4.59,37.53-7.92,61" transform="translate(0.5 0.5)"/><path class="cls-11" d="M311.43,527.72a171.15,171.15,0,0,0,12.25,58.47" transform="translate(0.5 0.5)"/><path class="cls-11" d="M179.68,586.19s5.87,16.09,74.81,13.53S328,584.91,328,584.91s14.93,40,19.52,76.73c0,0-9.05,8.94-82.07,15.07,0,0-3.32-30-9.19-41.75a372.47,372.47,0,0,0-6.09,41.4s-49.32,4.3-86.59-4.38C163.6,672,161,624,179.68,586.19Z" transform="translate(0.5 0.5)"/><path class="cls-11" d="M227.94,628.32s29.36,12.89,54.76,0" transform="translate(0.5 0.5)"/><path class="cls-12" d="M252.19,554.79a31.34,31.34,0,0,1-.64,17s7.79-8,15.07-6.9" transform="translate(0.5 0.5)"/><path class="cls-13" d="M256.91,419.34s-1.65-8.43,7.15-10.21,26.56,0,26.56,0" transform="translate(0.5 0.5)"/><path class="cls-13" d="M239.68,418.57s8.43-11.1-9.19-12.38S205,409,205,409" transform="translate(0.5 0.5)"/><path class="cls-11" d="M189,796.49c-26.55-56.17-22.34-123-22.34-123" transform="translate(0.5 0.5)"/><path class="cls-11" d="M190.91,807.55s-10.46,22.73-8.68,48.77,5.62,49,20.43,79.15" transform="translate(0.5 0.5)"/><path class="cls-11" d="M250.19,676.36s3.87,77.58-7.36,108.9-5.45,33-5.45,46.63,3.75,18.9-6.81,103.58" transform="translate(0.5 0.5)"/><path class="cls-11" d="M265.47,676.71s1.53,73.14,11.06,97.65,6.13,44.26,2.73,62.64-3.41,69.11,8.85,103.15" transform="translate(0.5 0.5)"/><path class="cls-11" d="M345,663.12s9.48,67.33-18.1,130c0,0,9.54,33.36,7.49,57.19" transform="translate(0.5 0.5)"/><path class="cls-11" d="M335.09,864.57s.44,48-16.63,72.86" transform="translate(0.5 0.5)"/><path class="cls-11" d="M184.79,962.11c3.23,8.68,21.44,7.32,39.66,7.66s27.91-3.58,28.93-14.47-15.49-21.62-40.17-20.6-29.61,20.6-29.61,20.6" transform="translate(0.5 0.5)"/><path class="cls-11" d="M271.94,963.81c-2.13-9.89,5.78-25.53,30.29-26.81s43.75,6.89,41,21S274.49,975.68,271.94,963.81Z" transform="translate(0.5 0.5)"/><path class="cls-14" d="M384,560.44a201.25,201.25,0,0,0-4.68-27.27,55.79,55.79,0,0,0-4.57-12.52,54.35,54.35,0,0,1-4.57-14.18c-1.91-9.44-2.77-18.86-3.94-28.1-.3-2.31-.61-4.61-1-6.86s-.84-4.34-1.38-6.74c-1-4.61-2-9.09-3.26-13.51-2.51-8.8-5.95-17.33-11-24.74a55.17,55.17,0,0,0-8.75-10,49.64,49.64,0,0,0-11-7.32c-1-.45-2-.9-3.05-1.34l-3.24-1.29c-2.15-.88-4.34-1.66-6.51-2.49-4.37-1.59-8.75-3.11-13.19-4.48s-8.89-2.67-13.38-3.79c-2.24-.55-4.49-1.08-6.75-1.55s-4.55-.92-6.69-1.23H277a3,3,0,0,1-2.56-2.79c-.13-2.42-.23-4.78-.3-7.17s-.13-4.77-.15-7.16c0-4.79,0-9.58.46-14.48h0l4.74,2.71c-.53.53-1,.9-1.43,1.31s-1,.77-1.43,1.14a36,36,0,0,1-3,2,40.54,40.54,0,0,1-6.52,3.18,42,42,0,0,1-14.44,2.72,39.22,39.22,0,0,1-14.56-2.65A36.45,36.45,0,0,1,225.67,364h0l4.65-2.85c.25,2.52.36,4.84.4,7.25s0,4.78-.15,7.17-.35,4.77-.67,7.15-.77,4.76-1.27,7.12a3,3,0,0,1-5.87-1.26l0-.08c.46-2.17.89-4.36,1.17-6.58s.51-4.45.63-6.69.18-4.49.14-6.74-.15-4.54-.36-6.64a3,3,0,0,1,2.64-3.24,2.86,2.86,0,0,1,1.24.13l.76.26h0a90.46,90.46,0,0,0,11.7,3.76,52.61,52.61,0,0,0,11.62,1.31,56.16,56.16,0,0,0,11.75-1.34c2-.42,3.93-.95,5.89-1.55,1-.27,2-.62,2.94-.95l2.82-1,.81-.29a2.94,2.94,0,0,1,3.76,1.78,3.08,3.08,0,0,1,.17,1.23h0c-.4,4.52-.47,9.2-.44,13.87q0,3.51.15,7c.07,2.34.16,4.7.29,7l-2.6-2.8c2.51.36,4.79.81,7.15,1.3s4.66,1,7,1.61c4.62,1.15,9.18,2.46,13.71,3.88s9,3,13.47,4.58c2.22.84,4.45,1.65,6.64,2.54l3.3,1.31c1.12.47,2.27,1,3.39,1.5A55.22,55.22,0,0,1,344.86,412a60.48,60.48,0,0,1,9.72,11.13c5.55,8.13,9.19,17.27,11.82,26.48,1.32,4.61,2.36,9.29,3.35,13.86.49,2.18,1.08,4.69,1.44,7s.71,4.73,1,7.08c1.19,9.37,2.05,18.68,3.87,27.65a48.54,48.54,0,0,0,4,12.55l.86,1.67c.26.57.56,1.15.79,1.73.5,1.16.94,2.32,1.34,3.48.82,2.32,1.49,4.65,2.09,7,1.21,4.66,2.13,9.34,2.92,14s1.43,9.36,1.94,14.15a3,3,0,0,1-6,.62Z" transform="translate(0.5 0.5)"/><path class="cls-11" d="M255.58,361.05s-54.07,8.17-91.86-32.68c-23.43-25.33-38-64-41.11-111-1.89-28.83.54-60.8,7.92-94.76,19.4-89.36,148.59-96,205.27-44.93s59.75,81.19,48,148.59S377.22,350.1,255.58,361.05Z" transform="translate(0.5 0.5)"/><line class="cls-15" x1="239.47" y1="258.21" x2="249.75" y2="267.21"/><line class="cls-15" x1="262.84" y1="269" x2="272.92" y2="259.3"/><path class="cls-11" d="M385.21,217.88S421.08,199,429.59,229s-.34,56.51-26.21,60.59-24.35-20-24.35-20l3.09-32Z" transform="translate(0.5 0.5)"/><path class="cls-11" d="M122.91,221.39s-3.79-12.85-21.83-11.83-27.23,16-26.21,33S85.53,285.72,111,284.46s20.44-16,20.44-16L127.05,251l-2.43-14.13Z" transform="translate(0.5 0.5)"/><path class="cls-12" d="M407.46,234.58S391.38,242,391.29,266c0,0,8.26-23,23.92-17.36" transform="translate(0.5 0.5)"/><path class="cls-12" d="M95.63,237.14s19.75,3.74,24.17,18.72c0,0-12.25-14.81-24.17,2.55" transform="translate(0.5 0.5)"/></svg>