<svg xmlns="http://www.w3.org/2000/svg" viewBox="0 0 363.93 961.44"><defs><style>.cls-1{opacity:0.23;}.cls-2{fill:#f2b892;}.cls-3{fill:#e3a075;}.cls-4{fill:#a6edeb;}.cls-5{fill:#7ad1ce;}.cls-10,.cls-11,.cls-13,.cls-6,.cls-7,.cls-9{fill:none;stroke-linecap:round;stroke-linejoin:round;}.cls-6,.cls-7{stroke:#fff;}.cls-10,.cls-13,.cls-6{stroke-width:5px;}.cls-7{stroke-width:4px;}.cls-8{fill:#f79678;}.cls-10,.cls-11,.cls-9{stroke:#280303;}.cls-9{stroke-width:6px;}.cls-11{stroke-width:3px;}.cls-12{fill:#280303;}.cls-13{stroke:#2c0404;}</style></defs><title>Asset 17</title><g id="Layer_2" data-name="Layer 2"><g id="Layer_1-2" data-name="Layer 1"><ellipse class="cls-1" cx="188.92" cy="917.35" rx="112.85" ry="44.09"/><path class="cls-2" d="M11.38,173.06l12.46-5.37,13.2-.85,9.32,4,4.76,7.84s1.37,14.12,1.49,17.31,3.07,17.85,3.71,19.71,3.82,12.08,3.82,12.08l-1.4,8.3-16.22,5.4s-14.82-1.22-15.24-1.38-13-9.27-13.36-9.78S3,209.7,3,209.7L3.59,196s1-7.15.51-7.91.64-6.51.64-6.51Z"/><polygon class="cls-2" points="307.23 204.72 307.29 229.27 312.27 242.1 334.08 247.37 346.87 242.17 356.43 228.91 360.93 211.7 359.68 194.33 355.08 179.7 346.4 171.5 329.63 169.9 317.09 174.59 313.42 175.22 307.23 204.72"/><path class="cls-3" d="M26.72,195.21s-11,6.28-2.06,18.53l5.7-5.78,9.53-.85s6.06,3.4,5.32,3.49-3.94-7.67-3.94-7.67l-8.06-5.53Z"/><path class="cls-3" d="M320.44,217.74l-.94-10.11,9.62-12.35,5.75-4.22s11.48,1.28,8.55,13.34l-12,4.23-7.95,9.11Z"/><path class="cls-3" d="M35.93,167.2s.15,26.75,3.8,34.45S48.14,215,46.27,221,33.51,242.21,9,219.55l3.91,9.51,9,8.52,11.58,5.27,19.14-4.69L60,228.72s-3.35-15-3.85-15.32-4.41-29.09-4.41-29.09l-.91-9.63-9.65-6.55Z"/><path class="cls-3" d="M322.23,171.68a216.24,216.24,0,0,1-1.15,25.13c-1.4,12.38-6,27.19-5.11,31.91s3.83,10.09,14.81,6.77,23.84-20.22,22.85-33.83c-.95-13.28-8.74-29.68-8.74-29.68l14.87,14.87,1.17,28.21-9.21,22.85-14.8,8.3-16.09,2.43-11.49-9.32-4.47-8.17,2.35-20.3,4.16-22.64,3.32-13.36Z"/><path class="cls-2" d="M155,3H175.8l36.09,3.94,19.53,7.83,14.16,7L264,35l12.22,13L292.4,61.4l10.89,21.28,8.24,13.92,4.36,16.23L317.45,128,314.68,167l-7.46,44.84-4.69,26.83-10.15,27.9L272,292.89l-28.25,13.38-43.09,10.9-24,3.47-24.07-3.18-33.4-10.93S95.47,292.72,95.8,291.36s-16.68-19.48-18.21-24.55S64.18,242.1,64.25,239.67s-9.55-34.56-9.55-34.56S50.41,177,50.21,176.67s.26-33.94.26-33.94l3.14-34.2,4-23L70.27,49,87.83,30.65,104.59,19l15.49-7.15,15.67-4.79Z"/><path class="cls-3" d="M234.14,22.85c.25.28,2.65,2.2,7.1,5.83a159.14,159.14,0,0,1,25.92,27.19,156.92,156.92,0,0,1,18.72,29.28c2,4.1,10.19,21.91,12.6,52.42,1.66,21.08,4.11,52.18-11.24,87.49-5.49,12.65-21.29,49-60.25,69.45-31,16.26-62.6,15.14-73.2,14.64-19.77-.93-35.77-5.73-36.08-4.43s15.91,7.85,35.06,10.55c15.31,2.17,27.34,1.18,41.54,0,16.19-1.33,24.31-2,35.4-5.44,18.1-5.61,30.3-14.31,37.79-19.75,9.33-6.77,16.74-12.14,23.49-22.12,7.08-10.48,9.47-20.18,11.23-27.58,4.25-17.9,6.21-22,8.39-50.21,1.29-16.6,3.41-12,4.53-29.57.67-10.62,2.65-26.84,1.69-41.19-1.06-15.61-9.8-23.83-13.93-33.24-3.23-7.36-7-12.29-12.25-19.07C282.37,56.38,276.57,48.71,272.52,44,257.22,26.28,210.36-3.45,234.14,22.85Z"/><path class="cls-3" d="M165.89,222.07a4.56,4.56,0,0,1-.37-3.32c.63-1.57,2.78-2,4.36-1.4a12.85,12.85,0,0,1,4,3.09A19.69,19.69,0,0,0,184.51,226a12.59,12.59,0,0,0,11.09-3.76c1.27-1.44,2.19-3.28,3.87-4.22a3.09,3.09,0,0,1,2.4-.37,2.89,2.89,0,0,1,1.82,2.12,5.34,5.34,0,0,1-.23,2.88,17.4,17.4,0,0,1-3.85,6c-2.41,2.74-5.23,5.42-8.8,6.19A16.75,16.75,0,0,1,186,235a57.92,57.92,0,0,1-7.51-1.13,17.65,17.65,0,0,1-6.07-2.29c-1.89-1.27-2.41-2.82-3.47-4.67C167.93,225.19,166.63,224,165.89,222.07Z"/><path class="cls-4" d="M118.51,481.21s-12.58-22-13.39-22.87-4.38-15.15-4.55-17.45,2-18.47,2.55-20.17,4-11.37,4-11.37L124,399.9l42.57-8.79L218,395.36l25.2,11.73,11.05,8.36-.34,13.91.34,15.36s-1.36,16-2.38,16.51-7.13,15.94-7.13,15.94l-5.13,5.34-11.57-2.89-10-4.94-35.94-6.47-22.79,2-21.44,5.28L123.55,480Z"/><path class="cls-5" d="M247.06,409.7s-9.7-3.07-12,10.21,0,29.62-5.87,44.17c0,0-61.27-23.49-111.06,2.55,0,0-7.41-15.57-7.41-26s-2-11.23-6.63-16.34L101,433.44l2.3,14,7.91,23,9.71,12,15.32-6.38,22-5.36,44.43-1.53,31.66,8.68,5.33,4.64,10.24-17.66L254,441.36V425.53l-1.53-13.28Z"/><path class="cls-2" d="M109.38,545.53l7.45-13.4L122,507.62s-1.36-17.74-1.83-18.32.27-7.4.27-7.4l15.14-6.42,22.67-5,29-2.3,22.86,3.55,16.59,4.75,9.23,6,2.52,1.7,1.16,1.89s.1,4.23.49,8.15,1.8,14.13,2.28,16.66,4.24,19.73,4.24,19.73l3.83,7.4,1.4,6.38v.64l-16.78,6.46-40.28,5.67-40.09,1L127,553.5Z"/><path class="cls-2" d="M157.59,320.21h33.28l14.75-3a60.39,60.39,0,0,1,.91,9.25c-.17,2.9,0,14,0,14l.08,6,15.53,6.39s14,.94,17.36,3.34,25.41,6.81,28.09,9.52,8.42,10.75,9.87,12.64S289,396,289,396s4.8,19.25,6.17,26.09,3,21.19,4.31,29.8,1.67,14.92,3.17,20,6,11.58,6.75,14.08,7,31.45,7,31.45a71.77,71.77,0,0,1,2.89,19.12c.32,11.47,0,33.56,0,33.56s.41,13,.23,15.49-.5,2.27-.28,3.69,12.48,4.82,12.48,4.82l22.86,23,4.65,8.46.95,5.38s.05,2.72-.38,3.23-5.36,2.47-8.17,2.81,1.85,6.56,1.85,6.56l-1.16,10s-6.37,1-7.07.77-3.77-.26-4.24,1-.78,3.18-4,3.74-3.07,1-5.79.56a32.5,32.5,0,0,1-5.79-1.62s-5.7-13.7-6.47-15.32-9.29-14-9.78-16.34-4.51-8.08-4.51-8.08l-2.64,1-2.22,8.35-3.06,8.51L290,642.68l-3.83-4.17.51-11.23,3.49-17.11.68-9.36v-7.66L288.14,547l-6.55-44.26-3.4-12.85L276.14,478s-4.08-17-4.51-18.38-4.17-10.05-4.17-10.05l-4.93-15s-6.47-9.1-7.15-11.23a61,61,0,0,0-3.24-8.6c-1.1-1.95-7.14-8.85-8.17-9.27s-36.08-11.75-36.08-11.75-25.49,0-38-.08a233.68,233.68,0,0,0-26.09,1.55s-18,3.21-19.75,4-14.38,5.53-15.23,6.89-4.34,8.5-5.45,10.89-5.21,15.61-5.46,18-6.54,16.54-6.63,16.8-4.68,31.66-6,34.8-7.61,36.08-8.1,40.44-3.14,14.46-3.48,17.86.4,22.72.27,28-.3,13-.26,19,.26,15.58.26,15.58l5.18,15.49.85,15.14-1.79,6s-3.57,1.27-4,1.1S71.46,642.34,71,642s-6.44-5.7-6.44-5.7-.46-10.9-.54-11.41l-1.14-6.37-8,10.8-14,26.75-8.12,6.37s-5.53.34-5.95.16-5.16-5.45-5.16-5.45l-7.18,1.36s-3.32-1.62-3.41-3.23-.08-6,0-6.56,2.22-6.81,2.22-6.81l-6-4S4,633.15,4,632.72s4.09-9.27,4.09-9.27l8.43-12.34,13.1-10,12.34-6.64L46,592.38s-.34-20.08-.34-21-1.28-16.51-1.36-17.87-.52-12-.52-12,.6-18.13.77-20.43,1.19-12.17,1.53-16S49.93,488,49.93,488s7.66-18.64,7.66-20l2.47-13.71A162.39,162.39,0,0,1,62.7,433c2.21-11.41,4.19-19.13,4.3-19.59S73.37,394.7,73.48,393s10.75-18,10.75-18l10.89-10.21,13.28-5.7L123.72,353l13.79-3.41,19.74-6.21s1.45-7.91,1.53-10.13S157.59,320.21,157.59,320.21Z"/><path class="cls-2" d="M194.32,634.05l26.25-2.69,42.43-8s8.37-2.05,8.8-2.23S274,639,274,639l.82,42.26-8.57,37.09-7.31,24.69s-2.68,5.75-2.68,6.77v8.3c0,1.4,3.7,11.1,4.21,11.61s1.49,15.3,1.49,15.3L264,807.62a68.72,68.72,0,0,1,.38,17.78c-1,10.47-9.42,52.15-9.42,52.15l-5.64,16.66L256,897l12.35,6.11,2.81,8.11s.12,6.06-.77,7.59-1.4,4.21-8.43,5.74-25.65,2.35-31.27,3.73-20.56-.66-20.56-.66-7.83-4.23-9.21-4.92-1.15-5.68-1-6.75,6.13-15.27,6.13-15.27l10.26-5.23s-2.86-4.85-3.49-5.75-5.55-33.8-6-38.54S205,826.55,205,826.55l2.72-41,4.72-23.49-6-25.77-9-36.78Z"/><path class="cls-2" d="M94.91,630.81l21.18,2.4,51,1.76,11.28-1.27.64,22.68v38.56l-8,47.65-7.24,20.66.51,13.11,1.93,31.26L163,855.89s-5.33,25.32-4.25,26.7,0,10.22,0,10.22l13.64,5.8,7.46,7.08V916.3s1.57,7-6.74,8-21.08,3.79-27.46,4-31.82-7.24-31.82-7.24l-2.06-2v-9.56l16.61-14.79-.06-7.23s-11.93-32.67-13-37.5-5.15-33.56-5.15-33.56l3.86-36.91,3.15-13.79s1.94-8.92-4-21.09c-6.18-12.62-17.09-61.49-17.09-61.49Z"/><path class="cls-3" d="M105.16,410.9S78.6,427.41,66.86,533.11c-7.2,64.8-3.24,95,2.22,105.32,3.45,6.5,8.5,2.43,8.5,2.43l1-9.36s-4.93-19.41-5.27-20.77-2.56-18.38-2.22-20.93,2.56-46.13,2.56-46.13l5.44-34.39,5.2-26.21L88,462.65l10.89-30Z"/><path class="cls-3" d="M250.66,409.32s27.92,28.93,39.15,75.91S303.43,568.64,300,632l-5.78,10.21-7.83-3.75-1.36-10.21,4.76-17,2-11.57-2.72-40.17-3.74-25.54-4.09-25.19-5.24-30L267,453.23l-7.15-18-7.14-13.62Z"/><path class="cls-3" d="M95,642.68s19.24,6,60.94,6.47c0,0-6.47,35.57-3.06,67.91s-6.47,48-6.81,69.79,10.21,67.4,6.81,88.51l-2.13,15,8.3,1.28s3.83-18.77,3.7-21.07,2.55-35.61,2.55-36.51,1-39.19,1-41.1-2.17-11.49-3.06-15.32a60.7,60.7,0,0,1-.89-10.49l10.21-26.53L177,701.19s1.49-20.68,2-21.83,1-31.28,1-31.28-1.06-8.68-1-9.19-1.32-6.38-1.32-6.38l-19.53,1.79-29-2.3-21.95-.64-9.71-1.15L95.56,633Z"/><path class="cls-3" d="M216.91,645.91s26.63-2.43,36.46-5.11c0,0,4.05,42.65-1.82,71.75s-16.34,50.56-13.28,67.92,11,55.15,7.92,85.27-4.6,28.85-4.6,28.85h6.13l5.36-8.43s4.85-12,4.85-14.55,6.64-36.77,6.64-36.77,2-17.36-2.3-47.23-5.61-33.45-5.61-33.45l-.52-4.85,6.39-18.9,8.17-36.25,5.36-38.55s-1.53-24-1.53-25-.51-13.53-.51-13.53l-22.73,4.85-41.87,4.34-14,3.07v43.4l7.91,45.7,4.85,24.52s2.81,14,2.81,14.8,1,9.71.77,12-1,7.66-1,7.66,15.57-18.64,13.79-50.55S222.53,687.66,216.91,645.91Z"/><path class="cls-3" d="M156.82,340.94a42.28,42.28,0,0,0,25.41,5.36C197,344.76,206,339,206,339l-.64-23.23L164.61,318l-9.07.89Z"/><path class="cls-4" d="M107.89,545.66,96.14,574.42s-5.27,34.22-5.27,34.73.88,18.56.88,18.56,15.89,5.94,16.14,5.27,47.49,2.89,47.49,2.89l23.07-1.1,7.06-44v7.66l6,13.62,1.26,14.65,1.6,7.36,29-2,23.37-4.53,26-6.47s3.19-1.3,3.09-2.1-5.93-31.51-5.93-31.51-7.54-27.24-8.19-29.26-6.41-14.68-6.41-14.68l-8.56,4.68-18.94,4.09L207.29,556l-40,1.7-26.21-1.53L110.61,548Z"/><path class="cls-3" d="M119.35,495.64l2.43-15.06s20.81-8,42.76-10.6,64.73,5.88,64.73,5.88l10.47,10.21s1.65,19.15,1.65,21.19S248.16,530,248.16,530s4.34,9.58,4.09,11.11-.64,5.49-1,6-15.44,4.47-16.85,4.85-51.19,5-51.19,5l-44.08-1.53-28.6-7.83-.68-5.11,3.23-6.64a133.67,133.67,0,0,0,51.75,9.37c29.62-.51,45.11,0,63-6a219.51,219.51,0,0,1-3.58-48.85s-17.7-11.58-51.57-9-53.28,16.51-53.28,16.51Z"/><path class="cls-5" d="M105.78,553.23s8.42,14.3,53.87,16.6,76.6-4.34,76.6-4.34,9.27,38.64,15.13,60.38l17.55-6,6.38-2.81v-8.68L263.06,565l-6.39-21.45-14.3,6.64-26,3.06-44.17,3.83-41.36-2.55-21.7-8.43Z"/><path class="cls-6" d="M158.38,407.19s-23.75.51-32.81,4.09-9.45,5.87-10,8.93-1.79,7.79,1,18.26"/><path class="cls-6" d="M118.42,446.38a12.48,12.48,0,0,0,2,5.64"/><path class="cls-7" d="M120.59,365.88S104.33,369.12,89.78,385"/><line class="cls-7" x1="85.1" y1="389.9" x2="83.57" y2="392.28"/><path class="cls-7" d="M110.65,567.9s-5.53,9-7,47"/><path class="cls-7" d="M104.58,660a126.3,126.3,0,0,0,6.63,39.32"/><path class="cls-8" d="M246.45,213a20.59,20.59,0,0,1,7.83-2.08,63.21,63.21,0,0,1,21.06,1.34c2.25.53,4.88,1.64,5.17,3.93a4.79,4.79,0,0,1-1.95,4c-2.85,2.51-6.74,3.4-10.48,4-6.61,1.05-15.37,2.62-22,1.08S241.5,215.7,246.45,213Z"/><path class="cls-8" d="M91.61,217c6.35-2.09,13.16-2.17,19.85-2.06,3.64.06,7.47.23,10.56,2.16s5,6.26,3,9.34c-1.74,2.78-5.5,3.29-8.77,3.51-8.47.56-17.43,1.14-25.69-1.28C82.66,226.3,84.3,219.36,91.61,217Z"/><path class="cls-9" d="M147.55,347.36s-13.36,3.15-36.34,11.83-42.38,20.43-48.51,81.7"/><path class="cls-9" d="M60.14,455.45s2,4.08-4.08,20.42S44.57,507,44.57,532.55s1.53,60.26,1.53,60.26-12.44,5.27-22.3,13.61c-12.7,10.77-24.34,28.43-15.58,32"/><path class="cls-9" d="M24.42,653.41s-1.47,4.5-5.3,4.59-9.19-.68-6.55-10.47,10-24.94,25.53-34.47"/><path class="cls-9" d="M47.38,618.85s-14,13-19.15,23.83-5.81,18.49-.38,19.57,10.47.13,15.38-10.4S57.4,625.94,62.89,618c0,0,1.28,26.23,11.17,26.74s4.64-23.81,0-36.4c0,0-2.77-63.83,8.81-115.24s22.25-80.34,22.25-80.34"/><path class="cls-9" d="M251.89,414.08s-19.92-23.49-75.06-21.7-71.86,13.5-74,26.92-3.65,40.23,16.77,63.21c0,0,5.37-4.6,19.41-7.92"/><path class="cls-9" d="M317.76,531.53c4.34,26.3,1.48,57.82,1.48,57.82s12.45,5.27,22.3,13.62c12.71,10.76,24.34,28.42,15.59,32"/><path class="cls-9" d="M341.07,650.82a5.85,5.85,0,0,0,5.15,3.72c3.83.09,9.19-.68,6.56-10.47s-10-24.93-25.54-34.47"/><path class="cls-9" d="M152.06,471a164.78,164.78,0,0,1,47-1.28c25.53,3.07,40.59,15.32,40.59,15.32s21.45-24.51,12.26-71c0,0,16.51,26.56,28.08,78s11.32,112.8,11.32,112.8c-4.64,12.59-9.9,36.91,0,36.4s11.17-26.74,11.17-26.74c5.49,8,14.74,23.36,19.66,33.89s9.95,11.49,15.38,10.41,4.72-8.77-.38-19.58S318,615.39,318,615.39"/><path class="cls-9" d="M119.63,482.51s4.6,37.53-7.91,61"/><path class="cls-9" d="M239.63,485.06a171,171,0,0,0,12.26,58.47"/><path class="cls-9" d="M107.89,543.53s5.87,16.09,74.81,13.53,73.53-14.81,73.53-14.81,14.92,40,19.52,76.73c0,0-9.05,8.94-82.07,15.07,0,0-3.32-30-9.19-41.75a369.72,369.72,0,0,0-6.09,41.4s-49.32,4.3-86.6-4.38C91.8,629.32,89.25,581.32,107.89,543.53Z"/><path class="cls-9" d="M156.14,585.66s29.37,12.89,54.77,0"/><path class="cls-10" d="M180.4,512.13a31.34,31.34,0,0,1-.64,17s7.79-8.05,15.07-6.9"/><path class="cls-11" d="M185.12,376.68s-1.66-8.43,7.15-10.21,26.56,0,26.56,0"/><path class="cls-11" d="M167.89,375.91s8.43-11.1-9.19-12.38-25.53,2.81-25.53,2.81"/><path class="cls-9" d="M117.25,753.83c-26.55-56.17-22.34-123-22.34-123"/><path class="cls-9" d="M119.12,764.89s-10.46,22.73-8.68,48.77,5.62,49,20.43,79.15"/><path class="cls-9" d="M178.4,633.7s3.87,77.58-7.36,108.89-5.45,33-5.45,46.64,3.75,18.9-6.81,103.58"/><path class="cls-9" d="M193.68,634.05s1.53,73.14,11.06,97.65,6.13,44.26,2.72,62.64-3.4,69.11,8.86,103.15"/><path class="cls-9" d="M273.22,620.46s9.48,67.33-18.1,130c0,0,9.54,33.37,7.49,57.2"/><path class="cls-9" d="M263.29,821.91s.45,48-16.63,72.85"/><path class="cls-9" d="M113,919.45c3.23,8.68,21.44,7.31,39.66,7.66s27.91-3.58,28.93-14.47S166.1,891,141.42,892s-29.62,20.6-29.62,20.6"/><path class="cls-9" d="M200.14,921.15c-2.12-9.89,5.79-25.53,30.3-26.81s43.75,6.89,41,21S202.7,933,200.14,921.15Z"/><path class="cls-12" d="M312.22,517.78a199.72,199.72,0,0,0-4.69-27.27A55.29,55.29,0,0,0,303,478a54.35,54.35,0,0,1-4.57-14.18c-1.91-9.44-2.77-18.86-3.94-28.1-.3-2.31-.61-4.61-1-6.86s-.84-4.34-1.38-6.74c-1-4.61-2-9.09-3.26-13.51-2.51-8.8-5.95-17.33-11-24.74a55.17,55.17,0,0,0-8.75-10,49.64,49.64,0,0,0-11-7.32c-1-.46-2-.9-3.05-1.34l-3.24-1.29c-2.15-.88-4.34-1.66-6.51-2.49-4.37-1.59-8.76-3.11-13.19-4.48s-8.89-2.67-13.38-3.79c-2.24-.55-4.49-1.09-6.75-1.55s-4.56-.92-6.69-1.23h0a3,3,0,0,1-2.56-2.79c-.13-2.42-.23-4.78-.3-7.17s-.13-4.77-.15-7.16c0-4.79,0-9.58.46-14.48h0l4.74,2.71c-.54.53-1,.9-1.43,1.31s-.95.77-1.43,1.14c-1,.73-2,1.39-3,2A40.23,40.23,0,0,1,195,329.1a41.9,41.9,0,0,1-14.43,2.72A39.51,39.51,0,0,1,166,329.17a36.51,36.51,0,0,1-12.15-7.82h0l4.64-2.85c.26,2.52.37,4.84.41,7.25s0,4.78-.15,7.17-.35,4.77-.68,7.15-.76,4.76-1.26,7.12a3,3,0,0,1-5.87-1.26l0-.08c.46-2.17.89-4.36,1.17-6.58s.51-4.45.63-6.69.17-4.49.14-6.74-.15-4.54-.36-6.64A3,3,0,0,1,155.2,316a2.83,2.83,0,0,1,1.24.13l.77.26h0a90.46,90.46,0,0,0,11.7,3.76,52.61,52.61,0,0,0,11.62,1.31,56.16,56.16,0,0,0,11.75-1.34c2-.42,3.93-.95,5.89-1.55,1-.27,2-.62,2.94-.95l2.81-1,.82-.29a2.94,2.94,0,0,1,3.76,1.78,3,3,0,0,1,.16,1.22h0c-.39,4.53-.46,9.21-.43,13.88q0,3.51.14,7c.08,2.34.17,4.7.3,7l-2.6-2.79c2.5.36,4.79.81,7.15,1.3s4.65,1,7,1.61c4.61,1.15,9.18,2.46,13.71,3.88s9,3,13.47,4.58c2.21.84,4.44,1.64,6.64,2.54l3.3,1.31c1.12.47,2.27,1,3.39,1.5a55.41,55.41,0,0,1,12.37,8.23,60.87,60.87,0,0,1,9.72,11.14c5.55,8.13,9.19,17.27,11.82,26.48,1.31,4.61,2.35,9.29,3.34,13.86.5,2.18,1.09,4.69,1.45,7.05s.71,4.73,1,7.08c1.19,9.37,2,18.68,3.87,27.65a48.54,48.54,0,0,0,4,12.55l.86,1.67c.26.57.56,1.15.79,1.73.5,1.16.94,2.32,1.34,3.48.81,2.32,1.49,4.65,2.09,7,1.2,4.66,2.13,9.34,2.92,14s1.43,9.36,1.93,14.15a3,3,0,1,1-6,.62Z"/><path class="cls-9" d="M183.79,318.39s-54.07,8.17-91.86-32.68c-23.43-25.33-38-64-41.11-111-1.89-28.83.54-60.8,7.92-94.76C78.14-9.44,207.33-16.08,264,35s59.75,81.19,48,148.59S305.42,307.44,183.79,318.39Z"/><line class="cls-13" x1="167.18" y1="215.05" x2="177.46" y2="224.05"/><line class="cls-13" x1="190.54" y1="225.84" x2="200.63" y2="216.14"/><path class="cls-9" d="M313.42,175.22s35.87-18.87,44.38,11.09-.34,56.51-26.21,60.59-24.35-20-24.35-20l3.09-32Z"/><path class="cls-9" d="M51.12,178.73s-3.79-12.85-21.83-11.83-27.23,16-26.21,33,10.66,43.14,36.08,41.88,20.44-16,20.44-16l-4.34-17.48-2.43-14.14Z"/><path class="cls-10" d="M335.67,191.92s-16.08,7.41-16.17,31.41c0,0,8.26-23,23.92-17.36"/><path class="cls-10" d="M23.84,194.48S43.59,198.22,48,213.2c0,0-12.25-14.81-24.17,2.55"/></g></g></svg>