<svg xmlns="http://www.w3.org/2000/svg" viewBox="0 0 88.51 36.98"><defs><style>.cls-1{fill:#fff;}.cls-2{fill:#2c0404;}</style></defs><title>Asset 10</title><g id="Layer_2" data-name="Layer 2"><g id="Layer_2-2" data-name="Layer 2"><path class="cls-1" d="M3.87,2.37a47.85,47.85,0,0,1,6.56-.22C36.48,2.47,59.74,3.86,85.76,5c-.69,2.93.24,4.77-1.35,7.33-3.79,6.12-6.64,13.39-12.84,17a27.73,27.73,0,0,1-10,3A116,116,0,0,1,45,33.65c-9.46.06-19.26-1.15-27.36-6A45,45,0,0,1,4.19,14.43c-1.37-2-2.47-4-2.09-6.43C2.37,6.31,1.71,2.64,3.87,2.37Z"/><path class="cls-2" d="M3.08,5Q44.54,5.65,86,6.38l-2.5-2.5c-.77,17.46-15.78,29.79-33,27.88-3.19-.35-3.17,4.65,0,5a34.21,34.21,0,0,0,38-32.88A2.53,2.53,0,0,0,86,1.38Q44.54.65,3.08,0c-3.22,0-3.22,5,0,5Z"/><path class="cls-2" d="M.05,4.1c-.56,7.74,3.39,18.43,9.92,23a51.83,51.83,0,0,0,21.24,8.33c3.18.41,3.15-4.59,0-5-5.87-.76-12.56-3.84-17.56-7-5.8-3.6-9.08-12.83-8.6-19.39C5.29.89.29.91.05,4.1Z"/><path class="cls-2" d="M22.49,17.44l16.69.94c3.21.18,3.2-4.82,0-5l-16.69-.94c-3.21-.19-3.2,4.81,0,5Z"/><path class="cls-2" d="M52.13,17a60.72,60.72,0,0,0,8.49,1.12c3.22.19,3.2-4.81,0-5a52.5,52.5,0,0,1-7.17-.94C50.31,11.53,49,16.34,52.13,17Z"/></g></g></svg>