<svg id="Layer_1" data-name="Layer 1" xmlns="http://www.w3.org/2000/svg" viewBox="0 0 501 1001"><defs><style>.cls-1,.cls-5{fill:none;stroke-miterlimit:10;}.cls-1{stroke:#fff;opacity:0;}.cls-2{fill:#4162ae;}.cls-3{fill:#294c9b;}.cls-4{fill:#280303;}.cls-5{stroke:#280303;stroke-width:4px;}</style></defs><title>m-bottom1</title><rect class="cls-1" x="0.5" y="0.5" width="500" height="1000"/><path class="cls-2" d="M172,619.4c0-1.86,1.71-31,2.47-32.71,25.68,12.79,51.1,10.47,79.79,10.85,5.89.08,14.84-.62,20.72-1.08,10.07-.8,13-.07,22.78-2.5,5.84-1.45,16.65-3.17,21.05-7.27,2,10.61,3,49.73,2.77,60.52-1.37,69.17-2.3,138.46,3,207.43,1.46,18.89-1.81,37.64.52,56.45.3,2.42.34,5.48-1.83,6.62-1.21.64-3,.56-3.57,1.8-.68,1.44,1,2.81,2.26,3.76,6.33,4.71,7.47,13.56,8.08,21.42-3.48.89-6.45,3.84-8.65,6.68-5.23-1.84-6.23-8.85-10.16-12.76a17,17,0,0,0-4.67-3.1,44,44,0,0,0-54.32,12.84l1.47-9.61c3.88-25.31,2.58-50.47,2.77-76.07.08-9.71,0-19.43-.39-29.14-1.36-30.2-6.58-60.54-2.45-90.49,3.82-27.74,1.28-56,1.41-84l-14.62.33L241,699c.11,8.35.22,16.7.22,25,0,52.24-4.2,104.38-8.39,156.45a196.87,196.87,0,0,0,7.31,71.58c-3.88-5.88-7.89-11.91-13.65-16-6.55-4.62-14.84-6.27-22.86-6.09s-15.89,2.06-23.69,3.93c-8.56,2.05-12.11,12.45-19.1,17.8a3.32,3.32,0,0,1-1.56.79c-2,.26-2.8-2.48-2.74-4.49a62.7,62.7,0,0,1,11.93-34.78,4.56,4.56,0,0,0,1.09-2.25c.12-1.8-1.85-3-3.54-3.59s-3.7-1.6-3.82-3.41c6.14-4.36,6.54-13.52,6.89-21q2.89-63.13,1.71-126.37c-.54-28.88,1.24-55.54,1.23-84.42C172,654.8,172.08,637.43,172,619.4Z" transform="translate(0.5 0.5)"/><path class="cls-3" d="M254.66,659.79,264.93,656a3.39,3.39,0,0,1,2.39-.25c1.21.49,1.42,2.1,1.43,3.41l.68,63.27.32,30L271,870.55c.28,26.1-.15,54.4-16.16,75-2.68-5.14-1.9-11.32-1.25-17.08,1.73-15.41,2.09-30.93,2.3-46.44q1.07-77.67-2.4-155.31C252.49,704.29,255.31,682.25,254.66,659.79Z" transform="translate(0.5 0.5)"/><path class="cls-3" d="M308,752c2.71,47.17,5.4,94.64-.42,141.51-1.17,9.41-2.54,19.58,2.12,27.83,2.08,3.68,5.25,6.71,7,10.56,2.51,5.59,1.66,12,.77,18.08,4.82.81,9.79-2.3,12-6.69s1.85-9.72,0-14.25a23.57,23.57,0,0,0-10.53-11.75c5.31-1.25,6.2-8.33,5.95-13.78q-5.72-124.61-4.56-249.4c.05-5.65,0-11.72-3.22-16.37-4.89-7.07-15.16-6.15-15.45,2.73-.4,12.3,1.45,25.11,2.15,37.41Z" transform="translate(0.5 0.5)"/><path class="cls-4" d="M253.72,948.68a37.75,37.75,0,0,1,33.4-15.29c12.07,1.09,27.18,9.08,29.09,22.19.46,3.17,5.28,1.82,4.82-1.33-2.16-14.8-18.78-24.06-32.37-25.7-15.39-1.85-30.14,5.32-39.26,17.6-1.92,2.59,2.42,5.08,4.32,2.53Z" transform="translate(0.5 0.5)"/><path class="cls-4" d="M320.71,955.18A10.1,10.1,0,0,1,330,948a2.63,2.63,0,0,0,2.42-1.84c4.13-10.25-3.16-25.76-13.42-29.64-3-1.14-4.32,3.69-1.33,4.82,7.81,3,12.91,16.09,9.92,23.49L330,943a15.31,15.31,0,0,0-14.15,10.82c-1,3.06,3.81,4.37,4.82,1.33Z" transform="translate(0.5 0.5)"/><path class="cls-4" d="M321.79,919.29a33.84,33.84,0,0,0,6.77-4.29,2.51,2.51,0,0,0,0-3.54,2.55,2.55,0,0,0-3.53,0,28.72,28.72,0,0,1-5.76,3.51,2.52,2.52,0,0,0-.9,3.42,2.56,2.56,0,0,0,3.42.9Z" transform="translate(0.5 0.5)"/><path class="cls-4" d="M320.79,838.52a549.17,549.17,0,0,0,2.1,74.57c.31,3.18,5.31,3.21,5,0a549.17,549.17,0,0,1-2.1-74.57c.13-3.21-4.87-3.21-5,0Z" transform="translate(0.5 0.5)"/><path class="cls-3" d="M170.27,606.3l3.28-20.63,29.29,8.1,51.43,3.77L285,596l18.87-6.28,14-3L321.65,603l0,6.9-3.17-2.3s-27.7,8.22-31.55,8.93-34.54,3.25-35.57,3.25-21.32-1.1-21.32-1.1L205.46,615l-19.09-4.64Z" transform="translate(0.5 0.5)"/><path class="cls-3" d="M239.16,662c1.81,2.86,1.88,6.45,1.88,9.83l.09,35.46c.06,22.39.11,44.8-1,67.16-3,57.71-13.94,116-3.29,172.8-6.11-4.73-8.07-13-9.34-20.61-5.7-34.46-5.31-69.59-4.91-104.52.18-16.19.37-32.38.69-48.58q.87-44.64,3.1-89.24c.34-6.75.76-13.53,2.64-20,.63-2.17.92-4.57,3.18-5.4C234.67,657.92,237.88,660,239.16,662Z" transform="translate(0.5 0.5)"/><path class="cls-3" d="M294.14,628.47a6,6,0,0,1,.42-3.91c.65-1.06,1.62-10,2.77-10.49,6.76-2.76,11.41-2.54,18.16-5.3.27-.11,2.74-2.14,3-2s.62,8,.65,8.34l2,24a64.89,64.89,0,0,1,.3,9.65c-.07,1-.3,2.22-1.22,2.68a3.06,3.06,0,0,1-1.8.14l-11.13-1.31c-2.5-.29-5.19-.67-7-2.43C294.8,642.44,295,635.63,294.14,628.47Z" transform="translate(0.5 0.5)"/><path class="cls-3" d="M171.43,618.21c.08-1-.63-10.75,0-11.46a5.09,5.09,0,0,1,5.63-1c4.59,2.34,14.35,4.66,19.35,5.93,1.33.34-1.45,10.31-.75,11.49a5,5,0,0,1,.51,2,55.8,55.8,0,0,1-.14,11.7,8.48,8.48,0,0,1-1.06,3.69,9.32,9.32,0,0,1-3.63,2.86c-4.73,2.58-16,10.11-19.37,2.31C168.88,638.45,170.81,625.94,171.43,618.21Z" transform="translate(0.5 0.5)"/><path class="cls-4" d="M170.77,890.6c3.33-26.11,3.2-52.44,3.24-78.71q0-26.64.13-53.28.2-60,.47-120.06c.08-17.14-1.46-35.4,2.29-52.21l-3.08,1.74c19.47,7.36,39.65,10.56,60.35,11.55,29,1.38,58-.76,85.21-11.68l-3.17-2.41L318.07,607c1.1,12.68.21,25.52.05,38.25Q317.39,703.6,318,762q.35,33.42,1.15,66.83c.08,3.21,5.08,3.22,5,0q-1.39-58.84-1.43-117.71,0-28.94.3-57.86c.16-14.56,1.5-29.54.24-44l-2.05-23.65c-.12-1.43-1.52-3.07-3.16-2.41-26.8,10.77-55.29,12.86-83.88,11.5-20.26-1-40-4.17-59-11.37a2.53,2.53,0,0,0-3.08,1.75c-3.28,14.75-2.35,30.33-2.42,45.34q-.12,28.47-.24,56.94-.24,59.41-.39,118.85c-.05,28.18.32,56.45-3.25,84.46-.41,3.18,4.6,3.15,5,0Z" transform="translate(0.5 0.5)"/><path class="cls-4" d="M162.57,899.33c-2.27,1.63-4.63,3.92-3.48,7,1.36,3.66,6.95,3.6,9.78,5.46l-1.23-2.16c.05,1.39-2.16,3.65-2.87,4.83q-1.72,2.87-3.18,5.88a79.78,79.78,0,0,0-4,9.89,77.75,77.75,0,0,0-3.69,23.69c0,3.21,5,3.22,5,0A72.18,72.18,0,0,1,167,920.63c1.54-2.92,6.16-7.52,5.6-11a3.68,3.68,0,0,0-2.31-2.86c-.63-.35-6.68-2.08-5.24-3.12,2.59-1.86.1-6.2-2.52-4.32Z" transform="translate(0.5 0.5)"/><path class="cls-4" d="M160.27,955c8-13,21.91-22,37.32-22.9,14.82-.88,34.77,5.56,40.22,20.88,1.07,3,5.9,1.71,4.82-1.33-6-17-26.57-25.07-43.38-24.62-17.82.47-34,10.38-43.29,25.44-1.7,2.75,2.63,5.26,4.31,2.53Z" transform="translate(0.5 0.5)"/><path class="cls-4" d="M238.71,661.9c-3.43,38.34.63,76.78-.7,115.17-1.29,37.37-7.34,74.44-7.79,111.86-.24,20.76,1.41,41.51,6.34,61.71.76,3.12,5.59,1.8,4.82-1.33-8.88-36.42-6.43-74-3.07-111,1.69-18.5,3.59-37,4.47-55.54.89-18.83.38-37.67-.08-56.5-.54-21.48-.91-43,1-64.4.29-3.2-4.72-3.18-5,0Z" transform="translate(0.5 0.5)"/><path class="cls-4" d="M232.54,659.72a51.7,51.7,0,0,0,36.64-1.92c2.95-1.26.4-5.57-2.53-4.32a46.34,46.34,0,0,1-32.79,1.41c-3.07-1-4.38,3.85-1.32,4.83Z" transform="translate(0.5 0.5)"/><path class="cls-4" d="M252.54,660.81c-1.46,37.45-2.33,74.8-1.24,112.27,1.08,37.11,3.07,74.22,2.47,111.35a587.75,587.75,0,0,1-4.12,62.75c-.39,3.18,4.61,3.15,5,0,9.14-73.94.37-148.33,1-222.5.19-21.3,1-42.59,1.85-63.87.12-3.22-4.88-3.21-5,0Z" transform="translate(0.5 0.5)"/><path class="cls-4" d="M195.47,612.65c-2.29,5.89-.93,13.42-1.06,19.6-.09,3.93-.07,7.62-3.64,10.11-4.9,3.42-12,4.44-17.79,4.87-2.55.19-2.58,4.2,0,4,8.26-.61,22.62-2.5,24.88-12.41,1.82-8-1.54-17.37,1.47-25.11.93-2.4-2.94-3.44-3.86-1.06Z" transform="translate(0.5 0.5)"/><path class="cls-4" d="M293.46,615.05c-1.22,8.29-1.74,17.61.05,25.84,2.34,10.75,15.65,13.11,25,12.74,2.57-.1,2.58-4.1,0-4-5.55.22-11.63-.4-16.49-3.33-3.95-2.38-4.75-5.77-5.16-10.06a85.28,85.28,0,0,1,.46-20.13c.37-2.52-3.48-3.6-3.85-1.06Z" transform="translate(0.5 0.5)"/><path class="cls-5" d="M320.48,605.87c-68.33,31.26-147.79,0-147.79,0" transform="translate(0.5 0.5)"/></svg>