<svg xmlns="http://www.w3.org/2000/svg" viewBox="0 0 179.72 374.41"><defs><style>.cls-1{fill:#4162ae;}.cls-2{fill:#294c9b;}.cls-3{fill:#280303;}.cls-4{fill:none;stroke:#280303;stroke-miterlimit:10;stroke-width:4px;}</style></defs><title>Asset 17</title><g id="Layer_2" data-name="Layer 2"><g id="Layer_2-2" data-name="Layer 2"><path class="cls-1" d="M18.1,36.42c0-1.86,1.71-31,2.47-32.71C46.25,16.5,71.66,14.18,100.35,14.56c5.9.08,14.85-.62,20.73-1.08,10.06-.8,13-.07,22.77-2.5,5.84-1.44,16.65-3.17,21.06-7.27,2,10.61,3,49.73,2.76,60.53-1.37,69.16-2.29,138.45,3,207.42,1.46,18.89-1.8,37.65.53,56.45.3,2.43.33,5.48-1.84,6.62-1.21.64-3,.56-3.56,1.8-.69,1.44,1,2.81,2.26,3.76,6.32,4.71,7.46,13.56,8.07,21.42-3.48.89-6.44,3.84-8.64,6.68-5.23-1.84-6.24-8.85-10.17-12.76a16.9,16.9,0,0,0-4.67-3.1,44.06,44.06,0,0,0-54.32,12.84l1.47-9.61c3.88-25.31,2.59-50.47,2.78-76.07.07-9.71,0-19.43-.4-29.14-1.35-30.2-6.57-60.54-2.44-90.49,3.82-27.74,1.27-56,1.4-84l-14.62.33L87.05,116c.1,8.35.21,16.7.21,25.05,0,52.24-4.2,104.38-8.39,156.45a196.66,196.66,0,0,0,7.32,71.58c-3.88-5.88-7.9-11.91-13.66-16C66,348.49,57.69,346.84,49.67,347S33.78,349.08,26,351C17.42,353,13.87,363.4,6.89,368.75a3.35,3.35,0,0,1-1.57.79c-2,.26-2.8-2.48-2.73-4.49a62.69,62.69,0,0,1,11.92-34.78A4.56,4.56,0,0,0,15.6,328c.13-1.8-1.85-2.95-3.54-3.59s-3.7-1.6-3.81-3.41c6.13-4.36,6.53-13.52,6.88-21Q18,236.84,16.84,173.61c-.54-28.88,1.24-55.54,1.24-84.42C18.07,71.82,18.16,54.45,18.1,36.42Z"/><path class="cls-2" d="M100.74,76.81,111,73.06a3.39,3.39,0,0,1,2.39-.25c1.22.49,1.42,2.1,1.43,3.41l.68,63.27.32,30,1.26,118.1c.28,26.1-.15,54.4-16.15,75-2.69-5.14-1.91-11.32-1.26-17.08,1.74-15.41,2.09-30.93,2.3-46.43q1.08-77.68-2.4-155.32C98.58,121.31,101.4,99.27,100.74,76.81Z"/><path class="cls-2" d="M154.12,169c2.7,47.17,5.4,94.64-.43,141.52-1.16,9.4-2.53,19.57,2.13,27.82,2.08,3.68,5.24,6.71,7,10.56,2.51,5.59,1.66,12,.77,18.08,4.83.81,9.79-2.3,12-6.69s1.85-9.72,0-14.25A23.59,23.59,0,0,0,165,334.27c5.31-1.25,6.2-8.33,5.95-13.78q-5.7-124.61-4.56-249.4c.05-5.65,0-11.72-3.22-16.37-4.89-7.07-15.15-6.15-15.44,2.73-.41,12.3,1.44,25.11,2.14,37.41Z"/><path class="cls-3" d="M99.8,365.7a37.76,37.76,0,0,1,33.4-15.29c12.07,1.09,27.18,9.08,29.09,22.19.47,3.17,5.29,1.82,4.83-1.33-2.16-14.8-18.79-24.06-32.38-25.7-15.38-1.85-30.14,5.32-39.25,17.6-1.92,2.59,2.42,5.08,4.31,2.53Z"/><path class="cls-3" d="M166.79,372.2a10.1,10.1,0,0,1,9.34-7.15,2.62,2.62,0,0,0,2.41-1.84c4.13-10.25-3.15-25.76-13.42-29.64-3-1.14-4.32,3.69-1.33,4.82,7.81,2.95,12.91,16.09,9.93,23.5l2.41-1.84A15.35,15.35,0,0,0,162,370.87c-1,3.06,3.82,4.38,4.82,1.33Z"/><path class="cls-3" d="M167.87,336.31a34.2,34.2,0,0,0,6.78-4.29,2.53,2.53,0,0,0,0-3.54,2.56,2.56,0,0,0-3.54,0,28.72,28.72,0,0,1-5.76,3.51,2.53,2.53,0,0,0-.9,3.42,2.57,2.57,0,0,0,3.42.9Z"/><path class="cls-3" d="M166.87,255.55A549.27,549.27,0,0,0,169,330.12c.3,3.17,5.3,3.2,5,0a549.27,549.27,0,0,1-2.11-74.57c.13-3.22-4.87-3.22-5,0Z"/><path class="cls-2" d="M16.36,23.32,19.63,2.69l29.29,8.1,51.43,3.77L131.06,13l18.88-6.28,14-3L167.73,20l0,6.89-3.17-2.3s-27.7,8.23-31.55,8.93-34.54,3.26-35.56,3.25-21.33-1.1-21.33-1.1L51.54,32,32.46,27.33Z"/><path class="cls-2" d="M85.25,79c1.8,2.85,1.87,6.44,1.88,9.82q0,17.73.08,35.46c.06,22.39.11,44.8-1,67.16-3,57.71-13.94,116-3.29,172.81-6.11-4.74-8.07-13-9.33-20.62-5.71-34.46-5.32-69.59-4.92-104.51.19-16.2.37-32.39.69-48.59q.89-44.64,3.11-89.24c.33-6.75.75-13.53,2.64-20,.62-2.17.91-4.57,3.17-5.4C80.75,74.94,84,77,85.25,79Z"/><path class="cls-2" d="M140.23,45.49a6,6,0,0,1,.41-3.91c.66-1.06,1.63-10,2.78-10.49,6.75-2.76,11.4-2.54,18.15-5.3.28-.11,2.74-2.14,3-2s.63,8,.66,8.34l2,24a63.4,63.4,0,0,1,.3,9.64c-.07,1-.3,2.22-1.22,2.69a3.22,3.22,0,0,1-1.8.14l-11.13-1.32c-2.5-.29-5.19-.67-7-2.43C140.88,59.46,141.07,52.65,140.23,45.49Z"/><path class="cls-2" d="M17.51,35.23c.08-1-.63-10.75,0-11.46a5.09,5.09,0,0,1,5.63-1c4.6,2.34,14.36,4.66,19.36,5.93,1.33.34-1.46,10.31-.76,11.49a4.87,4.87,0,0,1,.51,2,55.14,55.14,0,0,1-.14,11.7,8.48,8.48,0,0,1-1.06,3.69,9.32,9.32,0,0,1-3.63,2.86c-4.73,2.58-16,10.11-19.36,2.31C15,55.47,16.9,43,17.51,35.23Z"/><path class="cls-3" d="M16.85,307.62c3.33-26.11,3.2-52.44,3.24-78.71q0-26.64.14-53.28.19-60,.47-120.06c.07-17.14-1.47-35.4,2.28-52.21L19.9,5.11c19.48,7.35,39.65,10.55,60.35,11.54,29,1.38,58-.76,85.21-11.68L162.3,2.56,164.16,24c1.1,12.68.2,25.52,0,38.25q-.73,58.35-.12,116.72.36,33.42,1.15,66.83c.08,3.21,5.08,3.22,5,0Q168.84,187,168.8,128.11q0-28.94.31-57.86c.16-14.56,1.49-29.54.24-44l-2-23.65c-.13-1.43-1.53-3.07-3.17-2.41C137.33,10.92,108.84,13,80.25,11.65c-20.26-1-40-4.17-59-11.37A2.51,2.51,0,0,0,18.16,2c-3.29,14.75-2.36,30.33-2.43,45.34l-.24,56.94q-.24,59.41-.39,118.85c0,28.18.33,56.45-3.25,84.46-.4,3.18,4.6,3.15,5,0Z"/><path class="cls-3" d="M8.65,316.35c-2.26,1.63-4.62,3.92-3.48,7,1.36,3.66,7,3.6,9.79,5.46l-1.24-2.16c0,1.39-2.16,3.65-2.87,4.83q-1.72,2.86-3.17,5.88A75.89,75.89,0,0,0,0,370.94c0,3.22,5,3.22,5,0a72.19,72.19,0,0,1,8.13-33.29c1.53-2.92,6.16-7.52,5.59-11a3.67,3.67,0,0,0-2.3-2.86c-.64-.35-6.68-2.08-5.24-3.12,2.59-1.86.09-6.2-2.53-4.32Z"/><path class="cls-3" d="M6.36,372c8-13,21.91-22,37.31-22.9,14.82-.88,34.77,5.56,40.22,20.88,1.07,3,5.91,1.71,4.82-1.33-6-16.95-26.57-25.07-43.38-24.62-17.81.47-34,10.38-43.29,25.44-1.69,2.75,2.63,5.26,4.32,2.53Z"/><path class="cls-3" d="M84.79,78.92c-3.43,38.34.63,76.78-.69,115.17-1.3,37.37-7.35,74.44-7.79,111.86-.25,20.76,1.4,41.51,6.33,61.71.77,3.12,5.59,1.8,4.83-1.33-8.89-36.41-6.43-74-3.07-111,1.68-18.5,3.59-37,4.46-55.54.89-18.83.39-37.67-.08-56.5-.53-21.48-.9-43,1-64.4.29-3.2-4.71-3.18-5,0Z"/><path class="cls-3" d="M78.62,76.74a51.7,51.7,0,0,0,36.64-1.92c2.95-1.26.41-5.57-2.52-4.32A46.34,46.34,0,0,1,80,71.91c-3.07-1-4.39,3.85-1.33,4.83Z"/><path class="cls-3" d="M98.62,77.83c-1.46,37.45-2.32,74.8-1.24,112.27,1.08,37.11,3.07,74.22,2.48,111.35a590.37,590.37,0,0,1-4.12,62.75c-.4,3.18,4.61,3.16,5,0,9.13-73.94.37-148.33,1-222.5.2-21.3,1-42.59,1.85-63.87.13-3.22-4.87-3.21-5,0Z"/><path class="cls-3" d="M41.55,29.67c-2.29,5.89-.93,13.42-1.06,19.6-.09,3.93-.07,7.62-3.63,10.11-4.91,3.42-12,4.44-17.8,4.87-2.55.19-2.57,4.2,0,4,8.27-.61,22.63-2.5,24.88-12.41,1.83-8-1.54-17.37,1.47-25.11.93-2.4-2.93-3.44-3.86-1.06Z"/><path class="cls-3" d="M139.54,32.07c-1.22,8.29-1.74,17.61.05,25.84,2.34,10.75,15.65,13.11,25,12.74,2.57-.1,2.58-4.1,0-4-5.54.22-11.63-.4-16.49-3.33-4-2.38-4.74-5.77-5.15-10.06a84.75,84.75,0,0,1,.46-20.13c.37-2.52-3.49-3.6-3.86-1.06Z"/><path class="cls-4" d="M166.56,22.89c-68.32,31.26-147.78,0-147.78,0"/></g></g></svg>