<svg xmlns="http://www.w3.org/2000/svg" viewBox="0 0 379.88 228.16"><defs><style>.cls-1{fill:#53423b;}.cls-2{fill:#3e2c24;}.cls-3{fill:#2c0404;}.cls-4{fill:#675249;}</style></defs><title>Asset 8</title><g id="Layer_2" data-name="Layer 2"><g id="Layer_2-2" data-name="Layer 2"><path class="cls-1" d="M7.14,198.62c-2.56-6.93.93-14.43,3.27-21.44a8.44,8.44,0,0,0,.61-3.6,9.71,9.71,0,0,0-1.07-3C4.75,159.66,2.66,146.9,6.1,135.3s13-21.67,24.89-23.89c-.71-3.53-1.43-7.12-3.13-10.3a61.58,61.58,0,0,1-3.2-5.71c-1.37-3.42-1-7.27-.52-10.93,1.3-9.76,3.8-20.2,11.38-26.48,8-6.69,19.83-6.82,29.91-4,5.17-5.43,6.14-13.11,9.86-19.62,2.83-5,7.22-8.83,11.81-12.22A105.08,105.08,0,0,1,156.68,2.1c19.06,1.44,39.09,9.41,48.48,26.05.94,1.67,2.37,3.69,4.21,3.21a4.31,4.31,0,0,0,2.14-1.83c5-6.73,11.1-12.9,18.7-16.44,11.07-5.17,24-4.21,36-1.61,7.6,1.65,15.15,4,21.8,8A46.44,46.44,0,0,1,300.2,88.06a46.74,46.74,0,0,1,14.48-1.25c13.3.92,24.87,10.08,30.71,22.06a34.15,34.15,0,0,1,3.66,11.94c.65,7.43-2.19,14.68-5.26,21.47,7-.9,14.61-.92,20.79,2.6,10.08,5.75,13.21,19.08,11.88,30.6a40.25,40.25,0,0,1-5.82,17.44c-3.39,5.17-8.55,9.34-14.58,10.74-3.18.73-7,.48-9-2.08-.77-1-1.19-2.16-1.9-3.17a7,7,0,0,0-8-2.43c-3.32,1.28-5,4.85-7.45,7.48-3.79,4.14-9.41,6-14.8,7.6-7.6,2.25-16.37,4.12-23-.25a20.59,20.59,0,0,1-6.41-7.53c-3.15-5.78-4.68-13-1.68-18.89.94-1.86,2.31-3.51,3-5.48s.47-4.51-1.25-5.69c-1.15-.78-2.64-.77-4-1-5.58-.82-10-5.64-11.62-11s-.9-11.25.61-16.68c.39-1.4.57-3.36-.79-3.87a3,3,0,0,0-1.76.08c-7.95,1.88-16.27.2-24.27-1.48-3.37-.7-6.86-1.46-9.63-3.5a19.62,19.62,0,0,1-5.07-6.15,51.78,51.78,0,0,1-6.78-30.47,36.37,36.37,0,0,1-17.9,9.26c-6,1.19-12.36-.53-17.65-3.59-.69-.4-1.55-.83-2.24-.42a2.16,2.16,0,0,0-.73,1c-4.2,8.8-4.44,19.43-10.31,27.22-3.76,5-9.52,8.26-15.57,9.88s-12.4,1.73-18.65,1.34a60.09,60.09,0,0,1-17.35-3.23c-5.78-2.16-11-5.62-16.1-9,.63,6.33-1.59,12.57-4.08,18.42-1.92,4.51-4.09,9.06-7.64,12.45-8.07,7.73-21.4,7.33-31.34,2.21A200.46,200.46,0,0,0,67.34,197c-3.2,7.55-7,15.62-13.23,20.91a28.84,28.84,0,0,1-29.22,4.26C15.35,218.17,10.73,208.34,7.14,198.62Z"/><path class="cls-2" d="M55.93,183.75c0,10.08-3.3,20.63-11,27.15s-20.23,7.66-27.65.83a16.85,16.85,0,0,0,6.25,9.7C31,227.24,42.07,227,50.09,222S63.17,208.17,65,198.93a46.32,46.32,0,0,0-1.79-23.69c-1.83-5.48-6.17-11.08-5.57-17.05,2.83-.5,5.53.63,8.3,1.21,11.13,2.33,23.41-5.28,26.29-16.28,1.63-6.23.51-12.8.6-19.24s1.88-13.57,7.34-17l3.79,18.3a61.43,61.43,0,0,1,1.4,8.93,30.65,30.65,0,0,1-35.7,32.06c-6.54-1-12-6.33-17.86-7.24C52.6,167.3,55.93,175.19,55.93,183.75Z"/><path class="cls-2" d="M157.72,132.32c-12.84,7.37-29.43,6.32-42.59-.46A5.46,5.46,0,0,0,112,131c-1.09.14-2.08,1.35-1.57,2.32a2.62,2.62,0,0,0,1,.86c10.32,6.48,22.34,10.73,34.51,10.24s24.43-6.19,31.23-16.3c3.39-5,6.28-12.87,5.34-19.07-.4-2.59-9.21-15.41-2.68-14.48a8.79,8.79,0,0,1,2.89,1.24,27.27,27.27,0,0,0,37.46-11.42,9.24,9.24,0,0,1,2.45-3.56c1.17-.85,3.15-.8,3.8.5a3.45,3.45,0,0,1,.18,1.89A36.44,36.44,0,0,1,222.76,95a25.91,25.91,0,0,1-5.66,8.42,20.32,20.32,0,0,1-6.82,3.83c-7.61,2.71-17.68,2.84-24.94-1.12-4-2.16-7-14.63-12-11.54C176.78,109.27,171.28,124.55,157.72,132.32Z"/><path class="cls-2" d="M280.55,133.51a29.91,29.91,0,0,1-6.16,4.27,39.79,39.79,0,0,1-15.84,4.57,35.32,35.32,0,0,1-27.23-10.6c-6.29-6.53-15.68-26.86-8.12-35.2,7,8.81,7,22.32,15.57,29.67,4.26,3.66,10,5.12,15.6,5.56,10.26.8,21.62-2.09,27.62-10.46,1-1.45,3.21-3.12,4.19-1.63a2.54,2.54,0,0,1,.3,1.09c1.28,14.12-18.09,20.09-10.56,36.3,3.56,7.66,11.67,12.6,20,13.77a20.48,20.48,0,0,0-4.27,21.63c3,7.18,10.91,12.08,18.65,11.27s14.56-7.51,15.17-15.27c.34-4.23-1-8.67.53-12.64,4.79.26,6.2,6.56,9.32,10.2,5,5.84,15.43,3.84,20-2.38s4.37-14.8,2.28-22.22c-.79-2.8-2.11-5.85-4.84-6.87s-5.56.31-7.63,2.18-3.56,4.28-5.57,6.22c-6.69,6.47-17.35,6.27-26.44,4.26a18.57,18.57,0,0,1-7.39-2.93c-2.12-1.63-3.59-4.36-3-7,9.3-1.2,17.24-8.23,21-16.84s3.66-18.5,1.34-27.59c-1.73-6.78-4.9-13.54-10.58-17.63s-14.28-4.64-19.34.19c-3.25,3.1-7.52,5.07-11.21,7.64-2.06-3.53-.37-8,1-11.81,6.18-17.25,4.8-37.61-5.81-52.55s-31-23-48.33-17.21c-7.11,2.39-13.35,6.79-19.36,11.29-9.56-2.11-19-6-28-9.86-21.32-9.13-44.38-14.9-66.56-8.09s-43.12,26.44-53,47.43c-6-5.77-16.09-5.76-23.1-1.29S29.66,73.52,28.18,81.7a44.14,44.14,0,0,0,3.58,26.64c-5.52-9.53-9.4-20.5-8.06-31.42s8.94-21.55,19.7-23.86c7.36-1.59,15.06.76,22.53-.2A113.68,113.68,0,0,1,80.63,29.5C85,24.11,90,19.06,96,15.49c5.62-3.35,12-5.29,18.29-6.93,15.53-4,31.74-6.5,47.63-4.31s31.55,9.42,41.49,22c1.58,2,3.57,4.36,6.08,3.95,1.8-.3,3-1.93,4.11-3.37A43.59,43.59,0,0,1,247,10.11c21.9-.3,46.21,6.65,56.75,25.84,8.29,15.08,7,34.11-.18,49.75,6.65.82,12.95,1.52,19.6,2.35a15,15,0,0,1,5.39,1.36c3.16,1.72,4.62,5.37,6.78,8.24,2.58,3.41,6.29,5.84,8.89,9.24,3.9,5.11,4.88,12,4,18.36s-3.31,12.42-5.77,18.36A26.11,26.11,0,0,1,371.71,154a32.16,32.16,0,0,1,4.47,12.35c2.38,14.72-4.45,31.61-18.31,37.1a11.3,11.3,0,0,1-7.17.82c-3.79-1.08-6.2-5.1-10-6.14-5.78-1.57-10.58,4.19-15,8.25-7.27,6.69-18.06,9.84-27.46,6.77s-16.49-12.93-15.18-22.72c.71-5.29,3.57-10,6.37-14.55-9.21-2.24-17.62-9.07-20-18.23S271.51,136.36,280.55,133.51Z"/><path class="cls-3" d="M100.52,129.16c5.83,18.15-8.7,37.46-28.25,34.6C57,161.54,40.9,139.62,56.17,127.21c3-2.44-1.28-6.66-4.25-4.25-8,6.47-9.24,18-5.56,27.13a32.52,32.52,0,0,0,24,19.43c24,4.26,43.28-19.23,36-42-1.18-3.67-7-2.1-5.79,1.59Z"/><path class="cls-3" d="M31.56,108.52C11.25,111.07.78,131.88,0,150.65c-.35,8.92,2.13,18.41,9.13,24.4,6.39,5.47,14.88,7.19,22.61,3.72,3.52-1.58.47-6.75-3-5.18-6.39,2.87-13.81-.28-18-5.48-4.6-5.73-5.3-13.67-4.48-20.72,1.65-14.12,9.53-30.89,25.28-32.87,3.78-.47,3.83-6.48,0-6Z"/><path class="cls-3" d="M55.1,162.42c6.53,10.32,10.54,22.68,7.91,34.93-2.45,11.41-10.34,21.39-22,24.13s-22.29-3.36-27.81-13.73c-4.63-8.7-7.64-23.89,2.06-30.44,3.18-2.15.18-7.36-3-5.19-11.35,7.67-10.77,23.19-6.1,34.62,5.26,12.83,16.84,22.44,31.23,21.33S63,216.69,67.58,203.31c5.08-14.92.89-31-7.3-43.92-2.06-3.26-7.25-.25-5.18,3Z"/><path class="cls-3" d="M42.39,115.51A36.11,36.11,0,0,1,28.1,73.81c5.56-16.13,23.12-26.64,38.24-15.17,3.08,2.33,6.07-2.87,3-5.18a28.39,28.39,0,0,0-26.51-4.17c-9,3.29-15.78,11.31-19.42,20-7.9,18.84-.87,40.14,15.92,51.39,3.22,2.16,6.22-3,3-5.18Z"/><path class="cls-3" d="M70.77,93.21c-3.77-17.5-2.92-36.3,5.51-52.38,7.85-15,20.88-25.11,37.06-29.78a137.9,137.9,0,0,1,25.45-4.41c9.09-.87,18.42-1.33,27.43.49a61.69,61.69,0,0,1,38.37,25.44c2.18,3.16,7.38.16,5.18-3A68.16,68.16,0,0,0,180.15,5.21C165.78-.85,150.49-.66,135.24,1c-14.54,1.59-29.46,4.39-42,12.35-11.15,7.09-19.6,17.85-24.72,30C61.63,59.6,61.29,77.69,65,94.8c.81,3.77,6.6,2.18,5.79-1.59Z"/><path class="cls-3" d="M211.75,33.6C226.59,4,268.14,8.08,291.24,24.82c13,9.42,16.12,27.07,14.25,42.19S294.93,96.37,280.33,102c-3.57,1.37-2,7.17,1.6,5.79C308.38,97.61,317,65.9,309.19,40.48,305,26.92,295,18.67,282.39,13.07,269.09,7.17,254.3,4,239.8,6.63c-14,2.57-26.81,11.14-33.23,23.94-1.73,3.44,3.45,6.49,5.18,3Z"/><path class="cls-3" d="M304.65,90.29c10.62-5.15,22.33-.48,30,7.59,8.18,8.6,12.47,19.28,9.74,31.06-2.15,9.29-6.57,18.44-14,24.63-8,6.67-19.52,9-29,4.14-3.43-1.77-6.47,3.41-3,5.18,10.88,5.6,24,4,33.82-3.15,10.43-7.56,16.68-20.27,18.68-32.8,4-25.22-23.91-54.12-49.26-41.83-3.47,1.68-.43,6.86,3,5.18Z"/><path class="cls-3" d="M345.66,144.7c15.42-6.65,27.48,10,28.15,23.62.36,7.28-.83,15.7-4.42,22.15-4,7.24-11.45,9.55-19.22,10.41-3.79.41-3.84,6.42,0,6,9.26-1,18.29-3.72,23.58-12s6.93-20.08,5.78-29.78c-2.09-17.61-18.71-33.45-36.9-25.6-3.54,1.52-.49,6.69,3,5.18Z"/><path class="cls-3" d="M330.51,192.49c.65,15.16-24.57,21.53-35.57,15.6-12.17-6.56-11-25.89-.39-33.36,3.14-2.2.15-7.4-3-5.18-14.16,9.94-16,34.85.38,43.72,14.86,8,45.46-.71,44.6-20.78-.17-3.85-6.17-3.87-6,0Z"/><path class="cls-3" d="M287.38,171.3c-18.11,1.79-20.92-28.86-4.78-33.91,3.67-1.14,2.1-6.94-1.6-5.78-22.33,7-18.73,48.17,6.38,45.69,3.81-.37,3.84-6.38,0-6Z"/><path class="cls-3" d="M275.25,134.47c-13.31,7.37-32.1,8.61-42.06-5-8.75-12-9.39-32.68-2.11-45.38,1.92-3.35-3.26-6.38-5.18-3-8.65,15.08-7.71,39.27,3.3,53.05,12.08,15.12,33.53,14.16,49.08,5.55,3.38-1.87.36-7.05-3-5.18Z"/><path class="cls-3" d="M175.59,91.85c-.64,11.84,11.88,19.69,22.4,20.74a28.66,28.66,0,0,0,28-15.45c1.81-3.41-3.37-6.45-5.18-3-3.92,7.42-11.18,12.53-19.72,12.64-8.23.11-20-5.28-19.48-14.9.21-3.85-5.79-3.84-6,0Z"/><path class="cls-3" d="M98.48,103.59c-.85,11.31.13,24.22,8.59,32.71,9,9,25,10.61,37,11,12.49.4,23.82-4,31.64-14A43.7,43.7,0,0,0,184.77,102c-.39-3.8-6.39-3.84-6,0a38.33,38.33,0,0,1-7,26.64c-6.68,9.14-16.58,13-27.73,12.66-10.13-.34-24.41-1.53-32.24-8.76s-8.08-19.13-7.34-28.95c.29-3.85-5.72-3.84-6,0Z"/><path class="cls-4" d="M56.49,134.68a16.75,16.75,0,0,0,6.35,18.41c2.08,1.52,4.08-2,2-3.46a12.62,12.62,0,0,1-4.51-13.89c.74-2.47-3.12-3.53-3.86-1.06Z"/><path class="cls-4" d="M70.84,157.18c2.57,0,2.58-4,0-4s-2.58,4,0,4Z"/><path class="cls-4" d="M19.11,125.53c-9.78,12.81-14,32.62,1.13,43.34,2.11,1.49,4.11-2,2-3.45-13.34-9.45-7.94-27.08.31-37.87,1.56-2-1.92-4-3.46-2Z"/><path class="cls-4" d="M15,189.9c-2.63,10.89,2.59,23.46,15.08,23.91,2.58.1,2.57-3.9,0-4-9.82-.36-13.22-10.59-11.22-18.85.6-2.5-3.26-3.57-3.86-1.06Z"/><path class="cls-4" d="M110.8,111.73c1.2,8.48,7.14,15.37,14.76,19,9.44,4.5,20.27,3.59,30.16,1.29,2.5-.58,1.44-4.44-1.07-3.86-15.13,3.52-37.28,1.76-40-17.49-.36-2.54-4.21-1.46-3.86,1.06Z"/><path class="cls-4" d="M163.8,104.07a22.42,22.42,0,0,1-21,16.76c-2.57.08-2.58,4.08,0,4a26.49,26.49,0,0,0,24.82-19.7c.65-2.49-3.21-3.55-3.86-1.06Z"/><path class="cls-4" d="M43.76,62.37A15.85,15.85,0,0,0,33,81.07c.58,2.51,4.44,1.45,3.86-1.06a11.79,11.79,0,0,1,8-13.79c2.46-.74,1.41-4.6-1.06-3.85Z"/><path class="cls-4" d="M32.66,90.85l1,3.58c.7,2.47,4.56,1.42,3.85-1.06l-1-3.58c-.7-2.47-4.56-1.42-3.86,1.06Z"/><path class="cls-4" d="M237.81,80.56c-2.86,9.32-2.34,19.69,2.5,28.3,4,7,11.3,11.83,19.47,9.45,2.47-.72,1.42-4.58-1.06-3.86-8.17,2.38-14.13-4.51-16.73-11.46a33,33,0,0,1-.33-21.37c.76-2.47-3.1-3.52-3.85-1.06Z"/><path class="cls-4" d="M238.21,37.34c14.92-2.68,31,3.17,37,17.92,1,2.36,4.83,1.33,3.86-1.06-6.87-16.92-24.66-23.81-41.93-20.72-2.53.45-1.46,4.31,1.06,3.86Z"/><path class="cls-4" d="M81.57,70.41a50.74,50.74,0,0,1,61.9-47.67c2.5.57,3.57-3.28,1.06-3.85a54.79,54.79,0,0,0-67,51.52c-.09,2.58,3.91,2.57,4,0Z"/><path class="cls-4" d="M159.66,26.4a28.07,28.07,0,0,1,7.69,3.87c2.11,1.49,4.11-2,2-3.45a31.68,31.68,0,0,0-8.64-4.28c-2.46-.79-3.51,3.07-1.07,3.86Z"/><path class="cls-3" d="M207.12,108.38c-9.23,5.11-13.66,16-9.68,26,1.48,3.7,3.94,7.24,8.21,7.61,4.53.38,9.43-2.57,12.24-5.94,5.24-6.29,2.46-17.86-7.25-16.2-9,1.53-6.93,15.2,1.43,11.25,2.32-1.1.3-4.55-2-3.46q1.08-6.21,5.39-2.65a4.75,4.75,0,0,1,1.2,4.58c-.29,2.4-1.79,4.11-3.6,5.58-2.44,2-6.27,4.15-9.44,1.82-1.36-1-2.38-3.69-2.83-5.1-2.56-8.05,1.16-16,8.37-20,2.25-1.25.23-4.71-2-3.46Z"/><path class="cls-3" d="M309.88,78.48c4.66-13.16,20.42-17.42,33-15C349.79,64.84,356,72,350.57,78.7,347.92,82,344,82.89,340,81.83c-1.81-.47-4-1.36-5-3.13l-.64-2.62c0-3.77,2.07-4.28,6.27-1.56-.82,2.45,3,3.5,3.86,1.07a6.27,6.27,0,0,0-5.67-8.37c-4.85-.23-8.47,4.29-8.46,8.86,0,12.31,18.32,12.76,24,4.32a13.16,13.16,0,0,0-.21-14.74c-3.43-5-9.57-6.27-15.24-6.62-13.68-.83-28,4.64-32.87,18.38-.86,2.43,3,3.48,3.86,1.06Z"/></g></g></svg>