<svg id="Layer_1" data-name="Layer 1" xmlns="http://www.w3.org/2000/svg" viewBox="0 0 501 1001"><defs><style>.cls-1{fill:none;stroke:#fff;stroke-miterlimit:10;opacity:0;}.cls-2{fill:#53423b;}.cls-3{fill:#3e2c24;}.cls-4{fill:#2c0404;}.cls-5{fill:#675249;}</style></defs><title>m-hair</title><rect class="cls-1" x="0.5" y="0.5" width="500" height="1000"/><path class="cls-2" d="M75.76,203.44C73.2,196.51,76.68,189,79,182a8.52,8.52,0,0,0,.62-3.61,9.71,9.71,0,0,0-1.07-3c-5.2-10.92-7.3-23.68-3.86-35.28s13-21.67,24.89-23.89c-.7-3.53-1.43-7.12-3.12-10.3a60.24,60.24,0,0,1-3.21-5.7c-1.36-3.43-1-7.28-.52-10.94,1.3-9.76,3.81-20.2,11.38-26.48,8.06-6.68,19.84-6.81,29.91-4,5.18-5.42,6.15-13.11,9.87-19.62,2.83-5,7.22-8.82,11.81-12.21A105,105,0,0,1,225.3,6.93c19.06,1.43,39.08,9.4,48.48,26.05.93,1.66,2.36,3.68,4.21,3.21a4.27,4.27,0,0,0,2.13-1.84c5-6.73,11.11-12.9,18.71-16.44,11.07-5.16,24-4.2,35.94-1.61,7.6,1.65,15.16,4,21.8,8a46.45,46.45,0,0,1,12.24,68.59,46.81,46.81,0,0,1,14.49-1.26c13.29.92,24.86,10.08,30.71,22.06a34.57,34.57,0,0,1,3.66,11.94c.64,7.43-2.19,14.68-5.26,21.48,7-.9,14.61-.93,20.78,2.59,10.08,5.75,13.22,19.08,11.88,30.6a40,40,0,0,1-5.82,17.44c-3.38,5.18-8.55,9.34-14.57,10.74-3.18.74-7,.48-9.05-2.08-.76-1-1.19-2.16-1.89-3.17a7,7,0,0,0-8-2.43c-3.32,1.29-5,4.85-7.46,7.48-3.79,4.15-9.41,6-14.8,7.61-7.59,2.24-16.37,4.11-23-.26a20.61,20.61,0,0,1-6.41-7.53c-3.15-5.78-4.67-13-1.68-18.89.95-1.86,2.32-3.51,3-5.48s.47-4.51-1.25-5.69c-1.14-.78-2.63-.77-4-1-5.58-.82-10-5.64-11.62-11s-.9-11.24.61-16.68c.39-1.4.57-3.36-.79-3.87a3,3,0,0,0-1.76.08c-8,1.88-16.27.2-24.27-1.48-3.37-.7-6.86-1.46-9.64-3.5a19.67,19.67,0,0,1-5.07-6.15A51.75,51.75,0,0,1,290.88,104a36.41,36.41,0,0,1-17.9,9.26c-6,1.19-12.36-.53-17.65-3.59-.7-.4-1.56-.83-2.24-.42a2,2,0,0,0-.73,1c-4.2,8.8-4.45,19.43-10.31,27.23-3.77,5-9.52,8.25-15.57,9.87s-12.4,1.73-18.65,1.34a60.16,60.16,0,0,1-17.36-3.23c-5.78-2.15-11-5.61-16.09-9,.63,6.32-1.6,12.56-4.08,18.41-1.92,4.51-4.1,9.06-7.64,12.45-8.08,7.73-21.41,7.33-31.35,2.21A200.48,200.48,0,0,0,136,201.85c-3.21,7.55-7,15.63-13.23,20.92A28.86,28.86,0,0,1,93.51,227C84,223,79.34,213.16,75.76,203.44Z" transform="translate(0.5 0.5)"/><path class="cls-3" d="M124.55,188.57c0,10.08-3.3,20.63-11,27.16s-20.24,7.65-27.66.83a16.92,16.92,0,0,0,6.26,9.69c7.41,5.82,18.53,5.54,26.55.59s13.07-13.85,14.91-23.09a46.32,46.32,0,0,0-1.8-23.69C130,174.58,125.66,169,126.26,163c2.82-.5,5.53.63,8.3,1.21,11.13,2.33,23.41-5.27,26.28-16.28,1.63-6.23.52-12.8.6-19.24s1.88-13.57,7.34-17L172.57,130a60.09,60.09,0,0,1,1.4,8.93A30.64,30.64,0,0,1,138.27,171c-6.53-1-12-6.33-17.86-7.24C121.22,172.13,124.54,180,124.55,188.57Z" transform="translate(0.5 0.5)"/><path class="cls-3" d="M226.34,137.15c-12.84,7.36-29.43,6.31-42.59-.46a5.47,5.47,0,0,0-3.11-.91c-1.09.14-2.09,1.35-1.57,2.32a2.47,2.47,0,0,0,1,.86c10.31,6.49,22.34,10.74,34.51,10.24S239,143,245.76,132.9c3.39-5,6.27-12.87,5.33-19.07-.39-2.59-9.2-15.41-2.68-14.48a8.84,8.84,0,0,1,2.9,1.24,27.23,27.23,0,0,0,37.45-11.42,9.42,9.42,0,0,1,2.45-3.56c1.18-.85,3.15-.8,3.8.5A3.36,3.36,0,0,1,295.2,88a36.5,36.5,0,0,1-3.82,11.78c-1.47,3.07-3.13,6.14-5.66,8.41a20.46,20.46,0,0,1-6.83,3.83c-7.6,2.72-17.67,2.84-24.94-1.11-4-2.17-7-14.64-11.95-11.54C245.4,114.09,239.89,129.37,226.34,137.15Z" transform="translate(0.5 0.5)"/><path class="cls-3" d="M349.16,138.34A29.79,29.79,0,0,1,343,142.6a39.78,39.78,0,0,1-15.85,4.57,35.3,35.3,0,0,1-27.22-10.6c-6.3-6.53-15.68-26.85-8.13-35.19,7.05,8.8,7,22.32,15.58,29.67,4.26,3.66,10,5.12,15.59,5.55,10.27.81,21.63-2.09,27.62-10.46,1-1.45,3.21-3.12,4.19-1.63a2.28,2.28,0,0,1,.3,1.09c1.28,14.12-18.09,20.1-10.55,36.3,3.56,7.67,11.66,12.6,20,13.78a20.48,20.48,0,0,0-4.27,21.62c3,7.18,10.92,12.08,18.66,11.27s14.55-7.51,15.17-15.27c.34-4.23-1-8.67.52-12.64,4.79.26,6.2,6.56,9.33,10.2,5,5.85,15.42,3.84,20-2.38s4.36-14.8,2.28-22.22c-.79-2.8-2.12-5.85-4.84-6.87s-5.57.31-7.63,2.18-3.57,4.28-5.57,6.22c-6.7,6.47-17.35,6.27-26.45,4.26a18.44,18.44,0,0,1-7.38-2.93c-2.12-1.62-3.6-4.36-3-7,9.3-1.2,17.24-8.23,21-16.83s3.66-18.51,1.35-27.59c-1.73-6.78-4.9-13.55-10.58-17.64s-14.29-4.64-19.35.19c-3.25,3.11-7.51,5.07-11.2,7.64-2.07-3.53-.37-8,1-11.81,6.17-17.25,4.8-37.61-5.81-52.55s-31-23-48.33-17.21c-7.12,2.39-13.36,6.79-19.37,11.29-9.56-2.11-18.94-6-27.94-9.86-21.32-9.13-44.39-14.9-66.56-8.09s-43.13,26.45-53,47.43c-6-5.76-16.08-5.76-23.1-1.29S98.28,78.34,96.8,86.53a44,44,0,0,0,3.58,26.63c-5.52-9.52-9.4-20.5-8.07-31.42s9-21.55,19.71-23.86c7.36-1.58,15.06.76,22.53-.2a113.91,113.91,0,0,1,14.69-23.36c4.4-5.39,9.36-10.44,15.33-14,5.62-3.36,12-5.3,18.29-6.94,15.53-4,31.74-6.5,47.64-4.31s31.55,9.42,41.49,22c1.58,2,3.57,4.37,6.08,3.95,1.79-.29,3-1.93,4.11-3.37a43.57,43.57,0,0,1,33.44-16.74c21.9-.3,46.2,6.65,56.75,25.84,8.28,15.08,7,34.12-.19,49.75,6.66.82,12.95,1.52,19.61,2.35a14.84,14.84,0,0,1,5.39,1.37c3.15,1.71,4.61,5.36,6.78,8.23,2.57,3.41,6.29,5.84,8.88,9.24,3.91,5.11,4.89,12,4.05,18.37s-3.31,12.41-5.76,18.36a26.1,26.1,0,0,1,29.2,10.38,32.49,32.49,0,0,1,4.47,12.35c2.37,14.72-4.46,31.61-18.31,37.1a11.32,11.32,0,0,1-7.18.82c-3.79-1.08-6.19-5.1-10-6.13-5.78-1.57-10.59,4.18-15,8.24-7.27,6.69-18.06,9.84-27.45,6.77s-16.5-12.92-15.18-22.72c.71-5.29,3.57-10,6.37-14.55-9.21-2.24-17.62-9.06-20-18.23S340.12,141.18,349.16,138.34Z" transform="translate(0.5 0.5)"/><path class="cls-4" d="M169.14,134c5.83,18.16-8.71,37.46-28.25,34.61-15.28-2.23-31.37-24.14-16.11-36.56,3-2.44-1.27-6.66-4.24-4.24-8,6.47-9.24,18-5.56,27.13a32.49,32.49,0,0,0,24,19.42c23.94,4.26,43.27-19.22,36-42-1.17-3.66-7-2.1-5.78,1.59Z" transform="translate(0.5 0.5)"/><path class="cls-4" d="M100.18,113.35c-20.32,2.54-30.79,23.35-31.53,42.12-.35,8.93,2.12,18.41,9.12,24.4,6.4,5.47,14.89,7.2,22.62,3.72,3.51-1.58.47-6.75-3-5.18-6.4,2.88-13.81-.28-18-5.48-4.6-5.73-5.29-13.66-4.47-20.72,1.64-14.12,9.53-30.89,25.28-32.86,3.78-.48,3.83-6.48,0-6Z" transform="translate(0.5 0.5)"/><path class="cls-4" d="M123.72,167.24c6.53,10.32,10.54,22.68,7.9,34.93-2.45,11.41-10.33,21.39-22,24.13s-22.3-3.36-27.81-13.73c-4.64-8.7-7.64-23.89,2-30.44,3.18-2.15.18-7.35-3-5.18-11.34,7.66-10.77,23.18-6.09,34.61C80,224.39,91.57,234,106,232.89s25.69-11.38,30.24-24.76c5.07-14.92.89-31-7.3-43.92-2.06-3.25-7.26-.25-5.18,3Z" transform="translate(0.5 0.5)"/><path class="cls-4" d="M111,120.33a36.1,36.1,0,0,1-14.28-41.7C102.28,62.5,119.83,52,135,63.46c3.07,2.34,6.06-2.87,3-5.18a28.37,28.37,0,0,0-26.5-4.17c-9.06,3.29-15.78,11.31-19.43,20C84.16,93,91.18,114.26,108,125.51c3.22,2.16,6.23-3,3-5.18Z" transform="translate(0.5 0.5)"/><path class="cls-4" d="M139.38,98c-3.77-17.5-2.91-36.3,5.52-52.38,7.85-15,20.88-25.11,37.06-29.78a137.94,137.94,0,0,1,25.44-4.41c9.1-.86,18.42-1.32,27.44.5a61.66,61.66,0,0,1,38.37,25.43c2.17,3.16,7.37.17,5.18-3A68.19,68.19,0,0,0,248.77,10C234.39,4,219.11,4.16,203.85,5.82c-14.54,1.59-29.46,4.39-42,12.36-11.15,7.09-19.61,17.85-24.72,30-6.89,16.29-7.23,34.38-3.54,51.49.81,3.78,6.59,2.18,5.78-1.59Z" transform="translate(0.5 0.5)"/><path class="cls-4" d="M280.37,38.42c14.84-29.56,56.39-25.52,79.49-8.78,13,9.42,16.12,27.08,14.25,42.19s-10.57,29.36-25.16,35c-3.57,1.36-2,7.17,1.59,5.78,26.46-10.14,35.1-41.84,27.27-67.27-4.18-13.55-14.19-21.81-26.8-27.41-13.3-5.9-28.1-9.11-42.59-6.44C294.47,14,281.61,22.6,275.18,35.39c-1.72,3.45,3.45,6.49,5.19,3Z" transform="translate(0.5 0.5)"/><path class="cls-4" d="M373.27,95.11c10.62-5.15,22.33-.48,30,7.59,8.17,8.61,12.46,19.29,9.73,31.07-2.15,9.28-6.56,18.43-14,24.63-8,6.66-19.52,9-29,4.13-3.42-1.76-6.46,3.41-3,5.18,10.87,5.6,24,4,33.81-3.15,10.44-7.56,16.68-20.27,18.68-32.8,4-25.21-23.9-54.12-49.25-41.83-3.48,1.69-.44,6.86,3,5.18Z" transform="translate(0.5 0.5)"/><path class="cls-4" d="M414.27,149.52c15.42-6.65,27.49,10,28.15,23.62.36,7.28-.82,15.71-4.41,22.15-4,7.24-11.46,9.55-19.22,10.41-3.8.42-3.84,6.42,0,6,9.26-1,18.28-3.72,23.57-12s6.93-20.08,5.79-29.77c-2.09-17.62-18.72-33.45-36.91-25.61-3.53,1.52-.48,6.69,3,5.18Z" transform="translate(0.5 0.5)"/><path class="cls-4" d="M399.12,197.31c.65,15.16-24.56,21.53-35.56,15.6-12.18-6.56-11-25.89-.39-33.36,3.14-2.2.14-7.4-3-5.18-14.16,9.94-16,34.85.39,43.72,14.85,8,45.46-.71,44.59-20.78-.16-3.84-6.17-3.86-6,0Z" transform="translate(0.5 0.5)"/><path class="cls-4" d="M356,176.13c-18.1,1.78-20.91-28.87-4.78-33.91,3.67-1.15,2.11-6.95-1.59-5.79-22.34,7-18.74,48.17,6.37,45.7,3.81-.38,3.85-6.38,0-6Z" transform="translate(0.5 0.5)"/><path class="cls-4" d="M343.87,139.3c-13.31,7.36-32.11,8.6-42.06-5-8.75-12-9.4-32.68-2.12-45.38,1.93-3.35-3.25-6.38-5.18-3-8.65,15.09-7.71,39.27,3.31,53.06,12.08,15.11,33.53,14.16,49.08,5.55,3.38-1.87.35-7.06-3-5.18Z" transform="translate(0.5 0.5)"/><path class="cls-4" d="M244.21,96.68c-.65,11.83,11.88,19.68,22.39,20.73a28.66,28.66,0,0,0,28-15.45c1.8-3.41-3.37-6.45-5.18-3-3.92,7.42-11.18,12.53-19.73,12.64-8.22.11-20-5.28-19.47-14.89.21-3.86-5.79-3.85-6,0Z" transform="translate(0.5 0.5)"/><path class="cls-4" d="M167.09,108.41c-.85,11.31.14,24.22,8.59,32.71,8.95,9,24.95,10.62,37,11,12.5.4,23.82-4,31.65-14a43.74,43.74,0,0,0,9.07-31.35c-.39-3.8-6.39-3.84-6,0a38.32,38.32,0,0,1-7,26.64c-6.68,9.14-16.59,13-27.74,12.66-10.12-.34-24.4-1.53-32.23-8.76s-8.09-19.13-7.35-29c.29-3.85-5.71-3.83-6,0Z" transform="translate(0.5 0.5)"/><path class="cls-5" d="M125.11,139.5a16.74,16.74,0,0,0,6.35,18.41c2.08,1.52,4.08-1.95,2-3.46A12.6,12.6,0,0,1,129,140.56c.74-2.47-3.12-3.53-3.86-1.06Z" transform="translate(0.5 0.5)"/><path class="cls-5" d="M139.45,162c2.58,0,2.58-4,0-4s-2.57,4,0,4Z" transform="translate(0.5 0.5)"/><path class="cls-5" d="M87.73,130.35c-9.78,12.81-14,32.62,1.13,43.34,2.11,1.49,4.11-2,2-3.45-13.35-9.45-7.94-27.07.3-37.87,1.56-2.05-1.91-4-3.45-2Z" transform="translate(0.5 0.5)"/><path class="cls-5" d="M83.57,194.72c-2.63,10.89,2.59,23.46,15.08,23.92,2.57.09,2.57-3.91,0-4-9.82-.36-13.22-10.6-11.23-18.86.61-2.5-3.25-3.57-3.85-1.06Z" transform="translate(0.5 0.5)"/><path class="cls-5" d="M179.42,116.55c1.19,8.48,7.13,15.37,14.75,19,9.44,4.51,20.28,3.59,30.16,1.29,2.51-.58,1.45-4.44-1.06-3.86-15.13,3.52-37.28,1.76-40-17.49-.35-2.54-4.21-1.46-3.85,1.06Z" transform="translate(0.5 0.5)"/><path class="cls-5" d="M232.42,108.89a22.43,22.43,0,0,1-21,16.76c-2.56.08-2.58,4.08,0,4A26.48,26.48,0,0,0,236.27,110c.65-2.5-3.2-3.56-3.85-1.07Z" transform="translate(0.5 0.5)"/><path class="cls-5" d="M112.37,67.19A15.87,15.87,0,0,0,101.56,85.9c.59,2.5,4.44,1.44,3.86-1.07a11.78,11.78,0,0,1,8-13.78c2.45-.74,1.41-4.6-1.07-3.86Z" transform="translate(0.5 0.5)"/><path class="cls-5" d="M101.28,95.68l1,3.57c.71,2.47,4.57,1.42,3.86-1.06l-1-3.58c-.71-2.47-4.57-1.42-3.86,1.07Z" transform="translate(0.5 0.5)"/><path class="cls-5" d="M306.42,85.38c-2.86,9.32-2.33,19.69,2.51,28.3,3.95,7,11.3,11.83,19.47,9.45,2.46-.72,1.41-4.58-1.07-3.86-8.17,2.38-14.13-4.5-16.72-11.46a32.94,32.94,0,0,1-.33-21.37c.75-2.46-3.11-3.52-3.86-1.06Z" transform="translate(0.5 0.5)"/><path class="cls-5" d="M306.83,42.16c14.91-2.67,31,3.17,37,17.92,1,2.36,4.82,1.33,3.85-1.06C340.83,42.1,323,35.21,305.76,38.3c-2.53.45-1.45,4.31,1.07,3.86Z" transform="translate(0.5 0.5)"/><path class="cls-5" d="M150.19,75.23a50.72,50.72,0,0,1,61.89-47.66c2.51.57,3.58-3.29,1.07-3.86a54.79,54.79,0,0,0-67,51.52c-.09,2.58,3.91,2.58,4,0Z" transform="translate(0.5 0.5)"/><path class="cls-5" d="M228.28,31.22A27.82,27.82,0,0,1,236,35.1c2.11,1.48,4.11-2,2-3.46a32,32,0,0,0-8.65-4.28c-2.45-.79-3.51,3.07-1.06,3.86Z" transform="translate(0.5 0.5)"/><path class="cls-4" d="M275.73,113.21c-9.22,5.1-13.65,16-9.67,26,1.47,3.71,3.93,7.24,8.21,7.61,4.52.39,9.42-2.56,12.23-5.94,5.24-6.29,2.46-17.86-7.24-16.2-9,1.53-6.93,15.2,1.42,11.25,2.33-1.1.3-4.55-2-3.45q1.08-6.23,5.39-2.66a4.76,4.76,0,0,1,1.19,4.59c-.29,2.4-1.79,4.1-3.6,5.57-2.44,2-6.27,4.16-9.44,1.83-1.36-1-2.38-3.7-2.83-5.11-2.55-8,1.17-16,8.37-20,2.25-1.25.24-4.7-2-3.45Z" transform="translate(0.5 0.5)"/><path class="cls-4" d="M378.5,83.3c4.65-13.15,20.41-17.42,33-15,6.88,1.33,13.06,8.49,7.66,15.19-2.66,3.29-6.59,4.19-10.62,3.14-1.82-.48-4-1.37-5-3.14L403,80.9q0-5.64,6.27-1.55c-.82,2.44,3,3.49,3.86,1.06A6.27,6.27,0,0,0,407.43,72c-4.86-.23-8.48,4.29-8.46,8.86,0,12.31,18.32,12.76,24,4.32a13.16,13.16,0,0,0-.2-14.74c-3.43-5-9.57-6.27-15.24-6.62-13.69-.83-28,4.65-32.87,18.38-.86,2.43,3,3.48,3.86,1.06Z" transform="translate(0.5 0.5)"/></svg>